STARTFONT 2.1
FONT -Adobe-Utopia-Bold-R-Normal--25-240-75-75-P-140-ISO10646-1
SIZE 24 75 75
FONTBOUNDINGBOX 35 38 -4 -10
COMMENT $Xorg: $
COMMENT ISO10646-1 extension by Markus Kuhn <mkuhn@acm.org>, 2001-03-20
STARTPROPERTIES 28
FOUNDRY "Adobe"
FAMILY_NAME "Utopia"
WEIGHT_NAME "Bold"
SLANT "R"
SETWIDTH_NAME "Normal"
ADD_STYLE_NAME ""
PIXEL_SIZE 25
POINT_SIZE 240
RESOLUTION_X 75
RESOLUTION_Y 75
SPACING "P"
AVERAGE_WIDTH 140
CHARSET_REGISTRY "ISO10646"
CHARSET_ENCODING "1"
CAP_HEIGHT 17
X_HEIGHT 12
RELATIVE_SETWIDTH 50
RELATIVE_WEIGHT 70
WEIGHT 218
FACE_NAME "Utopia Bold"
COPYRIGHT "Copyright (c) 1989, 1991 Adobe Systems Incorporated.  All rights reserved."
NOTICE "Utopia is a registered trademark of Adobe Systems Incorporated."
DESTINATION 0
FONT_ASCENT 21
FONT_DESCENT 5
DEFAULT_CHAR 0
_ADOBE_PSFONT "Utopia-Bold"
_DEC_DEVICE_FONTNAMES "PS=Utopia-Bold"
ENDPROPERTIES
CHARS 756
STARTCHAR char0
ENCODING 0
SWIDTH 807 0
DWIDTH 20 0
BBX 19 17 0 0
BITMAP
AAAAA0
000000
800020
000000
800020
000000
800020
000000
800020
000000
800020
000000
800020
000000
800020
000000
AAAAA0
ENDCHAR
STARTCHAR space
ENCODING 32
SWIDTH 210 0
DWIDTH 5 0
BBX 0 0 0 0
BITMAP
ENDCHAR
STARTCHAR exclam
ENCODING 33
SWIDTH 278 0
DWIDTH 7 0
BBX 6 17 0 0
BITMAP
78
FC
FC
FC
78
78
78
78
30
30
30
00
30
78
78
78
30
ENDCHAR
STARTCHAR quotedbl
ENCODING 34
SWIDTH 473 0
DWIDTH 12 0
BBX 7 8 2 9
BITMAP
EE
EE
EE
EE
EE
44
44
44
ENDCHAR
STARTCHAR numbersign
ENCODING 35
SWIDTH 560 0
DWIDTH 14 0
BBX 14 15 0 2
BITMAP
0630
0630
0630
3FFC
3FFC
0C60
0C60
18C0
18C0
18C0
FFF0
FFF0
3180
3180
3180
ENDCHAR
STARTCHAR dollar
ENCODING 36
SWIDTH 560 0
DWIDTH 14 0
BBX 13 21 0 -2
BITMAP
0200
0200
0FE0
1AF8
3278
7230
7A00
7E00
7F00
7FC0
3FF0
1FF8
07F8
03F8
0278
6238
F230
FA60
3FC0
0200
0200
ENDCHAR
STARTCHAR percent
ENCODING 37
SWIDTH 887 0
DWIDTH 22 0
BBX 21 17 0 0
BITMAP
3E0100
77FF00
E38200
E38400
E38C00
E38800
E39000
773000
3E23E0
004770
00CE38
008E38
010E38
030E38
020E38
040770
0C03E0
ENDCHAR
STARTCHAR ampersand
ENCODING 38
SWIDTH 748 0
DWIDTH 19 0
BBX 18 17 0 0
BITMAP
03C000
0F7000
1E3800
1E3800
1E3800
1F3180
0FE3C0
0FC7C0
3FE3C0
7DF380
F8F380
F87B00
F87E00
F83E00
7C1F00
3E3F80
0FC7C0
ENDCHAR
STARTCHAR quotesingle
ENCODING 39
SWIDTH 252 0
DWIDTH 6 0
BBX 3 8 1 9
BITMAP
E0
E0
E0
E0
E0
40
40
40
ENDCHAR
STARTCHAR parenleft
ENCODING 40
SWIDTH 365 0
DWIDTH 9 0
BBX 7 20 1 -3
BITMAP
06
1C
38
70
70
70
E0
E0
E0
E0
E0
E0
E0
E0
70
70
70
38
1C
06
ENDCHAR
STARTCHAR parenright
ENCODING 41
SWIDTH 365 0
DWIDTH 9 0
BBX 7 20 0 -3
BITMAP
C0
70
38
1C
1C
1C
0E
0E
0E
0E
0E
0E
0E
0E
1C
1C
1C
38
70
C0
ENDCHAR
STARTCHAR asterisk
ENCODING 42
SWIDTH 442 0
DWIDTH 11 0
BBX 8 9 1 8
BITMAP
18
18
DB
FF
3C
FF
DB
18
18
ENDCHAR
STARTCHAR plus
ENCODING 43
SWIDTH 600 0
DWIDTH 15 0
BBX 12 12 1 0
BITMAP
0600
0600
0600
0600
0600
FFF0
FFF0
0600
0600
0600
0600
0600
ENDCHAR
STARTCHAR comma
ENCODING 44
SWIDTH 280 0
DWIDTH 7 0
BBX 4 8 1 -3
BITMAP
60
F0
F0
F0
60
60
40
80
ENDCHAR
STARTCHAR hyphen
ENCODING 45
SWIDTH 392 0
DWIDTH 10 0
BBX 7 2 1 5
BITMAP
FE
FE
ENDCHAR
STARTCHAR period
ENCODING 46
SWIDTH 280 0
DWIDTH 7 0
BBX 4 5 1 0
BITMAP
60
F0
F0
F0
60
ENDCHAR
STARTCHAR slash
ENCODING 47
SWIDTH 378 0
DWIDTH 9 0
BBX 6 17 1 0
BITMAP
0C
0C
0C
18
18
18
18
30
30
30
60
60
60
60
C0
C0
C0
ENDCHAR
STARTCHAR zero
ENCODING 48
SWIDTH 560 0
DWIDTH 14 0
BBX 13 17 0 0
BITMAP
0F80
3DE0
38E0
78F0
78F0
F8F8
F8F8
F8F8
F8F8
F8F8
F8F8
F8F8
78F0
78F0
38E0
3DE0
0F80
ENDCHAR
STARTCHAR one
ENCODING 49
SWIDTH 560 0
DWIDTH 14 0
BBX 9 17 2 0
BITMAP
0E00
3E00
FE00
3E00
3E00
3E00
3E00
3E00
3E00
3E00
3E00
3E00
3E00
3E00
3E00
3E00
FF80
ENDCHAR
STARTCHAR two
ENCODING 50
SWIDTH 560 0
DWIDTH 14 0
BBX 13 17 0 0
BITMAP
1F80
7BE0
F1F0
F1F0
61F0
01F0
01F0
03E0
03E0
0780
0E00
1800
3008
7018
FFF0
FFF0
FFF0
ENDCHAR
STARTCHAR three
ENCODING 51
SWIDTH 560 0
DWIDTH 14 0
BBX 13 17 0 0
BITMAP
1FC0
79F0
F0F8
F0F8
60F8
00F8
00F0
31E0
3FE0
01F0
00F8
00F8
60F8
F0F8
F0F8
79F0
1FC0
ENDCHAR
STARTCHAR four
ENCODING 52
SWIDTH 560 0
DWIDTH 14 0
BBX 13 17 0 0
BITMAP
0E00
0F00
1F00
1E20
1C60
3CE0
39E0
33E0
73E0
63E0
E3E0
FFF8
FFF0
03E0
03E0
03E0
0FF8
ENDCHAR
STARTCHAR five
ENCODING 53
SWIDTH 560 0
DWIDTH 14 0
BBX 13 17 0 0
BITMAP
7FF0
7FF0
7FE0
6000
6000
6000
6FC0
71F0
60F8
00F8
00F8
00F8
60F8
F0F8
F0F0
79F0
1FC0
ENDCHAR
STARTCHAR six
ENCODING 54
SWIDTH 560 0
DWIDTH 14 0
BBX 13 17 0 0
BITMAP
0FC0
3CF0
3878
7878
7830
F800
F800
FBC0
FDF0
F8F0
F8F8
F8F8
78F8
78F8
38F0
3DF0
0FC0
ENDCHAR
STARTCHAR seven
ENCODING 55
SWIDTH 560 0
DWIDTH 14 0
BBX 13 17 0 0
BITMAP
7FF8
7FF8
FFF0
C070
8060
00C0
01C0
0180
0380
0780
0700
0F00
0F00
1F00
1F00
1F00
0E00
ENDCHAR
STARTCHAR eight
ENCODING 56
SWIDTH 560 0
DWIDTH 14 0
BBX 13 17 0 0
BITMAP
1FC0
7DF0
78F0
F8F8
F8F8
F8F8
78F0
7DF0
1FC0
7DF0
78F0
F8F8
F8F8
F8F8
78F0
7DF0
1FC0
ENDCHAR
STARTCHAR nine
ENCODING 57
SWIDTH 560 0
DWIDTH 14 0
BBX 13 17 0 0
BITMAP
1F80
7DE0
78E0
F8F0
F8F0
F8F8
F8F8
78F8
7DF8
1EF8
00F8
00F8
60F0
F0F0
F0E0
79E0
1F80
ENDCHAR
STARTCHAR colon
ENCODING 58
SWIDTH 280 0
DWIDTH 7 0
BBX 4 12 1 0
BITMAP
60
F0
F0
F0
60
00
00
60
F0
F0
F0
60
ENDCHAR
STARTCHAR semicolon
ENCODING 59
SWIDTH 280 0
DWIDTH 7 0
BBX 4 15 1 -3
BITMAP
60
F0
F0
F0
60
00
00
60
F0
F0
F0
60
60
40
80
ENDCHAR
STARTCHAR less
ENCODING 60
SWIDTH 600 0
DWIDTH 15 0
BBX 12 12 1 0
BITMAP
0030
00F0
03C0
0F00
3C00
F000
F000
3C00
0F00
03C0
00F0
0030
ENDCHAR
STARTCHAR equal
ENCODING 61
SWIDTH 600 0
DWIDTH 15 0
BBX 12 7 1 3
BITMAP
FFF0
FFF0
0000
0000
0000
FFF0
FFF0
ENDCHAR
STARTCHAR greater
ENCODING 62
SWIDTH 600 0
DWIDTH 15 0
BBX 12 12 1 0
BITMAP
C000
F000
3C00
0F00
03C0
00F0
00F0
03C0
0F00
3C00
F000
C000
ENDCHAR
STARTCHAR question
ENCODING 63
SWIDTH 456 0
DWIDTH 12 0
BBX 10 17 0 0
BITMAP
1E00
7780
F3C0
F3C0
63C0
0780
0F00
1C00
3800
3F00
1E00
0000
0C00
1E00
1E00
1E00
0C00
ENDCHAR
STARTCHAR at
ENCODING 64
SWIDTH 833 0
DWIDTH 21 0
BBX 20 17 0 0
BITMAP
01FE00
070380
1C00C0
383F60
70E760
71C730
E38E30
E38E30
E70E30
E71C60
E73C60
E75CC0
738F00
700000
380000
1E0300
03FC00
ENDCHAR
STARTCHAR A
ENCODING 65
SWIDTH 644 0
DWIDTH 16 0
BBX 18 17 -1 0
BITMAP
01E000
01E000
03F000
03F000
03F000
06F800
06F800
06F800
0C7C00
0C7C00
0FFC00
183E00
183E00
183E00
301F00
301F00
FC7FC0
ENDCHAR
STARTCHAR B
ENCODING 66
SWIDTH 683 0
DWIDTH 17 0
BBX 16 17 0 0
BITMAP
FFF0
3E7C
3E3E
3E3E
3E3E
3E3E
3E7C
3FF0
3E7C
3E3E
3E1F
3E1F
3E1F
3E1F
3E1F
3F3E
FFF8
ENDCHAR
STARTCHAR C
ENCODING 67
SWIDTH 689 0
DWIDTH 17 0
BBX 16 17 0 0
BITMAP
07FC
1E0F
3C07
7C03
7C01
F801
F800
F800
F800
F800
F800
F801
7C01
7C03
3E07
1F0F
07FC
ENDCHAR
STARTCHAR D
ENCODING 68
SWIDTH 777 0
DWIDTH 19 0
BBX 18 17 0 0
BITMAP
FFF800
3E1E00
3E0F00
3E0F80
3E0F80
3E07C0
3E07C0
3E07C0
3E07C0
3E07C0
3E07C0
3E07C0
3E0F80
3E0F80
3E0F00
3F1E00
FFF800
ENDCHAR
STARTCHAR E
ENCODING 69
SWIDTH 629 0
DWIDTH 16 0
BBX 15 17 0 0
BITMAP
FFFC
3E1C
3E0C
3E04
3E00
3E10
3E30
3FF0
3E30
3E10
3E00
3E00
3E02
3E02
3E06
3F0E
FFFE
ENDCHAR
STARTCHAR F
ENCODING 70
SWIDTH 593 0
DWIDTH 15 0
BBX 14 17 0 0
BITMAP
FFFC
3E1C
3E0C
3E04
3E00
3E00
3E10
3E30
3FF0
3E30
3E10
3E00
3E00
3E00
3E00
3E00
FF80
ENDCHAR
STARTCHAR G
ENCODING 71
SWIDTH 726 0
DWIDTH 18 0
BBX 17 17 0 0
BITMAP
07FC00
1E0F00
3C0700
7C0300
7C0100
F80100
F80000
F80000
F80000
F80000
F87F80
F81F00
7C1F00
7C1F00
3E1F00
1F1F00
07F800
ENDCHAR
STARTCHAR H
ENCODING 72
SWIDTH 807 0
DWIDTH 20 0
BBX 19 17 0 0
BITMAP
FFBFE0
3E0F80
3E0F80
3E0F80
3E0F80
3E0F80
3E0F80
3E0F80
3FFF80
3E0F80
3E0F80
3E0F80
3E0F80
3E0F80
3E0F80
3E0F80
FFBFE0
ENDCHAR
STARTCHAR I
ENCODING 73
SWIDTH 384 0
DWIDTH 10 0
BBX 9 17 0 0
BITMAP
FF80
3E00
3E00
3E00
3E00
3E00
3E00
3E00
3E00
3E00
3E00
3E00
3E00
3E00
3E00
3E00
FF80
ENDCHAR
STARTCHAR J
ENCODING 74
SWIDTH 386 0
DWIDTH 10 0
BBX 10 20 -1 -3
BITMAP
7FC0
1F00
1F00
1F00
1F00
1F00
1F00
1F00
1F00
1F00
1F00
1F00
1F00
1F00
1F00
1F00
1E00
1E00
3C00
F000
ENDCHAR
STARTCHAR K
ENCODING 75
SWIDTH 707 0
DWIDTH 18 0
BBX 19 17 0 0
BITMAP
FF8FC0
3E0700
3E0600
3E0C00
3E1800
3E3000
3E7000
3EF000
3FF800
3EFC00
3E7C00
3E3E00
3E3F00
3E1F00
3E0F80
3E0FC0
FF87E0
ENDCHAR
STARTCHAR L
ENCODING 76
SWIDTH 585 0
DWIDTH 15 0
BBX 15 17 0 0
BITMAP
FF80
3E00
3E00
3E00
3E00
3E00
3E00
3E00
3E00
3E00
3E00
3E00
3E02
3E02
3E06
3F0E
FFFE
ENDCHAR
STARTCHAR M
ENCODING 77
SWIDTH 918 0
DWIDTH 23 0
BBX 23 17 0 0
BITMAP
FF01FE
3F01F8
3F81F8
3F83F8
3782F8
37C2F8
37C6F8
33C4F8
33E4F8
33ECF8
31E8F8
31F8F8
31F8F8
30F0F8
30F0F8
30F0F8
FC63FE
ENDCHAR
STARTCHAR N
ENCODING 78
SWIDTH 739 0
DWIDTH 19 0
BBX 18 17 0 0
BITMAP
FE0FC0
3F0300
3F8300
3F8300
3FC300
37E300
37E300
33F300
31FB00
31FB00
30FF00
307F00
307F00
303F00
301F00
301F00
FC0F00
ENDCHAR
STARTCHAR O
ENCODING 79
SWIDTH 768 0
DWIDTH 19 0
BBX 18 17 0 0
BITMAP
07F800
1E1E00
3C0F00
7C0F80
7C0F80
F807C0
F807C0
F807C0
F807C0
F807C0
F807C0
F807C0
7C0F80
7C0F80
3C0F00
1E1E00
07F800
ENDCHAR
STARTCHAR P
ENCODING 80
SWIDTH 650 0
DWIDTH 16 0
BBX 15 17 0 0
BITMAP
FFF0
3E7C
3E3E
3E3E
3E3E
3E3E
3E3E
3E3C
3E78
3FE0
3E00
3E00
3E00
3E00
3E00
3E00
FF80
ENDCHAR
STARTCHAR Q
ENCODING 81
SWIDTH 768 0
DWIDTH 19 0
BBX 18 22 0 -5
BITMAP
07F800
1E1E00
3C0F00
7C0F80
7C0F80
F807C0
F807C0
F807C0
F807C0
F807C0
F807C0
F807C0
7C0F80
7C0F80
3C0F00
1E1E00
07F800
00F800
007C00
007E00
003F00
000FC0
ENDCHAR
STARTCHAR R
ENCODING 82
SWIDTH 684 0
DWIDTH 17 0
BBX 18 17 -1 0
BITMAP
FFF800
3E3E00
3E1F00
3E1F00
3E1F00
3E1F00
3E1E00
3E3C00
3FF000
3EF800
3E7C00
3E7E00
3E3E00
3E3F00
3E3F00
3F1F80
FF8FC0
ENDCHAR
STARTCHAR S
ENCODING 83
SWIDTH 561 0
DWIDTH 14 0
BBX 13 17 0 0
BITMAP
1FE0
7C70
7830
F810
F800
FC00
FF00
7F80
3FE0
0FF0
03F8
81F8
80F8
C0F8
E0F0
F9F0
3FC0
ENDCHAR
STARTCHAR T
ENCODING 84
SWIDTH 624 0
DWIDTH 16 0
BBX 15 17 0 0
BITMAP
FFFE
E7CE
C7C6
87C2
07C0
07C0
07C0
07C0
07C0
07C0
07C0
07C0
07C0
07C0
07C0
07C0
1FF0
ENDCHAR
STARTCHAR U
ENCODING 85
SWIDTH 786 0
DWIDTH 20 0
BBX 19 17 0 0
BITMAP
FFBFE0
3E0F80
3E0F80
3E0F80
3E0F80
3E0F80
3E0F80
3E0F80
3E0F80
3E0F80
3E0F80
3E0F80
3E0F80
3E0F80
1E0F00
0F1E00
03F800
ENDCHAR
STARTCHAR V
ENCODING 86
SWIDTH 645 0
DWIDTH 17 0
BBX 18 17 -1 0
BITMAP
FF8FC0
3E0300
3E0300
1F0600
1F0600
1F0600
0F8C00
0F8C00
0F8C00
07D800
07D800
07D800
03F000
03F000
03F000
01E000
01E000
ENDCHAR
STARTCHAR W
ENCODING 87
SWIDTH 933 0
DWIDTH 23 0
BBX 25 17 -1 0
BITMAP
FF8F1F80
3E0F0600
3E0F0400
3E0F0400
3E1F8C00
1F1F8800
1F1F8800
1F178800
1F379800
0FA7D000
0FA7D000
0FA7D000
0FE7F000
07C3E000
07C3E000
07C3E000
07C3E000
ENDCHAR
STARTCHAR X
ENCODING 88
SWIDTH 634 0
DWIDTH 16 0
BBX 17 17 0 0
BITMAP
FF9F80
3E0E00
3F0C00
1F0800
0F9000
0F9000
07E000
07E000
03E000
03F000
03F000
04F800
04F800
087C00
187E00
383E00
FCFF80
ENDCHAR
STARTCHAR Y
ENCODING 89
SWIDTH 617 0
DWIDTH 15 0
BBX 17 17 -1 0
BITMAP
FF9F80
3E0600
3E0600
1F0C00
1F0C00
0F9800
0F9800
07F000
07F000
03E000
03E000
03E000
03E000
03E000
03E000
03E000
0FF800
ENDCHAR
STARTCHAR Z
ENCODING 90
SWIDTH 614 0
DWIDTH 15 0
BBX 15 17 0 0
BITMAP
7FFE
707E
607C
40F8
41F8
01F0
03E0
07E0
07C0
0F80
1F80
1F00
3E02
7E02
7C06
FC0E
FFFE
ENDCHAR
STARTCHAR bracketleft
ENCODING 91
SWIDTH 335 0
DWIDTH 8 0
BBX 5 20 2 -3
BITMAP
F8
E0
E0
E0
E0
E0
E0
E0
E0
E0
E0
E0
E0
E0
E0
E0
E0
E0
E0
F8
ENDCHAR
STARTCHAR backslash
ENCODING 92
SWIDTH 379 0
DWIDTH 9 0
BBX 6 17 1 0
BITMAP
C0
C0
C0
60
60
60
60
30
30
30
18
18
18
18
0C
0C
0C
ENDCHAR
STARTCHAR bracketright
ENCODING 93
SWIDTH 335 0
DWIDTH 8 0
BBX 5 20 1 -3
BITMAP
F8
38
38
38
38
38
38
38
38
38
38
38
38
38
38
38
38
38
38
F8
ENDCHAR
STARTCHAR asciicircum
ENCODING 94
SWIDTH 600 0
DWIDTH 15 0
BBX 12 12 1 5
BITMAP
0600
0600
0F00
0F00
1980
1980
30C0
30C0
6060
6060
C030
C030
ENDCHAR
STARTCHAR underscore
ENCODING 95
SWIDTH 500 0
DWIDTH 12 0
BBX 12 1 0 -3
BITMAP
FFF0
ENDCHAR
STARTCHAR grave
ENCODING 96
SWIDTH 430 0
DWIDTH 11 0
BBX 6 5 2 14
BITMAP
40
E0
F0
38
0C
ENDCHAR
STARTCHAR a
ENCODING 97
SWIDTH 544 0
DWIDTH 14 0
BBX 14 13 0 0
BITMAP
3FC0
FBE0
F1F0
61F0
03F0
07F0
19F0
71F0
F1F0
F1F0
F9F0
FFFC
7CF0
ENDCHAR
STARTCHAR b
ENCODING 98
SWIDTH 605 0
DWIDTH 15 0
BBX 16 19 -2 0
BITMAP
0E00
FE00
3E00
3E00
3E00
3E00
3EF8
3FBE
3F3E
3E1F
3E1F
3E1F
3E1F
3E1F
3E1F
3E1F
3E3E
3F3E
3BF8
ENDCHAR
STARTCHAR c
ENCODING 99
SWIDTH 494 0
DWIDTH 13 0
BBX 12 13 0 0
BITMAP
1FC0
7CF0
7CF0
F860
F800
F800
F800
F800
F800
F800
7C10
7C70
1FC0
ENDCHAR
STARTCHAR d
ENCODING 100
SWIDTH 605 0
DWIDTH 15 0
BBX 15 19 0 0
BITMAP
001C
01FC
007C
007C
007C
007C
1FFC
7CFC
7C7C
F87C
F87C
F87C
F87C
F87C
F87C
F87C
7C7C
7CFC
1F3E
ENDCHAR
STARTCHAR e
ENCODING 101
SWIDTH 519 0
DWIDTH 13 0
BBX 12 13 0 0
BITMAP
1FC0
7DE0
7CF0
F8F0
FFF0
F800
F800
F800
F800
F800
7C10
7C70
1FC0
ENDCHAR
STARTCHAR f
ENCODING 102
SWIDTH 342 0
DWIDTH 9 0
BBX 11 19 -1 0
BITMAP
0FC0
1DE0
3CE0
3C00
3E00
3E00
FFC0
3E00
3E00
3E00
3E00
3E00
3E00
3E00
3E00
3E00
3E00
3E00
FF80
ENDCHAR
STARTCHAR g
ENCODING 103
SWIDTH 533 0
DWIDTH 14 0
BBX 14 19 0 -5
BITMAP
001C
1FFC
7DF0
F8F8
F8F8
F8F8
F8F8
7DF0
1FC0
0C00
1F00
3FE0
3FF8
1FFC
71FC
F03C
F03C
7878
1FE0
ENDCHAR
STARTCHAR h
ENCODING 104
SWIDTH 631 0
DWIDTH 16 0
BBX 16 19 -1 0
BITMAP
0E00
FE00
3E00
3E00
3E00
3E00
3E78
3EFC
3F3E
3E3E
3E3E
3E3E
3E3E
3E3E
3E3E
3E3E
3E3E
3E3E
7F3F
ENDCHAR
STARTCHAR i
ENCODING 105
SWIDTH 316 0
DWIDTH 8 0
BBX 7 18 0 0
BITMAP
38
7C
7C
38
00
1C
FC
7C
7C
7C
7C
7C
7C
7C
7C
7C
7C
FE
ENDCHAR
STARTCHAR j
ENCODING 106
SWIDTH 316 0
DWIDTH 8 0
BBX 8 23 -2 -5
BITMAP
06
0F
0F
06
00
0F
3F
1F
1F
1F
1F
1F
1F
1F
1F
1F
1F
1F
1F
1F
1E
3E
F8
ENDCHAR
STARTCHAR k
ENCODING 107
SWIDTH 582 0
DWIDTH 15 0
BBX 16 19 -1 0
BITMAP
1E00
FE00
3E00
3E00
3E00
3E00
3E1E
3E3C
3E38
3E70
3EE0
3FC0
3FE0
3EF0
3EF8
3E78
3E7C
3E3E
7F1F
ENDCHAR
STARTCHAR l
ENCODING 108
SWIDTH 309 0
DWIDTH 8 0
BBX 8 19 -1 0
BITMAP
0E
FE
3E
3E
3E
3E
3E
3E
3E
3E
3E
3E
3E
3E
3E
3E
3E
3E
7F
ENDCHAR
STARTCHAR m
ENCODING 109
SWIDTH 948 0
DWIDTH 24 0
BBX 23 13 0 0
BITMAP
3CF0F0
FDF9F8
7E7E7C
7C7C7C
7C7C7C
7C7C7C
7C7C7C
7C7C7C
7C7C7C
7C7C7C
7C7C7C
7C7C7C
FE7E7E
ENDCHAR
STARTCHAR n
ENCODING 110
SWIDTH 638 0
DWIDTH 16 0
BBX 15 13 0 0
BITMAP
1CF0
FDF8
7E7C
7C7C
7C7C
7C7C
7C7C
7C7C
7C7C
7C7C
7C7C
7C7C
FE7E
ENDCHAR
STARTCHAR o
ENCODING 111
SWIDTH 585 0
DWIDTH 15 0
BBX 14 13 0 0
BITMAP
1FE0
7CF8
7CF8
F87C
F87C
F87C
F87C
F87C
F87C
F87C
7CF8
7CF8
1FE0
ENDCHAR
STARTCHAR p
ENCODING 112
SWIDTH 615 0
DWIDTH 15 0
BBX 15 18 -1 -5
BITMAP
1DF0
FE7C
7C7C
7C3E
7C3E
7C3E
7C3E
7C3E
7C3E
7C3E
7C7C
7E7C
7FF0
7C00
7C00
7C00
7C00
FE00
ENDCHAR
STARTCHAR q
ENCODING 113
SWIDTH 597 0
DWIDTH 15 0
BBX 15 19 0 -5
BITMAP
000C
1F9C
7CFC
7C7C
F87C
F87C
F87C
F87C
F87C
F87C
F87C
7C7C
7CFC
1F7C
007C
007C
007C
007C
00FE
ENDCHAR
STARTCHAR r
ENCODING 114
SWIDTH 440 0
DWIDTH 11 0
BBX 12 13 0 0
BITMAP
1CE0
FDF0
7FF0
7CE0
7C00
7C00
7C00
7C00
7C00
7C00
7C00
7C00
FE00
ENDCHAR
STARTCHAR s
ENCODING 115
SWIDTH 446 0
DWIDTH 11 0
BBX 10 13 0 0
BITMAP
1F80
71C0
F0C0
F840
FE00
7F00
3F80
1FC0
0FC0
87C0
C3C0
E380
7E00
ENDCHAR
STARTCHAR t
ENCODING 116
SWIDTH 370 0
DWIDTH 9 0
BBX 9 16 0 0
BITMAP
0C00
1C00
3C00
FF80
7C00
7C00
7C00
7C00
7C00
7C00
7C00
7C00
7C00
7C80
3F80
1F00
ENDCHAR
STARTCHAR u
ENCODING 117
SWIDTH 629 0
DWIDTH 16 0
BBX 15 13 0 0
BITMAP
1C1C
FCFC
7C7C
7C7C
7C7C
7C7C
7C7C
7C7C
7C7C
7C7C
7CFC
3F7C
1E7E
ENDCHAR
STARTCHAR v
ENCODING 118
SWIDTH 520 0
DWIDTH 13 0
BBX 14 13 -1 0
BITMAP
FE3C
7C18
7C10
7C10
3E30
3E20
3E20
1F60
1F40
1F40
0FC0
0F80
0F80
ENDCHAR
STARTCHAR w
ENCODING 119
SWIDTH 774 0
DWIDTH 19 0
BBX 22 13 -1 0
BITMAP
FE3C3C
7C3C18
7C3C10
7C3E30
3E3E20
3E3E20
3E7F60
1F5F40
1F5F40
1FDFC0
0F8F80
0F8F80
0F8F80
ENDCHAR
STARTCHAR x
ENCODING 120
SWIDTH 522 0
DWIDTH 13 0
BBX 13 13 0 0
BITMAP
FE78
7C30
7C60
3E40
1FC0
1F80
0F80
0FC0
1FC0
13E0
31F0
61F0
F3F8
ENDCHAR
STARTCHAR y
ENCODING 121
SWIDTH 524 0
DWIDTH 13 0
BBX 14 18 -1 -5
BITMAP
FE3C
7C18
7C10
3E30
3E20
3E20
1F60
1F40
1F40
0FC0
0F80
0F80
0780
0700
6700
F600
F400
7800
ENDCHAR
STARTCHAR z
ENCODING 122
SWIDTH 483 0
DWIDTH 12 0
BBX 11 13 0 0
BITMAP
FFE0
C3E0
87C0
07C0
0F80
1F00
1F00
3E00
7C00
7C00
F820
F860
FFE0
ENDCHAR
STARTCHAR braceleft
ENCODING 123
SWIDTH 365 0
DWIDTH 9 0
BBX 7 20 1 -3
BITMAP
0E
18
38
38
38
38
38
38
30
E0
30
38
38
38
38
38
38
38
18
0E
ENDCHAR
STARTCHAR bar
ENCODING 124
SWIDTH 284 0
DWIDTH 7 0
BBX 2 17 2 0
BITMAP
C0
C0
C0
C0
C0
C0
C0
C0
C0
C0
C0
C0
C0
C0
C0
C0
C0
ENDCHAR
STARTCHAR braceright
ENCODING 125
SWIDTH 365 0
DWIDTH 9 0
BBX 7 20 1 -3
BITMAP
E0
30
38
38
38
38
38
38
18
0E
18
38
38
38
38
38
38
38
30
E0
ENDCHAR
STARTCHAR asciitilde
ENCODING 126
SWIDTH 600 0
DWIDTH 15 0
BBX 14 4 0 5
BITMAP
1E0C
3F98
67F0
C1E0
ENDCHAR
STARTCHAR space
ENCODING 160
SWIDTH 210 0
DWIDTH 5 0
BBX 0 0 0 0
BITMAP
ENDCHAR
STARTCHAR exclamdown
ENCODING 161
SWIDTH 278 0
DWIDTH 7 0
BBX 6 17 0 -5
BITMAP
30
78
78
78
30
00
30
30
30
78
78
78
78
FC
FC
FC
78
ENDCHAR
STARTCHAR cent
ENCODING 162
SWIDTH 560 0
DWIDTH 14 0
BBX 13 17 0 0
BITMAP
0100
0100
0FE0
3DF8
7D78
7930
F900
F900
F900
F900
F900
7908
7D18
3D70
0FC0
0100
0100
ENDCHAR
STARTCHAR sterling
ENCODING 163
SWIDTH 560 0
DWIDTH 14 0
BBX 13 17 0 0
BITMAP
1F80
79E0
F0F0
F0F0
F060
F000
F800
7C00
3E00
FFC0
1E00
1E00
1C00
1818
3FF0
FFE0
FFE0
ENDCHAR
STARTCHAR currency
ENCODING 164
SWIDTH 560 0
DWIDTH 14 0
BBX 12 12 1 3
BITMAP
CF30
FFF0
70E0
6060
C030
C030
C030
C030
6060
70E0
FFF0
CF30
ENDCHAR
STARTCHAR yen
ENCODING 165
SWIDTH 560 0
DWIDTH 14 0
BBX 16 17 -2 0
BITMAP
FF9F
3E04
3E04
1F08
1F08
0F90
0F90
07E0
1FFC
03E0
03E0
1FFC
03E0
03E0
03E0
03E0
0FF8
ENDCHAR
STARTCHAR brokenbar
ENCODING 166
SWIDTH 284 0
DWIDTH 7 0
BBX 2 17 2 0
BITMAP
C0
C0
C0
C0
C0
C0
C0
00
00
00
C0
C0
C0
C0
C0
C0
C0
ENDCHAR
STARTCHAR section
ENCODING 167
SWIDTH 566 0
DWIDTH 14 0
BBX 12 20 0 -3
BITMAP
0FC0
19E0
30E0
3840
3C00
3F00
6780
C3E0
C0F0
E070
F030
7C10
1E10
0FB0
03E0
01E0
10E0
3860
3CC0
1F80
ENDCHAR
STARTCHAR dieresis
ENCODING 168
SWIDTH 430 0
DWIDTH 11 0
BBX 9 4 1 14
BITMAP
6300
F780
F780
6300
ENDCHAR
STARTCHAR copyright
ENCODING 169
SWIDTH 800 0
DWIDTH 20 0
BBX 18 17 1 0
BITMAP
03F000
0FFC00
1C0E00
300300
61F180
673980
C618C0
CE00C0
CE00C0
CE00C0
C608C0
671980
61F180
300300
1C0E00
0FFC00
03F000
ENDCHAR
STARTCHAR ordfeminine
ENCODING 170
SWIDTH 405 0
DWIDTH 10 0
BBX 8 8 1 8
BITMAP
3C
EE
CE
1E
6E
EE
EE
77
ENDCHAR
STARTCHAR guillemotleft
ENCODING 171
SWIDTH 487 0
DWIDTH 12 0
BBX 10 11 0 0
BITMAP
0840
18C0
1080
3180
6300
E700
6300
3180
1080
18C0
0840
ENDCHAR
STARTCHAR logicalnot
ENCODING 172
SWIDTH 600 0
DWIDTH 15 0
BBX 12 7 1 3
BITMAP
FFF0
FFF0
0030
0030
0030
0030
0030
ENDCHAR
STARTCHAR hyphen
ENCODING 173
SWIDTH 392 0
DWIDTH 10 0
BBX 7 2 1 5
BITMAP
FE
FE
ENDCHAR
STARTCHAR registered
ENCODING 174
SWIDTH 800 0
DWIDTH 20 0
BBX 18 17 1 0
BITMAP
03F000
0FFC00
1C0E00
300300
67F180
631980
C318C0
C330C0
C3E0C0
C330C0
C330C0
631980
679D80
300300
1C0E00
0FFC00
03F000
ENDCHAR
STARTCHAR macron
ENCODING 175
SWIDTH 430 0
DWIDTH 10 0
BBX 8 2 1 14
BITMAP
FF
FF
ENDCHAR
STARTCHAR degree
ENCODING 176
SWIDTH 396 0
DWIDTH 10 0
BBX 9 9 0 8
BITMAP
1C00
7F00
6300
C180
C180
C180
6300
7F00
1C00
ENDCHAR
STARTCHAR plusminus
ENCODING 177
SWIDTH 600 0
DWIDTH 15 0
BBX 12 13 1 0
BITMAP
0600
0600
0600
0600
FFF0
FFF0
0600
0600
0600
0600
0000
FFF0
FFF0
ENDCHAR
STARTCHAR twosuperior
ENCODING 178
SWIDTH 402 0
DWIDTH 10 0
BBX 7 10 1 7
BITMAP
78
EC
CE
0E
0C
18
60
C2
FE
FE
ENDCHAR
STARTCHAR threesuperior
ENCODING 179
SWIDTH 402 0
DWIDTH 10 0
BBX 8 10 1 7
BITMAP
7C
E6
C6
0E
7C
06
07
C7
EE
7C
ENDCHAR
STARTCHAR acute
ENCODING 180
SWIDTH 430 0
DWIDTH 11 0
BBX 6 5 2 14
BITMAP
08
1C
3C
70
C0
ENDCHAR
STARTCHAR mu
ENCODING 181
SWIDTH 629 0
DWIDTH 16 0
BBX 15 18 0 -5
BITMAP
1C1C
FCFC
7C7C
7C7C
7C7C
7C7C
7C7C
7C7C
7C7C
7C7C
7CFC
7F7C
7E7E
6000
7000
7800
7800
3800
ENDCHAR
STARTCHAR paragraph
ENCODING 182
SWIDTH 552 0
DWIDTH 13 0
BBX 12 20 0 -3
BITMAP
0CF0
3CE0
7CC0
FCC0
FCC0
FCC0
FCC0
FCC0
7CC0
3CC0
0CC0
00C0
00C0
00C0
00C0
00C0
00C0
00C0
01C0
07C0
ENDCHAR
STARTCHAR periodcentered
ENCODING 183
SWIDTH 280 0
DWIDTH 7 0
BBX 4 5 1 4
BITMAP
60
F0
F0
F0
60
ENDCHAR
STARTCHAR cedilla
ENCODING 184
SWIDTH 430 0
DWIDTH 11 0
BBX 5 5 2 -5
BITMAP
20
70
38
38
F0
ENDCHAR
STARTCHAR onesuperior
ENCODING 185
SWIDTH 402 0
DWIDTH 10 0
BBX 7 10 1 7
BITMAP
38
F8
38
38
38
38
38
38
38
FE
ENDCHAR
STARTCHAR ordmasculine
ENCODING 186
SWIDTH 427 0
DWIDTH 11 0
BBX 9 8 1 8
BITMAP
3E00
7700
E380
E380
E380
E380
7700
3E00
ENDCHAR
STARTCHAR guillemotright
ENCODING 187
SWIDTH 487 0
DWIDTH 12 0
BBX 10 11 1 0
BITMAP
8400
C600
4200
6300
3180
39C0
3180
6300
4200
C600
8400
ENDCHAR
STARTCHAR onequarter
ENCODING 188
SWIDTH 900 0
DWIDTH 22 0
BBX 21 17 0 0
BITMAP
380100
F80300
380200
380400
380C00
380800
381180
383380
382380
FE4720
00C660
008EE0
010CE0
0318E0
021FF8
0400E0
0C03F8
ENDCHAR
STARTCHAR onehalf
ENCODING 189
SWIDTH 900 0
DWIDTH 22 0
BBX 20 17 0 0
BITMAP
380100
F80300
380200
380400
380C00
380800
381000
3833C0
382760
FE4670
00C070
008060
0100C0
030300
020610
040FF0
0C0FF0
ENDCHAR
STARTCHAR threequarters
ENCODING 190
SWIDTH 900 0
DWIDTH 22 0
BBX 21 17 0 0
BITMAP
7C0100
E60300
C60200
0E0400
7C0C00
060800
071180
C73380
EE2380
7C4720
00C660
008EE0
010CE0
0318E0
021FF8
0400E0
0C03F8
ENDCHAR
STARTCHAR questiondown
ENCODING 191
SWIDTH 456 0
DWIDTH 11 0
BBX 10 17 0 -5
BITMAP
0C00
1E00
1E00
1E00
0C00
0000
1E00
3F00
0700
0E00
3C00
7800
F180
F3C0
F3C0
7B80
1E00
ENDCHAR
STARTCHAR Agrave
ENCODING 192
SWIDTH 644 0
DWIDTH 16 0
BBX 18 21 -1 0
BITMAP
020000
070000
078000
01C000
006000
000000
01E000
01E000
03F000
03F000
03F000
06F800
06F800
0C7C00
0C7C00
0FFC00
183E00
183E00
301F00
301F00
FC7FC0
ENDCHAR
STARTCHAR Aacute
ENCODING 193
SWIDTH 644 0
DWIDTH 16 0
BBX 18 21 -1 0
BITMAP
001000
003800
007800
00E000
018000
000000
01E000
01E000
03F000
03F000
03F000
06F800
06F800
0C7C00
0C7C00
0FFC00
183E00
183E00
301F00
301F00
FC7FC0
ENDCHAR
STARTCHAR Acircumflex
ENCODING 194
SWIDTH 644 0
DWIDTH 16 0
BBX 18 21 -1 0
BITMAP
008000
01C000
03E000
063000
080800
000000
01E000
01E000
03F000
03F000
03F000
06F800
06F800
0C7C00
0C7C00
0FFC00
183E00
183E00
301F00
301F00
FC7FC0
ENDCHAR
STARTCHAR Atilde
ENCODING 195
SWIDTH 644 0
DWIDTH 16 0
BBX 18 19 -1 0
BITMAP
031800
07F000
0C6000
000000
01E000
01E000
03F000
03F000
03F000
06F800
06F800
0C7C00
0C7C00
0FFC00
183E00
183E00
301F00
301F00
FC7FC0
ENDCHAR
STARTCHAR Adieresis
ENCODING 196
SWIDTH 644 0
DWIDTH 16 0
BBX 18 20 -1 0
BITMAP
063000
0F7800
0F7800
063000
000000
01E000
01E000
03F000
03F000
03F000
06F800
06F800
0C7C00
0C7C00
0FFC00
183E00
183E00
301F00
301F00
FC7FC0
ENDCHAR
STARTCHAR Aring
ENCODING 197
SWIDTH 644 0
DWIDTH 16 0
BBX 18 21 -1 0
BITMAP
01E000
033000
033000
033000
01E000
000000
01E000
01E000
03F000
03F000
03F000
06F800
06F800
0C7C00
0C7C00
0FFC00
183E00
183E00
301F00
301F00
FC7FC0
ENDCHAR
STARTCHAR AE
ENCODING 198
SWIDTH 879 0
DWIDTH 23 0
BBX 23 17 -1 0
BITMAP
03FFFC
00FE1C
00FE0C
01BE04
01BE00
01BE10
033E30
033FF0
063E30
07FE10
063E10
0C3E00
0C3E02
183E02
183E06
383F0E
FEFFFE
ENDCHAR
STARTCHAR Ccedilla
ENCODING 199
SWIDTH 689 0
DWIDTH 17 0
BBX 16 22 0 -5
BITMAP
07FC
1E0F
3C07
7C03
7C01
F801
F800
F800
F800
F800
F800
F801
7C01
7C03
3E07
1F0F
07FC
0080
01C0
00E0
00E0
03C0
ENDCHAR
STARTCHAR Egrave
ENCODING 200
SWIDTH 629 0
DWIDTH 16 0
BBX 15 21 0 0
BITMAP
0400
0E00
0F00
0380
00C0
0000
FFFC
3E1C
3E0C
3E04
3E00
3E10
3E30
3FF0
3E30
3E10
3E00
3E02
3E06
3E0E
FFFE
ENDCHAR
STARTCHAR Eacute
ENCODING 201
SWIDTH 629 0
DWIDTH 16 0
BBX 15 21 0 0
BITMAP
0040
00E0
01E0
0380
0600
0000
FFFC
3E1C
3E0C
3E04
3E00
3E10
3E30
3FF0
3E30
3E10
3E00
3E02
3E06
3E0E
FFFE
ENDCHAR
STARTCHAR Ecircumflex
ENCODING 202
SWIDTH 629 0
DWIDTH 16 0
BBX 15 21 0 0
BITMAP
0100
0380
07C0
0C60
1010
0000
FFFC
3E1C
3E0C
3E04
3E00
3E10
3E30
3FF0
3E30
3E10
3E00
3E02
3E06
3E0E
FFFE
ENDCHAR
STARTCHAR Edieresis
ENCODING 203
SWIDTH 629 0
DWIDTH 16 0
BBX 15 20 0 0
BITMAP
0C60
1EF0
1EF0
0C60
0000
FFFC
3E1C
3E0C
3E04
3E00
3E10
3E30
3FF0
3E30
3E10
3E00
3E02
3E06
3E0E
FFFE
ENDCHAR
STARTCHAR Igrave
ENCODING 204
SWIDTH 384 0
DWIDTH 10 0
BBX 9 21 0 0
BITMAP
2000
7000
7800
1C00
0600
0000
FF80
3E00
3E00
3E00
3E00
3E00
3E00
3E00
3E00
3E00
3E00
3E00
3E00
3E00
FF80
ENDCHAR
STARTCHAR Iacute
ENCODING 205
SWIDTH 384 0
DWIDTH 10 0
BBX 9 21 0 0
BITMAP
0200
0700
0F00
1C00
3000
0000
FF80
3E00
3E00
3E00
3E00
3E00
3E00
3E00
3E00
3E00
3E00
3E00
3E00
3E00
FF80
ENDCHAR
STARTCHAR Icircumflex
ENCODING 206
SWIDTH 384 0
DWIDTH 10 0
BBX 9 21 0 0
BITMAP
0800
1C00
3E00
6300
8080
0000
FF80
3E00
3E00
3E00
3E00
3E00
3E00
3E00
3E00
3E00
3E00
3E00
3E00
3E00
FF80
ENDCHAR
STARTCHAR Idieresis
ENCODING 207
SWIDTH 384 0
DWIDTH 10 0
BBX 9 20 0 0
BITMAP
6300
F780
F780
6300
0000
FF80
3E00
3E00
3E00
3E00
3E00
3E00
3E00
3E00
3E00
3E00
3E00
3E00
3E00
FF80
ENDCHAR
STARTCHAR Eth
ENCODING 208
SWIDTH 783 0
DWIDTH 19 0
BBX 18 17 0 0
BITMAP
FFF800
3E1E00
3E0F00
3E0F80
3E0F80
3E07C0
3E07C0
FFC7C0
3E07C0
3E07C0
3E07C0
3E07C0
3E0F80
3E0F80
3E0F00
3F1E00
FFF800
ENDCHAR
STARTCHAR Ntilde
ENCODING 209
SWIDTH 739 0
DWIDTH 19 0
BBX 18 19 0 0
BITMAP
018C00
03F800
063000
000000
FF0FC0
3F0300
3F8300
3FC300
3FC300
37E300
33F300
33F300
31FB00
30FF00
30FF00
307F00
303F00
303F00
FC1F00
ENDCHAR
STARTCHAR Ograve
ENCODING 210
SWIDTH 768 0
DWIDTH 19 0
BBX 18 21 0 0
BITMAP
020000
070000
078000
01C000
006000
000000
07F800
1E1E00
3C0F00
7C0F80
7C0F80
F807C0
F807C0
F807C0
F807C0
F807C0
7C0F80
7C0F80
3C0F00
1E1E00
07F800
ENDCHAR
STARTCHAR Oacute
ENCODING 211
SWIDTH 768 0
DWIDTH 19 0
BBX 18 21 0 0
BITMAP
002000
007000
00F000
01C000
030000
000000
07F800
1E1E00
3C0F00
7C0F80
7C0F80
F807C0
F807C0
F807C0
F807C0
F807C0
7C0F80
7C0F80
3C0F00
1E1E00
07F800
ENDCHAR
STARTCHAR Ocircumflex
ENCODING 212
SWIDTH 768 0
DWIDTH 19 0
BBX 18 21 0 0
BITMAP
008000
01C000
03E000
063000
080800
000000
07F800
1E1E00
3C0F00
7C0F80
7C0F80
F807C0
F807C0
F807C0
F807C0
F807C0
7C0F80
7C0F80
3C0F00
1E1E00
07F800
ENDCHAR
STARTCHAR Otilde
ENCODING 213
SWIDTH 768 0
DWIDTH 19 0
BBX 18 19 0 0
BITMAP
031800
07F000
0C6000
000000
07F800
1E1E00
3C0F00
7C0F80
7C0F80
F807C0
F807C0
F807C0
F807C0
F807C0
7C0F80
7C0F80
3C0F00
1E1E00
07F800
ENDCHAR
STARTCHAR Odieresis
ENCODING 214
SWIDTH 768 0
DWIDTH 19 0
BBX 18 20 0 0
BITMAP
063000
0F7800
0F7800
063000
000000
07F800
1E1E00
3C0F00
7C0F80
7C0F80
F807C0
F807C0
F807C0
F807C0
F807C0
7C0F80
7C0F80
3C0F00
1E1E00
07F800
ENDCHAR
STARTCHAR multiply
ENCODING 215
SWIDTH 600 0
DWIDTH 15 0
BBX 11 11 2 1
BITMAP
4040
E0E0
71C0
3B80
1F00
0E00
1F00
3B80
71C0
E0E0
4040
ENDCHAR
STARTCHAR Oslash
ENCODING 216
SWIDTH 768 0
DWIDTH 19 0
BBX 18 19 0 -1
BITMAP
000100
07FB00
1E1E00
3C0F00
7C0F80
7C1F80
F837C0
F867C0
F847C0
F887C0
F987C0
FB07C0
FA07C0
7C0F80
7C0F80
3C0F00
3E1E00
67F800
400000
ENDCHAR
STARTCHAR Ugrave
ENCODING 217
SWIDTH 786 0
DWIDTH 20 0
BBX 19 21 0 0
BITMAP
010000
038000
03C000
00E000
003000
000000
FFBFE0
3E0F80
3E0F80
3E0F80
3E0F80
3E0F80
3E0F80
3E0F80
3E0F80
3E0F80
3E0F80
3E0F80
1E0F00
0F1E00
03F800
ENDCHAR
STARTCHAR Uacute
ENCODING 218
SWIDTH 786 0
DWIDTH 20 0
BBX 19 21 0 0
BITMAP
001000
003800
007800
00E000
018000
000000
FFBFE0
3E0F80
3E0F80
3E0F80
3E0F80
3E0F80
3E0F80
3E0F80
3E0F80
3E0F80
3E0F80
3E0F80
1E0F00
0F1E00
03F800
ENDCHAR
STARTCHAR Ucircumflex
ENCODING 219
SWIDTH 786 0
DWIDTH 20 0
BBX 19 21 0 0
BITMAP
004000
00E000
01F000
031800
040400
000000
FFBFE0
3E0F80
3E0F80
3E0F80
3E0F80
3E0F80
3E0F80
3E0F80
3E0F80
3E0F80
3E0F80
3E0F80
1E0F00
0F1E00
03F800
ENDCHAR
STARTCHAR Udieresis
ENCODING 220
SWIDTH 786 0
DWIDTH 20 0
BBX 19 20 0 0
BITMAP
063000
0F7800
0F7800
063000
000000
FFBFE0
3E0F80
3E0F80
3E0F80
3E0F80
3E0F80
3E0F80
3E0F80
3E0F80
3E0F80
3E0F80
3E0F80
1E0F00
0F1E00
03F800
ENDCHAR
STARTCHAR Yacute
ENCODING 221
SWIDTH 617 0
DWIDTH 15 0
BBX 17 21 -1 0
BITMAP
000800
001C00
003C00
007000
00C000
000000
FF9F80
3E0600
3E0600
1F0C00
1F0C00
0F9800
0F9800
07F000
07F000
03E000
03E000
03E000
03E000
03E000
0FF800
ENDCHAR
STARTCHAR Thorn
ENCODING 222
SWIDTH 640 0
DWIDTH 16 0
BBX 15 17 0 0
BITMAP
FF80
3E00
3E00
3FF0
3E7C
3E3E
3E3E
3E3E
3E3E
3E3E
3E3C
3E78
3FE0
3E00
3E00
3E00
FF80
ENDCHAR
STARTCHAR germandbls
ENCODING 223
SWIDTH 662 0
DWIDTH 17 0
BBX 17 19 0 0
BITMAP
07F000
1E3C00
3C1E00
7C1E00
7C1E00
7C1C00
7C3800
7C7000
7CF000
7CF800
7CFE00
7CFF00
7C7F80
7C1F80
7C0F80
7C8780
7DC780
7DE700
FCFC00
ENDCHAR
STARTCHAR agrave
ENCODING 224
SWIDTH 544 0
DWIDTH 14 0
BBX 14 19 0 0
BITMAP
0800
1C00
1E00
0700
0180
0000
3FC0
FBE0
F1F0
61F0
03F0
07F0
19F0
71F0
F1F0
F1F0
F9F0
FFFC
7CF0
ENDCHAR
STARTCHAR aacute
ENCODING 225
SWIDTH 544 0
DWIDTH 14 0
BBX 14 19 0 0
BITMAP
0080
01C0
03C0
0700
0C00
0000
3FC0
FBE0
F1F0
61F0
03F0
07F0
19F0
71F0
F1F0
F1F0
F9F0
FFFC
7CF0
ENDCHAR
STARTCHAR acircumflex
ENCODING 226
SWIDTH 544 0
DWIDTH 14 0
BBX 14 19 0 0
BITMAP
0400
0E00
1F00
3180
4040
0000
3FC0
FBE0
F1F0
61F0
03F0
07F0
19F0
71F0
F1F0
F1F0
F9F0
FFFC
7CF0
ENDCHAR
STARTCHAR atilde
ENCODING 227
SWIDTH 544 0
DWIDTH 14 0
BBX 14 17 0 0
BITMAP
0C60
1FC0
3180
0000
3FC0
FBE0
F1F0
61F0
03F0
07F0
19F0
71F0
F1F0
F1F0
F9F0
FFFC
7CF0
ENDCHAR
STARTCHAR adieresis
ENCODING 228
SWIDTH 544 0
DWIDTH 14 0
BBX 14 18 0 0
BITMAP
18C0
3DE0
3DE0
18C0
0000
3FC0
FBE0
F1F0
61F0
03F0
07F0
19F0
71F0
F1F0
F1F0
F9F0
FFFC
7CF0
ENDCHAR
STARTCHAR aring
ENCODING 229
SWIDTH 544 0
DWIDTH 14 0
BBX 14 19 0 0
BITMAP
0F00
1980
1980
1980
0F00
0000
3FC0
FBE0
F1F0
61F0
03F0
07F0
19F0
71F0
F1F0
F1F0
F9F0
FFFC
7CF0
ENDCHAR
STARTCHAR ae
ENCODING 230
SWIDTH 806 0
DWIDTH 20 0
BBX 19 13 0 0
BITMAP
3FBF80
FBFBC0
F1F9E0
61F1E0
03FFE0
07F000
19F000
71F000
F1F000
F1F000
F9F820
FFF8E0
7C3F80
ENDCHAR
STARTCHAR ccedilla
ENCODING 231
SWIDTH 494 0
DWIDTH 13 0
BBX 12 18 0 -5
BITMAP
1FC0
7CF0
7CF0
F860
F800
F800
F800
F800
F800
F800
7C10
7C70
1FC0
0200
0700
0380
0380
0F00
ENDCHAR
STARTCHAR egrave
ENCODING 232
SWIDTH 519 0
DWIDTH 13 0
BBX 12 19 0 0
BITMAP
0800
1C00
1E00
0700
0180
0000
1FC0
7DE0
7CF0
F8F0
FFF0
F800
F800
F800
F800
F800
7C10
7C70
1FC0
ENDCHAR
STARTCHAR eacute
ENCODING 233
SWIDTH 519 0
DWIDTH 13 0
BBX 12 19 0 0
BITMAP
0080
01C0
03C0
0700
0C00
0000
1FC0
7DE0
7CF0
F8F0
FFF0
F800
F800
F800
F800
F800
7C10
7C70
1FC0
ENDCHAR
STARTCHAR ecircumflex
ENCODING 234
SWIDTH 519 0
DWIDTH 13 0
BBX 12 19 0 0
BITMAP
0200
0700
0F80
18C0
2020
0000
1FC0
7DE0
7CF0
F8F0
FFF0
F800
F800
F800
F800
F800
7C10
7C70
1FC0
ENDCHAR
STARTCHAR edieresis
ENCODING 235
SWIDTH 519 0
DWIDTH 13 0
BBX 12 18 0 0
BITMAP
18C0
3DE0
3DE0
18C0
0000
1FC0
7DE0
7CF0
F8F0
FFF0
F800
F800
F800
F800
F800
7C10
7C70
1FC0
ENDCHAR
STARTCHAR igrave
ENCODING 236
SWIDTH 316 0
DWIDTH 8 0
BBX 7 19 0 0
BITMAP
40
E0
F0
38
0C
00
1C
FC
7C
7C
7C
7C
7C
7C
7C
7C
7C
7C
FE
ENDCHAR
STARTCHAR iacute
ENCODING 237
SWIDTH 316 0
DWIDTH 8 0
BBX 7 19 0 0
BITMAP
04
0E
1E
38
60
00
1C
FC
7C
7C
7C
7C
7C
7C
7C
7C
7C
7C
FE
ENDCHAR
STARTCHAR icircumflex
ENCODING 238
SWIDTH 316 0
DWIDTH 8 0
BBX 9 19 -1 0
BITMAP
0800
1C00
3E00
6300
8080
0000
0E00
7E00
3E00
3E00
3E00
3E00
3E00
3E00
3E00
3E00
3E00
3E00
7F00
ENDCHAR
STARTCHAR idieresis
ENCODING 239
SWIDTH 316 0
DWIDTH 8 0
BBX 9 18 -1 0
BITMAP
6300
F780
F780
6300
0000
0E00
7E00
3E00
3E00
3E00
3E00
3E00
3E00
3E00
3E00
3E00
3E00
7F00
ENDCHAR
STARTCHAR eth
ENCODING 240
SWIDTH 585 0
DWIDTH 15 0
BBX 14 20 0 0
BITMAP
0400
1E60
0FC0
0780
0FC0
19E0
00F0
1FF0
7CF8
7CF8
F87C
F87C
F87C
F87C
F87C
F87C
F87C
7CF8
7CF8
1FE0
ENDCHAR
STARTCHAR ntilde
ENCODING 241
SWIDTH 638 0
DWIDTH 16 0
BBX 15 17 0 0
BITMAP
0630
0FE0
18C0
0000
1CF0
FDF8
7E7C
7C7C
7C7C
7C7C
7C7C
7C7C
7C7C
7C7C
7C7C
7C7C
FE7E
ENDCHAR
STARTCHAR ograve
ENCODING 242
SWIDTH 585 0
DWIDTH 15 0
BBX 14 19 0 0
BITMAP
0400
0E00
0F00
0380
00C0
0000
1FE0
7CF8
7CF8
F87C
F87C
F87C
F87C
F87C
F87C
F87C
7CF8
7CF8
1FE0
ENDCHAR
STARTCHAR oacute
ENCODING 243
SWIDTH 585 0
DWIDTH 15 0
BBX 14 19 0 0
BITMAP
0040
00E0
01E0
0380
0600
0000
1FE0
7CF8
7CF8
F87C
F87C
F87C
F87C
F87C
F87C
F87C
7CF8
7CF8
1FE0
ENDCHAR
STARTCHAR ocircumflex
ENCODING 244
SWIDTH 585 0
DWIDTH 15 0
BBX 14 19 0 0
BITMAP
0200
0700
0F80
18C0
2020
0000
1FE0
7CF8
7CF8
F87C
F87C
F87C
F87C
F87C
F87C
F87C
7CF8
7CF8
1FE0
ENDCHAR
STARTCHAR otilde
ENCODING 245
SWIDTH 585 0
DWIDTH 15 0
BBX 14 17 0 0
BITMAP
0C60
1FC0
3180
0000
1FE0
7CF8
7CF8
F87C
F87C
F87C
F87C
F87C
F87C
F87C
7CF8
7CF8
1FE0
ENDCHAR
STARTCHAR odieresis
ENCODING 246
SWIDTH 585 0
DWIDTH 15 0
BBX 14 18 0 0
BITMAP
18C0
3DE0
3DE0
18C0
0000
1FE0
7CF8
7CF8
F87C
F87C
F87C
F87C
F87C
F87C
F87C
7CF8
7CF8
1FE0
ENDCHAR
STARTCHAR divide
ENCODING 247
SWIDTH 600 0
DWIDTH 15 0
BBX 12 12 1 0
BITMAP
0600
0F00
0600
0000
0000
FFF0
FFF0
0000
0000
0600
0F00
0600
ENDCHAR
STARTCHAR oslash
ENCODING 248
SWIDTH 585 0
DWIDTH 15 0
BBX 14 13 0 0
BITMAP
1FE4
7CF8
7CF8
F87C
F8FC
F97C
F97C
FA7C
FC7C
F87C
7CF8
7CF8
9FE0
ENDCHAR
STARTCHAR ugrave
ENCODING 249
SWIDTH 629 0
DWIDTH 16 0
BBX 15 19 0 0
BITMAP
0400
0E00
0F00
0380
00C0
0000
1C1C
FCFC
7C7C
7C7C
7C7C
7C7C
7C7C
7C7C
7C7C
7C7C
7CFC
3F7C
1E7E
ENDCHAR
STARTCHAR uacute
ENCODING 250
SWIDTH 629 0
DWIDTH 16 0
BBX 15 19 0 0
BITMAP
0040
00E0
01E0
0380
0600
0000
1C1C
FCFC
7C7C
7C7C
7C7C
7C7C
7C7C
7C7C
7C7C
7C7C
7CFC
3F7C
1E7E
ENDCHAR
STARTCHAR ucircumflex
ENCODING 251
SWIDTH 629 0
DWIDTH 16 0
BBX 15 19 0 0
BITMAP
0100
0380
07C0
0C60
1010
0000
1C1C
FCFC
7C7C
7C7C
7C7C
7C7C
7C7C
7C7C
7C7C
7C7C
7CFC
3F7C
1E7E
ENDCHAR
STARTCHAR udieresis
ENCODING 252
SWIDTH 629 0
DWIDTH 16 0
BBX 15 18 0 0
BITMAP
0C60
1EF0
1EF0
0C60
0000
1C1C
FCFC
7C7C
7C7C
7C7C
7C7C
7C7C
7C7C
7C7C
7C7C
7CFC
3F7C
1E7E
ENDCHAR
STARTCHAR yacute
ENCODING 253
SWIDTH 524 0
DWIDTH 13 0
BBX 14 24 -1 -5
BITMAP
0020
0070
00F0
01C0
0300
0000
FE3C
7C18
7C10
3E30
3E20
3E20
1F60
1F40
1F40
0FC0
0F80
0F80
0780
0700
6700
F600
F400
7800
ENDCHAR
STARTCHAR thorn
ENCODING 254
SWIDTH 609 0
DWIDTH 15 0
BBX 16 22 -2 -5
BITMAP
1E00
FE00
3E00
3E00
3EF8
3F3E
3E3E
3E1F
3E1F
3E1F
3E1F
3E1F
3E1F
3E1F
3E3E
3F3E
3FF8
3E00
3E00
3E00
3E00
7F00
ENDCHAR
STARTCHAR ydieresis
ENCODING 255
SWIDTH 524 0
DWIDTH 13 0
BBX 14 23 -1 -5
BITMAP
0C60
1EF0
1EF0
0C60
0000
FE3C
7C18
7C10
3E30
3E20
3E20
1F60
1F40
1F40
0FC0
0F80
0F80
0780
0700
6700
F600
F400
7800
ENDCHAR
STARTCHAR Amacron
ENCODING 256
SWIDTH 644 0
DWIDTH 16 0
BBX 18 20 -1 0
BITMAP
07F800
07F800
000000
01E000
01E000
03F000
03F000
03F000
06F800
06F800
06F800
0C7C00
0C7C00
0FFC00
183E00
183E00
183E00
301F00
301F00
FC7FC0
ENDCHAR
STARTCHAR amacron
ENCODING 257
SWIDTH 544 0
DWIDTH 14 0
BBX 14 16 0 0
BITMAP
3FC0
3FC0
0000
3FC0
FBE0
F1F0
61F0
03F0
07F0
19F0
71F0
F1F0
F1F0
F9F0
FFFC
7CF0
ENDCHAR
STARTCHAR Abreve
ENCODING 258
SWIDTH 644 0
DWIDTH 16 0
BBX 18 22 -1 0
BITMAP
040800
061800
03F000
01E000
000000
01E000
01E000
03F000
03F000
03F000
06F800
06F800
06F800
0C7C00
0C7C00
0FFC00
183E00
183E00
183E00
301F00
301F00
FC7FC0
ENDCHAR
STARTCHAR abreve
ENCODING 259
SWIDTH 544 0
DWIDTH 14 0
BBX 14 18 0 0
BITMAP
2040
30C0
1F80
0F00
0000
3FC0
FBE0
F1F0
61F0
03F0
07F0
19F0
71F0
F1F0
F1F0
F9F0
FFFC
7CF0
ENDCHAR
STARTCHAR Aogonek
ENCODING 260
SWIDTH 644 0
DWIDTH 16 0
BBX 18 22 -1 -5
BITMAP
01E000
01E000
03F000
03F000
03F000
06F800
06F800
06F800
0C7C00
0C7C00
0FFC00
183E00
183E00
183E00
301F00
301F00
FC7FC0
007000
00E000
01C000
01C800
00F000
ENDCHAR
STARTCHAR aogonek
ENCODING 261
SWIDTH 544 0
DWIDTH 14 0
BBX 14 18 0 -5
BITMAP
3FC0
FBE0
F1F0
61F0
03F0
07F0
19F0
71F0
F1F0
F1F0
F9F0
FFFC
7CF0
0380
0700
0E00
0E40
0780
ENDCHAR
STARTCHAR Cacute
ENCODING 262
SWIDTH 689 0
DWIDTH 17 0
BBX 16 23 0 0
BITMAP
0020
0070
00F0
01C0
0300
0000
07FC
1E0F
3C07
7C03
7C01
F801
F800
F800
F800
F800
F800
F801
7C01
7C03
3E07
1F0F
07FC
ENDCHAR
STARTCHAR cacute
ENCODING 263
SWIDTH 494 0
DWIDTH 13 0
BBX 12 19 0 0
BITMAP
0080
01C0
03C0
0700
0C00
0000
1FC0
7CF0
7CF0
F860
F800
F800
F800
F800
F800
F800
7C10
7C70
1FC0
ENDCHAR
STARTCHAR Ccircumflex
ENCODING 264
SWIDTH 689 0
DWIDTH 17 0
BBX 16 23 0 0
BITMAP
0080
01C0
03E0
0630
0808
0000
07FC
1E0F
3C07
7C03
7C01
F801
F800
F800
F800
F800
F800
F801
7C01
7C03
3E07
1F0F
07FC
ENDCHAR
STARTCHAR ccircumflex
ENCODING 265
SWIDTH 494 0
DWIDTH 13 0
BBX 12 19 0 0
BITMAP
0200
0700
0F80
18C0
2020
0000
1FC0
7CF0
7CF0
F860
F800
F800
F800
F800
F800
F800
7C10
7C70
1FC0
ENDCHAR
STARTCHAR Cdotaccent
ENCODING 266
SWIDTH 689 0
DWIDTH 17 0
BBX 16 22 0 0
BITMAP
0180
03C0
03C0
0180
0000
07FC
1E0F
3C07
7C03
7C01
F801
F800
F800
F800
F800
F800
F801
7C01
7C03
3E07
1F0F
07FC
ENDCHAR
STARTCHAR cdotaccent
ENCODING 267
SWIDTH 494 0
DWIDTH 13 0
BBX 12 18 0 0
BITMAP
0600
0F00
0F00
0600
0000
1FC0
7CF0
7CF0
F860
F800
F800
F800
F800
F800
F800
7C10
7C70
1FC0
ENDCHAR
STARTCHAR Ccaron
ENCODING 268
SWIDTH 689 0
DWIDTH 17 0
BBX 16 23 0 0
BITMAP
0808
0630
03E0
01C0
0080
0000
07FC
1E0F
3C07
7C03
7C01
F801
F800
F800
F800
F800
F800
F801
7C01
7C03
3E07
1F0F
07FC
ENDCHAR
STARTCHAR ccaron
ENCODING 269
SWIDTH 494 0
DWIDTH 13 0
BBX 12 19 0 0
BITMAP
2020
18C0
0F80
0700
0200
0000
1FC0
7CF0
7CF0
F860
F800
F800
F800
F800
F800
F800
7C10
7C70
1FC0
ENDCHAR
STARTCHAR Dcaron
ENCODING 270
SWIDTH 777 0
DWIDTH 19 0
BBX 18 23 0 0
BITMAP
080800
063000
03E000
01C000
008000
000000
FFF800
3E1E00
3E0F00
3E0F80
3E0F80
3E07C0
3E07C0
3E07C0
3E07C0
3E07C0
3E07C0
3E07C0
3E0F80
3E0F80
3E0F00
3F1E00
FFF800
ENDCHAR
STARTCHAR dcaron
ENCODING 271
SWIDTH 827 0
DWIDTH 20 0
BBX 19 19 0 0
BITMAP
001C00
01FC00
007CC0
007DE0
007DE0
007DE0
1FFCC0
7CFCC0
7C7C80
F87D00
F87C00
F87C00
F87C00
F87C00
F87C00
F87C00
7C7C00
7CFC00
1F3E00
ENDCHAR
STARTCHAR Dcroat
ENCODING 272
SWIDTH 783 0
DWIDTH 19 0
BBX 18 17 0 0
BITMAP
FFF800
3E1E00
3E0F00
3E0F80
3E0F80
3E07C0
3E07C0
FFC7C0
3E07C0
3E07C0
3E07C0
3E07C0
3E0F80
3E0F80
3E0F00
3F1E00
FFF800
ENDCHAR
STARTCHAR dcroat
ENCODING 273
SWIDTH 605 0
DWIDTH 15 0
BBX 16 19 0 0
BITMAP
001C
01FC
007C
007C
007C
01FF
1FFC
7CFC
7C7C
F87C
F87C
F87C
F87C
F87C
F87C
F87C
7C7C
7CFC
1F3E
ENDCHAR
STARTCHAR Emacron
ENCODING 274
SWIDTH 629 0
DWIDTH 16 0
BBX 15 20 0 0
BITMAP
1FE0
1FE0
0000
FFFC
3E1C
3E0C
3E04
3E00
3E10
3E30
3FF0
3E30
3E10
3E00
3E00
3E02
3E02
3E06
3F0E
FFFE
ENDCHAR
STARTCHAR emacron
ENCODING 275
SWIDTH 519 0
DWIDTH 13 0
BBX 12 16 0 0
BITMAP
3FC0
3FC0
0000
1FC0
7DE0
7CF0
F8F0
FFF0
F800
F800
F800
F800
F800
7C10
7C70
1FC0
ENDCHAR
STARTCHAR Ebreve
ENCODING 276
SWIDTH 629 0
DWIDTH 16 0
BBX 15 22 0 0
BITMAP
1020
1860
0FC0
0780
0000
FFFC
3E1C
3E0C
3E04
3E00
3E10
3E30
3FF0
3E30
3E10
3E00
3E00
3E02
3E02
3E06
3F0E
FFFE
ENDCHAR
STARTCHAR ebreve
ENCODING 277
SWIDTH 519 0
DWIDTH 13 0
BBX 12 18 0 0
BITMAP
2040
30C0
1F80
0F00
0000
1FC0
7DE0
7CF0
F8F0
FFF0
F800
F800
F800
F800
F800
7C10
7C70
1FC0
ENDCHAR
STARTCHAR Edotaccent
ENCODING 278
SWIDTH 629 0
DWIDTH 16 0
BBX 15 22 0 0
BITMAP
0300
0780
0780
0300
0000
FFFC
3E1C
3E0C
3E04
3E00
3E10
3E30
3FF0
3E30
3E10
3E00
3E00
3E02
3E02
3E06
3F0E
FFFE
ENDCHAR
STARTCHAR edotaccent
ENCODING 279
SWIDTH 519 0
DWIDTH 13 0
BBX 12 18 0 0
BITMAP
0600
0F00
0F00
0600
0000
1FC0
7DE0
7CF0
F8F0
FFF0
F800
F800
F800
F800
F800
7C10
7C70
1FC0
ENDCHAR
STARTCHAR Eogonek
ENCODING 280
SWIDTH 629 0
DWIDTH 16 0
BBX 15 22 0 -5
BITMAP
FFFC
3E1C
3E0C
3E04
3E00
3E10
3E30
3FF0
3E30
3E10
3E00
3E00
3E02
3E02
3E06
3F0E
FFFE
0380
0700
0E00
0E40
0780
ENDCHAR
STARTCHAR eogonek
ENCODING 281
SWIDTH 519 0
DWIDTH 13 0
BBX 12 18 0 -5
BITMAP
1FC0
7DE0
7CF0
F8F0
FFF0
F800
F800
F800
F800
F800
7C10
7C70
1FC0
0E00
1C00
3800
3900
1E00
ENDCHAR
STARTCHAR Ecaron
ENCODING 282
SWIDTH 629 0
DWIDTH 16 0
BBX 15 23 0 0
BITMAP
2020
18C0
0F80
0700
0200
0000
FFFC
3E1C
3E0C
3E04
3E00
3E10
3E30
3FF0
3E30
3E10
3E00
3E00
3E02
3E02
3E06
3F0E
FFFE
ENDCHAR
STARTCHAR ecaron
ENCODING 283
SWIDTH 519 0
DWIDTH 13 0
BBX 12 19 0 0
BITMAP
2020
18C0
0F80
0700
0200
0000
1FC0
7DE0
7CF0
F8F0
FFF0
F800
F800
F800
F800
F800
7C10
7C70
1FC0
ENDCHAR
STARTCHAR Gcircumflex
ENCODING 284
SWIDTH 726 0
DWIDTH 18 0
BBX 17 23 0 0
BITMAP
008000
01C000
03E000
063000
080800
000000
07FC00
1E0F00
3C0700
7C0300
7C0100
F80100
F80000
F80000
F80000
F80000
F87F80
F81F00
7C1F00
7C1F00
3E1F00
1F1F00
07F800
ENDCHAR
STARTCHAR gcircumflex
ENCODING 285
SWIDTH 533 0
DWIDTH 14 0
BBX 14 25 0 -5
BITMAP
0100
0380
07C0
0C60
1010
0000
001C
1FFC
7DF0
F8F8
F8F8
F8F8
F8F8
7DF0
1FC0
0C00
1F00
3FE0
3FF8
1FFC
71FC
F03C
F03C
7878
1FE0
ENDCHAR
STARTCHAR Gbreve
ENCODING 286
SWIDTH 726 0
DWIDTH 18 0
BBX 17 22 0 0
BITMAP
081000
0C3000
07E000
03C000
000000
07FC00
1E0F00
3C0700
7C0300
7C0100
F80100
F80000
F80000
F80000
F80000
F87F80
F81F00
7C1F00
7C1F00
3E1F00
1F1F00
07F800
ENDCHAR
STARTCHAR gbreve
ENCODING 287
SWIDTH 533 0
DWIDTH 14 0
BBX 14 24 0 -5
BITMAP
1020
1860
0FC0
0780
0000
001C
1FFC
7DF0
F8F8
F8F8
F8F8
F8F8
7DF0
1FC0
0C00
1F00
3FE0
3FF8
1FFC
71FC
F03C
F03C
7878
1FE0
ENDCHAR
STARTCHAR Gdotaccent
ENCODING 288
SWIDTH 726 0
DWIDTH 18 0
BBX 17 22 0 0
BITMAP
018000
03C000
03C000
018000
000000
07FC00
1E0F00
3C0700
7C0300
7C0100
F80100
F80000
F80000
F80000
F80000
F87F80
F81F00
7C1F00
7C1F00
3E1F00
1F1F00
07F800
ENDCHAR
STARTCHAR gdotaccent
ENCODING 289
SWIDTH 533 0
DWIDTH 14 0
BBX 14 24 0 -5
BITMAP
0300
0780
0780
0300
0000
001C
1FFC
7DF0
F8F8
F8F8
F8F8
F8F8
7DF0
1FC0
0C00
1F00
3FE0
3FF8
1FFC
71FC
F03C
F03C
7878
1FE0
ENDCHAR
STARTCHAR Gcommaaccent
ENCODING 290
SWIDTH 726 0
DWIDTH 18 0
BBX 17 26 0 -9
BITMAP
07FC00
1E0F00
3C0700
7C0300
7C0100
F80100
F80000
F80000
F80000
F80000
F87F80
F81F00
7C1F00
7C1F00
3E1F00
1F1F00
07F800
000000
00C000
01E000
01E000
01E000
00C000
00C000
008000
010000
ENDCHAR
STARTCHAR gcommaaccent
ENCODING 291
SWIDTH 533 0
DWIDTH 14 0
BBX 14 28 0 -5
BITMAP
0080
0100
0300
0300
0780
0780
0780
0300
0000
001C
1FFC
7DF0
F8F8
F8F8
F8F8
F8F8
7DF0
1FC0
0C00
1F00
3FE0
3FF8
1FFC
71FC
F03C
F03C
7878
1FE0
ENDCHAR
STARTCHAR Hcircumflex
ENCODING 292
SWIDTH 807 0
DWIDTH 20 0
BBX 19 23 0 0
BITMAP
004000
00E000
01F000
031800
040400
000000
FFBFE0
3E0F80
3E0F80
3E0F80
3E0F80
3E0F80
3E0F80
3E0F80
3FFF80
3E0F80
3E0F80
3E0F80
3E0F80
3E0F80
3E0F80
3E0F80
FFBFE0
ENDCHAR
STARTCHAR hcircumflex
ENCODING 293
SWIDTH 631 0
DWIDTH 16 0
BBX 16 25 -1 0
BITMAP
0400
0E00
1F00
3180
4040
0000
0E00
FE00
3E00
3E00
3E00
3E00
3E78
3EFC
3F3E
3E3E
3E3E
3E3E
3E3E
3E3E
3E3E
3E3E
3E3E
3E3E
7F3F
ENDCHAR
STARTCHAR Hbar
ENCODING 294
SWIDTH 807 0
DWIDTH 20 0
BBX 19 17 0 0
BITMAP
FFBFE0
3E0F80
3E0F80
3E0F80
FFFFE0
3E0F80
3E0F80
3E0F80
3FFF80
3E0F80
3E0F80
3E0F80
3E0F80
3E0F80
3E0F80
3E0F80
FFBFE0
ENDCHAR
STARTCHAR hbar
ENCODING 295
SWIDTH 631 0
DWIDTH 16 0
BBX 16 19 -1 0
BITMAP
0E00
FE00
3E00
3E00
3E00
FF80
3E78
3EFC
3F3E
3E3E
3E3E
3E3E
3E3E
3E3E
3E3E
3E3E
3E3E
3E3E
7F3F
ENDCHAR
STARTCHAR Itilde
ENCODING 296
SWIDTH 384 0
DWIDTH 10 0
BBX 10 21 0 0
BITMAP
18C0
3F80
6300
0000
FF80
3E00
3E00
3E00
3E00
3E00
3E00
3E00
3E00
3E00
3E00
3E00
3E00
3E00
3E00
3E00
FF80
ENDCHAR
STARTCHAR itilde
ENCODING 297
SWIDTH 316 0
DWIDTH 8 0
BBX 9 17 0 0
BITMAP
3180
7F00
C600
0000
1C00
FC00
7C00
7C00
7C00
7C00
7C00
7C00
7C00
7C00
7C00
7C00
FE00
ENDCHAR
STARTCHAR Imacron
ENCODING 298
SWIDTH 384 0
DWIDTH 10 0
BBX 9 20 0 0
BITMAP
7F80
7F80
0000
FF80
3E00
3E00
3E00
3E00
3E00
3E00
3E00
3E00
3E00
3E00
3E00
3E00
3E00
3E00
3E00
FF80
ENDCHAR
STARTCHAR imacron
ENCODING 299
SWIDTH 316 0
DWIDTH 8 0
BBX 8 16 0 0
BITMAP
FF
FF
00
1C
FC
7C
7C
7C
7C
7C
7C
7C
7C
7C
7C
FE
ENDCHAR
STARTCHAR Ibreve
ENCODING 300
SWIDTH 384 0
DWIDTH 10 0
BBX 9 22 0 0
BITMAP
4080
6180
3F00
1E00
0000
FF80
3E00
3E00
3E00
3E00
3E00
3E00
3E00
3E00
3E00
3E00
3E00
3E00
3E00
3E00
3E00
FF80
ENDCHAR
STARTCHAR ibreve
ENCODING 301
SWIDTH 316 0
DWIDTH 8 0
BBX 8 18 0 0
BITMAP
81
C3
7E
3C
00
1C
FC
7C
7C
7C
7C
7C
7C
7C
7C
7C
7C
FE
ENDCHAR
STARTCHAR Iogonek
ENCODING 302
SWIDTH 384 0
DWIDTH 10 0
BBX 9 22 0 -5
BITMAP
FF80
3E00
3E00
3E00
3E00
3E00
3E00
3E00
3E00
3E00
3E00
3E00
3E00
3E00
3E00
3E00
FF80
0E00
1C00
3800
3900
1E00
ENDCHAR
STARTCHAR iogonek
ENCODING 303
SWIDTH 316 0
DWIDTH 8 0
BBX 7 23 0 -5
BITMAP
38
7C
7C
38
00
1C
FC
7C
7C
7C
7C
7C
7C
7C
7C
7C
7C
FE
1C
38
70
72
3C
ENDCHAR
STARTCHAR Idotaccent
ENCODING 304
SWIDTH 384 0
DWIDTH 10 0
BBX 9 22 0 0
BITMAP
0C00
1E00
1E00
0C00
0000
FF80
3E00
3E00
3E00
3E00
3E00
3E00
3E00
3E00
3E00
3E00
3E00
3E00
3E00
3E00
3E00
FF80
ENDCHAR
STARTCHAR dotlessi
ENCODING 305
SWIDTH 316 0
DWIDTH 8 0
BBX 7 13 0 0
BITMAP
1C
FC
7C
7C
7C
7C
7C
7C
7C
7C
7C
7C
FE
ENDCHAR
STARTCHAR IJ
ENCODING 306
SWIDTH 751 0
DWIDTH 20 0
BBX 19 20 0 -3
BITMAP
FFBFE0
3E0F80
3E0F80
3E0F80
3E0F80
3E0F80
3E0F80
3E0F80
3E0F80
3E0F80
3E0F80
3E0F80
3E0F80
3E0F80
3E0F80
3E0F80
FF8F00
000F00
001E00
007800
ENDCHAR
STARTCHAR ij
ENCODING 307
SWIDTH 616 0
DWIDTH 16 0
BBX 14 23 0 -5
BITMAP
3818
7C3C
7C3C
3818
0000
1C3C
FCFC
7C7C
7C7C
7C7C
7C7C
7C7C
7C7C
7C7C
7C7C
7C7C
7C7C
FE7C
007C
007C
0078
00F8
03E0
ENDCHAR
STARTCHAR Jcircumflex
ENCODING 308
SWIDTH 386 0
DWIDTH 10 0
BBX 10 26 -1 -3
BITMAP
0400
0E00
1F00
3180
4040
0000
7FC0
1F00
1F00
1F00
1F00
1F00
1F00
1F00
1F00
1F00
1F00
1F00
1F00
1F00
1F00
1F00
1E00
1E00
3C00
F000
ENDCHAR
STARTCHAR jcircumflex
ENCODING 309
SWIDTH 316 0
DWIDTH 8 0
BBX 9 24 -2 -5
BITMAP
0800
1C00
3E00
6300
8080
0000
0F00
3F00
1F00
1F00
1F00
1F00
1F00
1F00
1F00
1F00
1F00
1F00
1F00
1F00
1F00
1E00
3E00
F800
ENDCHAR
STARTCHAR Kcommaaccent
ENCODING 310
SWIDTH 707 0
DWIDTH 18 0
BBX 19 26 0 -9
BITMAP
FF8FC0
3E0700
3E0600
3E0C00
3E1800
3E3000
3E7000
3EF000
3FF800
3EFC00
3E7C00
3E3E00
3E3F00
3E1F00
3E0F80
3E0FC0
FF87E0
000000
00C000
01E000
01E000
01E000
00C000
00C000
008000
010000
ENDCHAR
STARTCHAR kcommaaccent
ENCODING 311
SWIDTH 582 0
DWIDTH 15 0
BBX 16 28 -1 -9
BITMAP
1E00
FE00
3E00
3E00
3E00
3E00
3E1E
3E3C
3E38
3E70
3EE0
3FC0
3FE0
3EF0
3EF8
3E78
3E7C
3E3E
7F1F
0000
0180
03C0
03C0
03C0
0180
0180
0100
0200
ENDCHAR
STARTCHAR kgreenlandic
ENCODING 312
SWIDTH 582 0
DWIDTH 15 0
BBX 16 12 -1 0
BITMAP
3E3C
3E38
3E70
3EE0
3FC0
3FE0
3EF0
3EF8
3E78
3E7C
3E3E
7F1F
ENDCHAR
STARTCHAR Lacute
ENCODING 313
SWIDTH 585 0
DWIDTH 15 0
BBX 15 23 0 0
BITMAP
0100
0380
0780
0E00
1800
0000
FF80
3E00
3E00
3E00
3E00
3E00
3E00
3E00
3E00
3E00
3E00
3E00
3E02
3E02
3E06
3F0E
FFFE
ENDCHAR
STARTCHAR lacute
ENCODING 314
SWIDTH 309 0
DWIDTH 8 0
BBX 8 25 -1 0
BITMAP
02
07
0F
1C
30
00
0E
FE
3E
3E
3E
3E
3E
3E
3E
3E
3E
3E
3E
3E
3E
3E
3E
3E
7F
ENDCHAR
STARTCHAR Lcommaaccent
ENCODING 315
SWIDTH 585 0
DWIDTH 15 0
BBX 15 26 0 -9
BITMAP
FF80
3E00
3E00
3E00
3E00
3E00
3E00
3E00
3E00
3E00
3E00
3E00
3E02
3E02
3E06
3F0E
FFFE
0000
0300
0780
0780
0780
0300
0300
0200
0400
ENDCHAR
STARTCHAR lcommaaccent
ENCODING 316
SWIDTH 309 0
DWIDTH 8 0
BBX 8 28 -1 -9
BITMAP
0E
FE
3E
3E
3E
3E
3E
3E
3E
3E
3E
3E
3E
3E
3E
3E
3E
3E
7F
00
18
3C
3C
3C
18
18
10
20
ENDCHAR
STARTCHAR Lcaron
ENCODING 317
SWIDTH 808 0
DWIDTH 20 0
BBX 19 17 0 0
BITMAP
FF80C0
3E01E0
3E01E0
3E01E0
3E00C0
3E00C0
3E0080
3E0100
3E0000
3E0000
3E0000
3E0000
3E0200
3E0200
3E0600
3F0E00
FFFE00
ENDCHAR
STARTCHAR lcaron
ENCODING 318
SWIDTH 546 0
DWIDTH 14 0
BBX 14 19 -1 0
BITMAP
0E00
FE00
3E18
3E3C
3E3C
3E3C
3E18
3E18
3E10
3E20
3E00
3E00
3E00
3E00
3E00
3E00
3E00
3E00
7F00
ENDCHAR
STARTCHAR Ldot
ENCODING 319
SWIDTH 836 0
DWIDTH 21 0
BBX 19 17 0 0
BITMAP
FF8000
3E0000
3E0000
3E0000
3E0000
3E0000
3E0000
3E0000
3E00C0
3E01E0
3E01E0
3E01E0
3E02C0
3E0200
3E0600
3F0E00
FFFE00
ENDCHAR
STARTCHAR ldot
ENCODING 320
SWIDTH 574 0
DWIDTH 15 0
BBX 14 19 -1 0
BITMAP
0E00
FE00
3E00
3E00
3E00
3E00
3E00
3E00
3E00
3E00
3E18
3E3C
3E3C
3E3C
3E18
3E00
3E00
3E00
7F00
ENDCHAR
STARTCHAR Lslash
ENCODING 321
SWIDTH 591 0
DWIDTH 15 0
BBX 15 17 0 0
BITMAP
FF80
3E00
3E00
3E00
3E40
3EC0
3F80
3F00
3E00
3E00
7E00
FE00
BE02
3E02
3E06
3F0E
FFFE
ENDCHAR
STARTCHAR lslash
ENCODING 322
SWIDTH 321 0
DWIDTH 8 0
BBX 9 19 -1 0
BITMAP
0E00
FE00
3E00
3E00
3E00
3E00
3E80
3F80
3F00
3E00
3E00
3E00
7E00
FE00
BE00
3E00
3E00
3E00
7F00
ENDCHAR
STARTCHAR Nacute
ENCODING 323
SWIDTH 739 0
DWIDTH 19 0
BBX 18 23 0 0
BITMAP
002000
007000
00F000
01C000
030000
000000
FE0FC0
3F0300
3F8300
3F8300
3FC300
37E300
37E300
33F300
31FB00
31FB00
30FF00
307F00
307F00
303F00
301F00
301F00
FC0F00
ENDCHAR
STARTCHAR nacute
ENCODING 324
SWIDTH 638 0
DWIDTH 16 0
BBX 15 19 0 0
BITMAP
0040
00E0
01E0
0380
0600
0000
1CF0
FDF8
7E7C
7C7C
7C7C
7C7C
7C7C
7C7C
7C7C
7C7C
7C7C
7C7C
FE7E
ENDCHAR
STARTCHAR Ncommaaccent
ENCODING 325
SWIDTH 739 0
DWIDTH 19 0
BBX 18 26 0 -9
BITMAP
FE0FC0
3F0300
3F8300
3F8300
3FC300
37E300
37E300
33F300
31FB00
31FB00
30FF00
307F00
307F00
303F00
301F00
301F00
FC0F00
000000
00C000
01E000
01E000
01E000
00C000
00C000
008000
010000
ENDCHAR
STARTCHAR ncommaaccent
ENCODING 326
SWIDTH 638 0
DWIDTH 16 0
BBX 15 22 0 -9
BITMAP
1CF0
FDF8
7E7C
7C7C
7C7C
7C7C
7C7C
7C7C
7C7C
7C7C
7C7C
7C7C
FE7E
0000
0300
0780
0780
0780
0300
0300
0200
0400
ENDCHAR
STARTCHAR Ncaron
ENCODING 327
SWIDTH 739 0
DWIDTH 19 0
BBX 18 23 0 0
BITMAP
080800
063000
03E000
01C000
008000
000000
FE0FC0
3F0300
3F8300
3F8300
3FC300
37E300
37E300
33F300
31FB00
31FB00
30FF00
307F00
307F00
303F00
301F00
301F00
FC0F00
ENDCHAR
STARTCHAR ncaron
ENCODING 328
SWIDTH 638 0
DWIDTH 16 0
BBX 15 19 0 0
BITMAP
1010
0C60
07C0
0380
0100
0000
1CF0
FDF8
7E7C
7C7C
7C7C
7C7C
7C7C
7C7C
7C7C
7C7C
7C7C
7C7C
FE7E
ENDCHAR
STARTCHAR napostrophe
ENCODING 329
SWIDTH 877 0
DWIDTH 22 0
BBX 20 17 1 0
BITMAP
600000
F00000
F00000
F00000
60E780
67EFC0
43F3E0
83E3E0
03E3E0
03E3E0
03E3E0
03E3E0
03E3E0
03E3E0
03E3E0
03E3E0
07F3F0
ENDCHAR
STARTCHAR Eng
ENCODING 330
SWIDTH 739 0
DWIDTH 19 0
BBX 18 22 0 -5
BITMAP
FE0FC0
3F0300
3F8300
3F8300
3FC300
37E300
37E300
33F300
31FB00
31FB00
30FF00
307F00
307F00
303F00
301F00
301F00
FC1F00
001F00
001F00
001E00
003E00
00F800
ENDCHAR
STARTCHAR eng
ENCODING 331
SWIDTH 638 0
DWIDTH 16 0
BBX 14 18 0 -5
BITMAP
1CF0
FDF8
7E7C
7C7C
7C7C
7C7C
7C7C
7C7C
7C7C
7C7C
7C7C
7C7C
FE7C
007C
007C
0078
00F8
03E0
ENDCHAR
STARTCHAR Omacron
ENCODING 332
SWIDTH 768 0
DWIDTH 19 0
BBX 18 20 0 0
BITMAP
07F800
07F800
000000
07F800
1E1E00
3C0F00
7C0F80
7C0F80
F807C0
F807C0
F807C0
F807C0
F807C0
F807C0
F807C0
7C0F80
7C0F80
3C0F00
1E1E00
07F800
ENDCHAR
STARTCHAR omacron
ENCODING 333
SWIDTH 585 0
DWIDTH 15 0
BBX 14 16 0 0
BITMAP
1FE0
1FE0
0000
1FE0
7CF8
7CF8
F87C
F87C
F87C
F87C
F87C
F87C
F87C
7CF8
7CF8
1FE0
ENDCHAR
STARTCHAR Obreve
ENCODING 334
SWIDTH 768 0
DWIDTH 19 0
BBX 18 22 0 0
BITMAP
040800
061800
03F000
01E000
000000
07F800
1E1E00
3C0F00
7C0F80
7C0F80
F807C0
F807C0
F807C0
F807C0
F807C0
F807C0
F807C0
7C0F80
7C0F80
3C0F00
1E1E00
07F800
ENDCHAR
STARTCHAR obreve
ENCODING 335
SWIDTH 585 0
DWIDTH 15 0
BBX 14 18 0 0
BITMAP
1020
1860
0FC0
0780
0000
1FE0
7CF8
7CF8
F87C
F87C
F87C
F87C
F87C
F87C
F87C
7CF8
7CF8
1FE0
ENDCHAR
STARTCHAR Ohungarumlaut
ENCODING 336
SWIDTH 768 0
DWIDTH 19 0
BBX 18 23 0 0
BITMAP
00CC00
01DC00
019800
033000
022000
000000
07F800
1E1E00
3C0F00
7C0F80
7C0F80
F807C0
F807C0
F807C0
F807C0
F807C0
F807C0
F807C0
7C0F80
7C0F80
3C0F00
1E1E00
07F800
ENDCHAR
STARTCHAR ohungarumlaut
ENCODING 337
SWIDTH 585 0
DWIDTH 15 0
BBX 14 19 0 0
BITMAP
0330
0770
0660
0CC0
0880
0000
1FE0
7CF8
7CF8
F87C
F87C
F87C
F87C
F87C
F87C
F87C
7CF8
7CF8
1FE0
ENDCHAR
STARTCHAR OE
ENCODING 338
SWIDTH 1049 0
DWIDTH 26 0
BBX 25 17 0 0
BITMAP
07FFFF00
1E1F8700
3C0F8300
7C0F8100
7C0F8000
F80F8400
F80F8C00
F80FFC00
F80F8C00
F80F8400
F80F8000
F80F8000
7C0F8080
7C0F8080
3C0F8180
1E1FC380
07FFFF80
ENDCHAR
STARTCHAR oe
ENCODING 339
SWIDTH 866 0
DWIDTH 22 0
BBX 21 13 0 0
BITMAP
1FEFE0
7CFEF0
7CFE78
F87C78
F87FF8
F87C00
F87C00
F87C00
F87C00
F87C00
7CFE08
7CFE38
1FEFE0
ENDCHAR
STARTCHAR Racute
ENCODING 340
SWIDTH 684 0
DWIDTH 17 0
BBX 18 23 -1 0
BITMAP
002000
007000
00F000
01C000
030000
000000
FFF800
3E3E00
3E1F00
3E1F00
3E1F00
3E1F00
3E1E00
3E3C00
3FF000
3EF800
3E7C00
3E7E00
3E3E00
3E3F00
3E3F00
3F1F80
FF8FC0
ENDCHAR
STARTCHAR racute
ENCODING 341
SWIDTH 440 0
DWIDTH 11 0
BBX 12 19 0 0
BITMAP
0080
01C0
03C0
0700
0C00
0000
1CE0
FDF0
7FF0
7CE0
7C00
7C00
7C00
7C00
7C00
7C00
7C00
7C00
FE00
ENDCHAR
STARTCHAR Rcommaaccent
ENCODING 342
SWIDTH 684 0
DWIDTH 17 0
BBX 18 26 -1 -9
BITMAP
FFF800
3E3E00
3E1F00
3E1F00
3E1F00
3E1F00
3E1E00
3E3C00
3FF000
3EF800
3E7C00
3E7E00
3E3E00
3E3F00
3E3F00
3F1F80
FF8FC0
000000
00C000
01E000
01E000
01E000
00C000
00C000
008000
010000
ENDCHAR
STARTCHAR rcommaaccent
ENCODING 343
SWIDTH 440 0
DWIDTH 11 0
BBX 12 22 0 -9
BITMAP
1CE0
FDF0
7FF0
7CE0
7C00
7C00
7C00
7C00
7C00
7C00
7C00
7C00
FE00
0000
1800
3C00
3C00
3C00
1800
1800
1000
2000
ENDCHAR
STARTCHAR Rcaron
ENCODING 344
SWIDTH 684 0
DWIDTH 17 0
BBX 18 23 -1 0
BITMAP
080800
063000
03E000
01C000
008000
000000
FFF800
3E3E00
3E1F00
3E1F00
3E1F00
3E1F00
3E1E00
3E3C00
3FF000
3EF800
3E7C00
3E7E00
3E3E00
3E3F00
3E3F00
3F1F80
FF8FC0
ENDCHAR
STARTCHAR rcaron
ENCODING 345
SWIDTH 440 0
DWIDTH 11 0
BBX 12 19 0 0
BITMAP
2020
18C0
0F80
0700
0200
0000
1CE0
FDF0
7FF0
7CE0
7C00
7C00
7C00
7C00
7C00
7C00
7C00
7C00
FE00
ENDCHAR
STARTCHAR Sacute
ENCODING 346
SWIDTH 561 0
DWIDTH 14 0
BBX 13 23 0 0
BITMAP
0100
0380
0780
0E00
1800
0000
1FE0
7C70
7830
F810
F800
FC00
FF00
7F80
3FE0
0FF0
03F8
81F8
80F8
C0F8
E0F0
F9F0
3FC0
ENDCHAR
STARTCHAR sacute
ENCODING 347
SWIDTH 446 0
DWIDTH 11 0
BBX 10 19 0 0
BITMAP
0100
0380
0780
0E00
1800
0000
1F80
71C0
F0C0
F840
FE00
7F00
3F80
1FC0
0FC0
87C0
C3C0
E380
7E00
ENDCHAR
STARTCHAR Scircumflex
ENCODING 348
SWIDTH 561 0
DWIDTH 14 0
BBX 13 23 0 0
BITMAP
0400
0E00
1F00
3180
4040
0000
1FE0
7C70
7830
F810
F800
FC00
FF00
7F80
3FE0
0FF0
03F8
81F8
80F8
C0F8
E0F0
F9F0
3FC0
ENDCHAR
STARTCHAR scircumflex
ENCODING 349
SWIDTH 446 0
DWIDTH 11 0
BBX 10 19 0 0
BITMAP
0800
1C00
3E00
6300
8080
0000
1F80
71C0
F0C0
F840
FE00
7F00
3F80
1FC0
0FC0
87C0
C3C0
E380
7E00
ENDCHAR
STARTCHAR Scedilla
ENCODING 350
SWIDTH 561 0
DWIDTH 14 0
BBX 13 22 0 -5
BITMAP
1FE0
7C70
7830
F810
F800
FC00
FF00
7F80
3FE0
0FF0
03F8
81F8
80F8
C0F8
E0F0
F9F0
3FC0
0200
0700
0380
0380
0F00
ENDCHAR
STARTCHAR scedilla
ENCODING 351
SWIDTH 446 0
DWIDTH 11 0
BBX 10 18 0 -5
BITMAP
1F80
71C0
F0C0
F840
FE00
7F00
3F80
1FC0
0FC0
87C0
C3C0
E380
7E00
0400
0E00
0700
0700
1E00
ENDCHAR
STARTCHAR Scaron
ENCODING 352
SWIDTH 561 0
DWIDTH 14 0
BBX 13 21 0 0
BITMAP
2020
18C0
0F80
0700
0200
0000
0FE0
3C70
7830
F810
FC00
FF00
7F80
3FE0
0FF0
03F8
81F8
C0F8
E0F0
F9E0
3F80
ENDCHAR
STARTCHAR scaron
ENCODING 353
SWIDTH 446 0
DWIDTH 11 0
BBX 11 19 0 0
BITMAP
4040
3180
1F00
0E00
0400
0000
1FC0
78E0
F860
FC20
FE00
7F80
3FC0
0FE0
07E0
83E0
C3E0
E3C0
7F00
ENDCHAR
STARTCHAR Tcommaaccent
ENCODING 354
SWIDTH 624 0
DWIDTH 16 0
BBX 15 22 0 -5
BITMAP
FFFE
E7CE
C7C6
87C2
07C0
07C0
07C0
07C0
07C0
07C0
07C0
07C0
07C0
07C0
07C0
07C0
1FF0
0100
0380
01C0
01C0
0780
ENDCHAR
STARTCHAR tcommaaccent
ENCODING 355
SWIDTH 370 0
DWIDTH 9 0
BBX 9 21 0 -5
BITMAP
0C00
1C00
3C00
FF80
7C00
7C00
7C00
7C00
7C00
7C00
7C00
7C00
7C00
7C80
3F80
1F00
0800
1C00
0E00
0E00
3C00
ENDCHAR
STARTCHAR Tcaron
ENCODING 356
SWIDTH 624 0
DWIDTH 16 0
BBX 15 23 0 0
BITMAP
1010
0C60
07C0
0380
0100
0000
FFFE
E7CE
C7C6
87C2
07C0
07C0
07C0
07C0
07C0
07C0
07C0
07C0
07C0
07C0
07C0
07C0
1FF0
ENDCHAR
STARTCHAR tcaron
ENCODING 357
SWIDTH 604 0
DWIDTH 15 0
BBX 14 17 0 0
BITMAP
0018
0C3C
1C3C
3C3C
FF98
7C18
7C10
7C20
7C00
7C00
7C00
7C00
7C00
7C00
7C80
3F80
1F00
ENDCHAR
STARTCHAR Tbar
ENCODING 358
SWIDTH 624 0
DWIDTH 16 0
BBX 15 17 0 0
BITMAP
FFFE
E7CE
C7C6
87C2
07C0
07C0
07C0
07C0
1FF0
07C0
07C0
07C0
07C0
07C0
07C0
07C0
1FF0
ENDCHAR
STARTCHAR tbar
ENCODING 359
SWIDTH 370 0
DWIDTH 9 0
BBX 9 16 0 0
BITMAP
0C00
1C00
3C00
FF80
7C00
7C00
7C00
7C00
7C00
FF80
7C00
7C00
7C00
7C80
3F80
1F00
ENDCHAR
STARTCHAR Utilde
ENCODING 360
SWIDTH 786 0
DWIDTH 20 0
BBX 19 21 0 0
BITMAP
00C600
01FC00
031800
000000
FFBFE0
3E0F80
3E0F80
3E0F80
3E0F80
3E0F80
3E0F80
3E0F80
3E0F80
3E0F80
3E0F80
3E0F80
3E0F80
3E0F80
1E0F00
0F1E00
03F800
ENDCHAR
STARTCHAR utilde
ENCODING 361
SWIDTH 629 0
DWIDTH 16 0
BBX 15 17 0 0
BITMAP
0318
07F0
0C60
0000
1C1C
FCFC
7C7C
7C7C
7C7C
7C7C
7C7C
7C7C
7C7C
7C7C
7CFC
3F7C
1E7E
ENDCHAR
STARTCHAR Umacron
ENCODING 362
SWIDTH 786 0
DWIDTH 20 0
BBX 19 20 0 0
BITMAP
03FC00
03FC00
000000
FFBFE0
3E0F80
3E0F80
3E0F80
3E0F80
3E0F80
3E0F80
3E0F80
3E0F80
3E0F80
3E0F80
3E0F80
3E0F80
3E0F80
1E0F00
0F1E00
03F800
ENDCHAR
STARTCHAR umacron
ENCODING 363
SWIDTH 629 0
DWIDTH 16 0
BBX 15 16 0 0
BITMAP
0FF0
0FF0
0000
1C1C
FCFC
7C7C
7C7C
7C7C
7C7C
7C7C
7C7C
7C7C
7C7C
7CFC
3F7C
1E7E
ENDCHAR
STARTCHAR Ubreve
ENCODING 364
SWIDTH 786 0
DWIDTH 20 0
BBX 19 22 0 0
BITMAP
020400
030C00
01F800
00F000
000000
FFBFE0
3E0F80
3E0F80
3E0F80
3E0F80
3E0F80
3E0F80
3E0F80
3E0F80
3E0F80
3E0F80
3E0F80
3E0F80
3E0F80
1E0F00
0F1E00
03F800
ENDCHAR
STARTCHAR ubreve
ENCODING 365
SWIDTH 629 0
DWIDTH 16 0
BBX 15 18 0 0
BITMAP
0810
0C30
07E0
03C0
0000
1C1C
FCFC
7C7C
7C7C
7C7C
7C7C
7C7C
7C7C
7C7C
7C7C
7CFC
3F7C
1E7E
ENDCHAR
STARTCHAR Uring
ENCODING 366
SWIDTH 786 0
DWIDTH 20 0
BBX 19 23 0 0
BITMAP
00F000
019800
019800
019800
00F000
000000
FFBFE0
3E0F80
3E0F80
3E0F80
3E0F80
3E0F80
3E0F80
3E0F80
3E0F80
3E0F80
3E0F80
3E0F80
3E0F80
3E0F80
1E0F00
0F1E00
03F800
ENDCHAR
STARTCHAR uring
ENCODING 367
SWIDTH 629 0
DWIDTH 16 0
BBX 15 19 0 0
BITMAP
03C0
0660
0660
0660
03C0
0000
1C1C
FCFC
7C7C
7C7C
7C7C
7C7C
7C7C
7C7C
7C7C
7C7C
7CFC
3F7C
1E7E
ENDCHAR
STARTCHAR Uhungarumlaut
ENCODING 368
SWIDTH 786 0
DWIDTH 20 0
BBX 19 23 0 0
BITMAP
00CC00
01DC00
019800
033000
022000
000000
FFBFE0
3E0F80
3E0F80
3E0F80
3E0F80
3E0F80
3E0F80
3E0F80
3E0F80
3E0F80
3E0F80
3E0F80
3E0F80
3E0F80
1E0F00
0F1E00
03F800
ENDCHAR
STARTCHAR uhungarumlaut
ENCODING 369
SWIDTH 629 0
DWIDTH 16 0
BBX 15 19 0 0
BITMAP
0330
0770
0660
0CC0
0880
0000
1C1C
FCFC
7C7C
7C7C
7C7C
7C7C
7C7C
7C7C
7C7C
7C7C
7CFC
3F7C
1E7E
ENDCHAR
STARTCHAR Uogonek
ENCODING 370
SWIDTH 786 0
DWIDTH 20 0
BBX 19 22 0 -5
BITMAP
FFBFE0
3E0F80
3E0F80
3E0F80
3E0F80
3E0F80
3E0F80
3E0F80
3E0F80
3E0F80
3E0F80
3E0F80
3E0F80
3E0F80
1E0F00
0F1E00
03F800
007000
00E000
01C000
01C800
00F000
ENDCHAR
STARTCHAR uogonek
ENCODING 371
SWIDTH 629 0
DWIDTH 16 0
BBX 15 18 0 -5
BITMAP
1C1C
FCFC
7C7C
7C7C
7C7C
7C7C
7C7C
7C7C
7C7C
7C7C
7CFC
3F7C
1E7E
01C0
0380
0700
0720
03C0
ENDCHAR
STARTCHAR Wcircumflex
ENCODING 372
SWIDTH 933 0
DWIDTH 23 0
BBX 25 23 -1 0
BITMAP
00100000
00380000
007C0000
00C60000
01010000
00000000
FF8F1F80
3E0F0600
3E0F0400
3E0F0400
3E1F8C00
1F1F8800
1F1F8800
1F178800
1F379800
0FA7D000
0FA7D000
0FA7D000
0FE7F000
07C3E000
07C3E000
07C3E000
07C3E000
ENDCHAR
STARTCHAR wcircumflex
ENCODING 373
SWIDTH 774 0
DWIDTH 19 0
BBX 22 19 -1 0
BITMAP
002000
007000
00F800
018C00
020200
000000
FE3C3C
7C3C18
7C3C10
7C3E30
3E3E20
3E3E20
3E7F60
1F5F40
1F5F40
1FDFC0
0F8F80
0F8F80
0F8F80
ENDCHAR
STARTCHAR Ycircumflex
ENCODING 374
SWIDTH 617 0
DWIDTH 15 0
BBX 17 23 -1 0
BITMAP
010000
038000
07C000
0C6000
101000
000000
FF9F80
3E0600
3E0600
1F0C00
1F0C00
0F9800
0F9800
07F000
07F000
03E000
03E000
03E000
03E000
03E000
03E000
03E000
0FF800
ENDCHAR
STARTCHAR ycircumflex
ENCODING 375
SWIDTH 524 0
DWIDTH 13 0
BBX 14 24 -1 -5
BITMAP
0200
0700
0F80
18C0
2020
0000
FE3C
7C18
7C10
3E30
3E20
3E20
1F60
1F40
1F40
0FC0
0F80
0F80
0780
0700
6700
F600
F400
7800
ENDCHAR
STARTCHAR Ydieresis
ENCODING 376
SWIDTH 617 0
DWIDTH 15 0
BBX 17 20 -1 0
BITMAP
063000
0F7800
0F7800
063000
000000
FF9F80
3E0600
3E0600
1F0C00
1F0C00
0F9800
0F9800
07F000
07F000
03E000
03E000
03E000
03E000
03E000
0FF800
ENDCHAR
STARTCHAR Zacute
ENCODING 377
SWIDTH 614 0
DWIDTH 15 0
BBX 15 23 0 0
BITMAP
0020
0070
00F0
01C0
0300
0000
7FFE
707E
607C
40F8
41F8
01F0
03E0
07E0
07C0
0F80
1F80
1F00
3E02
7E02
7C06
FC0E
FFFE
ENDCHAR
STARTCHAR zacute
ENCODING 378
SWIDTH 483 0
DWIDTH 12 0
BBX 11 19 0 0
BITMAP
0080
01C0
03C0
0700
0C00
0000
FFE0
C3E0
87C0
07C0
0F80
1F00
1F00
3E00
7C00
7C00
F820
F860
FFE0
ENDCHAR
STARTCHAR Zdotaccent
ENCODING 379
SWIDTH 614 0
DWIDTH 15 0
BBX 15 22 0 0
BITMAP
0180
03C0
03C0
0180
0000
7FFE
707E
607C
40F8
41F8
01F0
03E0
07E0
07C0
0F80
1F80
1F00
3E02
7E02
7C06
FC0E
FFFE
ENDCHAR
STARTCHAR zdotaccent
ENCODING 380
SWIDTH 483 0
DWIDTH 12 0
BBX 11 18 0 0
BITMAP
0600
0F00
0F00
0600
0000
FFE0
C3E0
87C0
07C0
0F80
1F00
1F00
3E00
7C00
7C00
F820
F860
FFE0
ENDCHAR
STARTCHAR Zcaron
ENCODING 381
SWIDTH 614 0
DWIDTH 16 0
BBX 15 21 0 0
BITMAP
1010
0C60
07C0
0380
0100
0000
7FFE
707C
60F8
41F8
01F0
03E0
07E0
07C0
0F80
1F80
1F00
3E02
7E06
7C0E
FFFE
ENDCHAR
STARTCHAR zcaron
ENCODING 382
SWIDTH 483 0
DWIDTH 12 0
BBX 11 19 0 0
BITMAP
4040
3180
1F00
0E00
0400
0000
FFE0
C3E0
87C0
07C0
0F80
1F00
1F00
3E00
7C00
7C00
F820
F860
FFE0
ENDCHAR
STARTCHAR uni0186
ENCODING 390
SWIDTH 689 0
DWIDTH 17 0
BBX 16 17 0 0
BITMAP
3FE0
F0F8
E07C
C03E
803E
801F
001F
001F
001F
001F
001F
801F
803E
C03E
E03C
F078
3FE0
ENDCHAR
STARTCHAR uni0189
ENCODING 393
SWIDTH 783 0
DWIDTH 19 0
BBX 18 17 0 0
BITMAP
FFF800
3E1E00
3E0F00
3E0F80
3E0F80
3E07C0
3E07C0
FFC7C0
3E07C0
3E07C0
3E07C0
3E07C0
3E0F80
3E0F80
3E0F00
3F1E00
FFF800
ENDCHAR
STARTCHAR uni018E
ENCODING 398
SWIDTH 629 0
DWIDTH 16 0
BBX 15 17 0 0
BITMAP
FFFE
E1F8
C0F8
80F8
80F8
00F8
00F8
10F8
18F8
1FF8
18F8
10F8
00F8
40F8
60F8
70F8
7FFE
ENDCHAR
STARTCHAR florin
ENCODING 402
SWIDTH 560 0
DWIDTH 14 0
BBX 14 20 -1 -3
BITMAP
0078
01DC
01CC
03C0
03C0
03C0
1FFC
0780
0780
0780
0780
0780
0F00
0F00
0F00
0F00
0F00
CE00
EE00
7800
ENDCHAR
STARTCHAR uni0197
ENCODING 407
SWIDTH 384 0
DWIDTH 10 0
BBX 9 17 0 0
BITMAP
FF80
3E00
3E00
3E00
3E00
3E00
3E00
3E00
FF80
3E00
3E00
3E00
3E00
3E00
3E00
3E00
FF80
ENDCHAR
STARTCHAR uni019A
ENCODING 410
SWIDTH 309 0
DWIDTH 8 0
BBX 9 19 -1 0
BITMAP
0E00
FE00
3E00
3E00
3E00
3E00
3E00
3E00
3E00
FF80
3E00
3E00
3E00
3E00
3E00
3E00
3E00
3E00
7F00
ENDCHAR
STARTCHAR uni019D
ENCODING 413
SWIDTH 739 0
DWIDTH 19 0
BBX 19 22 -1 -5
BITMAP
7F07E0
1F8180
1FC180
1FC180
1FE180
1BF180
1BF180
19F980
18FD80
18FD80
187F80
183F80
1F3F80
1F1F80
1F0F80
1F0F80
1F0780
1F0000
1F0000
1E0000
3E0000
F80000
ENDCHAR
STARTCHAR uni019F
ENCODING 415
SWIDTH 768 0
DWIDTH 19 0
BBX 18 17 0 0
BITMAP
07F800
1E1E00
3C0F00
7C0F80
7C0F80
F807C0
F807C0
F807C0
FFFFC0
F807C0
F807C0
F807C0
7C0F80
7C0F80
3C0F00
1E1E00
07F800
ENDCHAR
STARTCHAR Ohorn
ENCODING 416
SWIDTH 768 0
DWIDTH 19 0
BBX 20 17 0 0
BITMAP
07F860
1E1EF0
3C0FF0
7C0FF0
7C0FE0
F807E0
F807C0
F807C0
F807C0
F807C0
F807C0
F807C0
7C0F80
7C0F80
3C0F00
1E1E00
07F800
ENDCHAR
STARTCHAR ohorn
ENCODING 417
SWIDTH 585 0
DWIDTH 15 0
BBX 17 13 0 0
BITMAP
1FE300
7CFF80
7CFF80
F87F80
F87F00
F87F00
F87E00
F87C00
F87C00
F87C00
7CF800
7CF800
1FE000
ENDCHAR
STARTCHAR uni01A7
ENCODING 423
SWIDTH 561 0
DWIDTH 14 0
BBX 13 17 0 0
BITMAP
3FC0
71F0
60F0
40F8
00F8
01F8
07F8
0FF0
3FE0
7F80
FE00
FC08
F808
F818
7838
7CF8
1FE0
ENDCHAR
STARTCHAR uni01A8
ENCODING 424
SWIDTH 446 0
DWIDTH 11 0
BBX 10 13 0 0
BITMAP
7E00
E380
C3C0
87C0
1FC0
3F80
7F00
FE00
FC00
F840
F0C0
71C0
1F80
ENDCHAR
STARTCHAR uni01AE
ENCODING 430
SWIDTH 624 0
DWIDTH 16 0
BBX 15 22 0 -5
BITMAP
FFFE
E7CE
C7C6
87C2
07C0
07C0
07C0
07C0
07C0
07C0
07C0
07C0
07C0
07C0
07C0
07C0
07C0
07C0
07C0
03C0
03E0
00F8
ENDCHAR
STARTCHAR Uhorn
ENCODING 431
SWIDTH 786 0
DWIDTH 20 0
BBX 21 17 0 0
BITMAP
FFBFF0
3E0FF8
3E0FF8
3E0FF8
3E0FB0
3E0FB0
3E0FA0
3E0FC0
3E0F80
3E0F80
3E0F80
3E0F80
3E0F80
3E0F80
1E0F00
0F1E00
03F800
ENDCHAR
STARTCHAR uhorn
ENCODING 432
SWIDTH 629 0
DWIDTH 16 0
BBX 18 13 0 0
BITMAP
1C1D80
FCFFC0
7C7FC0
7C7FC0
7C7D80
7C7D80
7C7D00
7C7E00
7C7C00
7C7C00
7CFC00
3F7C00
1E7E00
ENDCHAR
STARTCHAR uni01B5
ENCODING 437
SWIDTH 614 0
DWIDTH 15 0
BBX 15 17 0 0
BITMAP
7FFE
707E
607C
40F8
41F8
01F0
03E0
07E0
1FF0
0F80
1F80
1F00
3E02
7E02
7C06
FC0E
FFFE
ENDCHAR
STARTCHAR uni01B6
ENCODING 438
SWIDTH 483 0
DWIDTH 12 0
BBX 11 13 0 0
BITMAP
FFE0
C3E0
87C0
07C0
0F80
1F00
7FC0
3E00
7C00
7C00
F820
F860
FFE0
ENDCHAR
STARTCHAR uni01BB
ENCODING 443
SWIDTH 560 0
DWIDTH 14 0
BBX 13 17 0 0
BITMAP
1F80
7BE0
F1F0
F1F0
61F0
01F0
01F0
03E0
FFF8
0780
0E00
1800
3008
7018
FFF0
FFF0
FFF0
ENDCHAR
STARTCHAR uni01BC
ENCODING 444
SWIDTH 560 0
DWIDTH 14 0
BBX 13 17 0 0
BITMAP
7FF0
7FF0
7FE0
6000
6000
6000
6FC0
71F0
60F8
00F8
00F8
00F8
60F8
F0F8
F0F0
79F0
1FC0
ENDCHAR
STARTCHAR uni01C0
ENCODING 448
SWIDTH 284 0
DWIDTH 7 0
BBX 2 17 2 0
BITMAP
C0
C0
C0
C0
C0
C0
C0
C0
C0
C0
C0
C0
C0
C0
C0
C0
C0
ENDCHAR
STARTCHAR uni01C2
ENCODING 450
SWIDTH 600 0
DWIDTH 15 0
BBX 12 17 1 -2
BITMAP
0600
0600
0600
0600
0600
FFF0
FFF0
0600
0600
0600
FFF0
FFF0
0600
0600
0600
0600
0600
ENDCHAR
STARTCHAR uni01C3
ENCODING 451
SWIDTH 278 0
DWIDTH 7 0
BBX 6 17 0 0
BITMAP
78
FC
FC
FC
78
78
78
78
30
30
30
00
30
78
78
78
30
ENDCHAR
STARTCHAR uni01CD
ENCODING 461
SWIDTH 644 0
DWIDTH 16 0
BBX 18 23 -1 0
BITMAP
040400
031800
01F000
00E000
004000
000000
01E000
01E000
03F000
03F000
03F000
06F800
06F800
06F800
0C7C00
0C7C00
0FFC00
183E00
183E00
183E00
301F00
301F00
FC7FC0
ENDCHAR
STARTCHAR uni01CE
ENCODING 462
SWIDTH 544 0
DWIDTH 14 0
BBX 14 19 0 0
BITMAP
2020
18C0
0F80
0700
0200
0000
3FC0
FBE0
F1F0
61F0
03F0
07F0
19F0
71F0
F1F0
F1F0
F9F0
FFFC
7CF0
ENDCHAR
STARTCHAR uni01CF
ENCODING 463
SWIDTH 384 0
DWIDTH 10 0
BBX 9 23 0 0
BITMAP
8080
6300
3E00
1C00
0800
0000
FF80
3E00
3E00
3E00
3E00
3E00
3E00
3E00
3E00
3E00
3E00
3E00
3E00
3E00
3E00
3E00
FF80
ENDCHAR
STARTCHAR uni01D0
ENCODING 464
SWIDTH 316 0
DWIDTH 8 0
BBX 9 19 -1 0
BITMAP
8080
6300
3E00
1C00
0800
0000
0E00
7E00
3E00
3E00
3E00
3E00
3E00
3E00
3E00
3E00
3E00
3E00
7F00
ENDCHAR
STARTCHAR uni01D1
ENCODING 465
SWIDTH 768 0
DWIDTH 19 0
BBX 18 23 0 0
BITMAP
040400
031800
01F000
00E000
004000
000000
07F800
1E1E00
3C0F00
7C0F80
7C0F80
F807C0
F807C0
F807C0
F807C0
F807C0
F807C0
F807C0
7C0F80
7C0F80
3C0F00
1E1E00
07F800
ENDCHAR
STARTCHAR uni01D2
ENCODING 466
SWIDTH 585 0
DWIDTH 15 0
BBX 14 19 0 0
BITMAP
1010
0C60
07C0
0380
0100
0000
1FE0
7CF8
7CF8
F87C
F87C
F87C
F87C
F87C
F87C
F87C
7CF8
7CF8
1FE0
ENDCHAR
STARTCHAR uni01D3
ENCODING 467
SWIDTH 786 0
DWIDTH 20 0
BBX 19 23 0 0
BITMAP
040400
031800
01F000
00E000
004000
000000
FFBFE0
3E0F80
3E0F80
3E0F80
3E0F80
3E0F80
3E0F80
3E0F80
3E0F80
3E0F80
3E0F80
3E0F80
3E0F80
3E0F80
1E0F00
0F1E00
03F800
ENDCHAR
STARTCHAR uni01D4
ENCODING 468
SWIDTH 629 0
DWIDTH 16 0
BBX 15 19 0 0
BITMAP
1010
0C60
07C0
0380
0100
0000
1C1C
FCFC
7C7C
7C7C
7C7C
7C7C
7C7C
7C7C
7C7C
7C7C
7CFC
3F7C
1E7E
ENDCHAR
STARTCHAR uni01D5
ENCODING 469
SWIDTH 786 0
DWIDTH 20 0
BBX 19 23 0 0
BITMAP
07F800
07F800
000000
063000
0F7800
0F7800
063000
000000
FFBFE0
3E0F80
3E0F80
3E0F80
3E0F80
3E0F80
3E0F80
3E0F80
3E0F80
3E0F80
3E0F80
3E0F80
1E0F00
0F1E00
03F800
ENDCHAR
STARTCHAR uni01D6
ENCODING 470
SWIDTH 629 0
DWIDTH 16 0
BBX 15 21 0 0
BITMAP
0FF0
0FF0
0000
0C60
1EF0
1EF0
0C60
0000
1C1C
FCFC
7C7C
7C7C
7C7C
7C7C
7C7C
7C7C
7C7C
7C7C
7CFC
3F7C
1E7E
ENDCHAR
STARTCHAR uni01D7
ENCODING 471
SWIDTH 786 0
DWIDTH 20 0
BBX 19 26 0 0
BITMAP
001000
003800
007800
00E000
018000
000000
063000
0F7800
0F7800
063000
000000
FFBFE0
3E0F80
3E0F80
3E0F80
3E0F80
3E0F80
3E0F80
3E0F80
3E0F80
3E0F80
3E0F80
3E0F80
1E0F00
0F1E00
03F800
ENDCHAR
STARTCHAR uni01D8
ENCODING 472
SWIDTH 629 0
DWIDTH 16 0
BBX 15 24 0 0
BITMAP
0040
00E0
01E0
0380
0600
0000
0C60
1EF0
1EF0
0C60
0000
1C1C
FCFC
7C7C
7C7C
7C7C
7C7C
7C7C
7C7C
7C7C
7C7C
7CFC
3F7C
1E7E
ENDCHAR
STARTCHAR uni01D9
ENCODING 473
SWIDTH 786 0
DWIDTH 20 0
BBX 19 26 0 0
BITMAP
040400
031800
01F000
00E000
004000
000000
063000
0F7800
0F7800
063000
000000
FFBFE0
3E0F80
3E0F80
3E0F80
3E0F80
3E0F80
3E0F80
3E0F80
3E0F80
3E0F80
3E0F80
3E0F80
1E0F00
0F1E00
03F800
ENDCHAR
STARTCHAR uni01DA
ENCODING 474
SWIDTH 629 0
DWIDTH 16 0
BBX 15 24 0 0
BITMAP
1010
0C60
07C0
0380
0100
0000
0C60
1EF0
1EF0
0C60
0000
1C1C
FCFC
7C7C
7C7C
7C7C
7C7C
7C7C
7C7C
7C7C
7C7C
7CFC
3F7C
1E7E
ENDCHAR
STARTCHAR uni01DB
ENCODING 475
SWIDTH 786 0
DWIDTH 20 0
BBX 19 26 0 0
BITMAP
020000
070000
078000
01C000
006000
000000
063000
0F7800
0F7800
063000
000000
FFBFE0
3E0F80
3E0F80
3E0F80
3E0F80
3E0F80
3E0F80
3E0F80
3E0F80
3E0F80
3E0F80
3E0F80
1E0F00
0F1E00
03F800
ENDCHAR
STARTCHAR uni01DC
ENCODING 476
SWIDTH 629 0
DWIDTH 16 0
BBX 15 24 0 0
BITMAP
0400
0E00
0F00
0380
00C0
0000
0C60
1EF0
1EF0
0C60
0000
1C1C
FCFC
7C7C
7C7C
7C7C
7C7C
7C7C
7C7C
7C7C
7C7C
7CFC
3F7C
1E7E
ENDCHAR
STARTCHAR uni01DD
ENCODING 477
SWIDTH 519 0
DWIDTH 13 0
BBX 12 13 0 0
BITMAP
3F80
E3E0
83E0
01F0
01F0
01F0
01F0
01F0
FFF0
F1F0
F3E0
7BE0
3F80
ENDCHAR
STARTCHAR uni01DE
ENCODING 478
SWIDTH 644 0
DWIDTH 16 0
BBX 18 23 -1 0
BITMAP
07F800
07F800
000000
063000
0F7800
0F7800
063000
000000
01E000
01E000
03F000
03F000
03F000
06F800
06F800
0C7C00
0C7C00
0FFC00
183E00
183E00
301F00
301F00
FC7FC0
ENDCHAR
STARTCHAR uni01DF
ENCODING 479
SWIDTH 544 0
DWIDTH 14 0
BBX 14 21 0 0
BITMAP
1FE0
1FE0
0000
18C0
3DE0
3DE0
18C0
0000
3FC0
FBE0
F1F0
61F0
03F0
07F0
19F0
71F0
F1F0
F1F0
F9F0
FFFC
7CF0
ENDCHAR
STARTCHAR uni01E0
ENCODING 480
SWIDTH 644 0
DWIDTH 16 0
BBX 18 25 -1 0
BITMAP
07F800
07F800
000000
00C000
01E000
01E000
00C000
000000
01E000
01E000
03F000
03F000
03F000
06F800
06F800
06F800
0C7C00
0C7C00
0FFC00
183E00
183E00
183E00
301F00
301F00
FC7FC0
ENDCHAR
STARTCHAR uni01E1
ENCODING 481
SWIDTH 544 0
DWIDTH 14 0
BBX 14 21 0 0
BITMAP
3FC0
3FC0
0000
0600
0F00
0F00
0600
0000
3FC0
FBE0
F1F0
61F0
03F0
07F0
19F0
71F0
F1F0
F1F0
F9F0
FFFC
7CF0
ENDCHAR
STARTCHAR uni01E2
ENCODING 482
SWIDTH 879 0
DWIDTH 23 0
BBX 23 20 -1 0
BITMAP
007F80
007F80
000000
03FFFC
00FE1C
00FE0C
01BE04
01BE00
01BE10
033E30
033FF0
063E30
07FE10
063E10
0C3E00
0C3E02
183E02
183E06
383F0E
FEFFFE
ENDCHAR
STARTCHAR uni01E3
ENCODING 483
SWIDTH 806 0
DWIDTH 20 0
BBX 19 16 0 0
BITMAP
03FC00
03FC00
000000
3FBF80
FBFBC0
F1F9E0
61F1E0
03FFE0
07F000
19F000
71F000
F1F000
F1F000
F9F820
FFF8E0
7C3F80
ENDCHAR
STARTCHAR uni01E4
ENCODING 484
SWIDTH 726 0
DWIDTH 18 0
BBX 19 17 0 0
BITMAP
07FC00
1E0F00
3C0700
7C0300
7C0100
F80100
F80000
F80000
F80000
F80000
F87F80
F81F00
7C3FE0
7C1F00
3E1F00
1F1F00
07F800
ENDCHAR
STARTCHAR uni01E5
ENCODING 485
SWIDTH 533 0
DWIDTH 14 0
BBX 14 19 0 -5
BITMAP
001C
1FFC
7DF0
F8F8
F8F8
F8F8
F8F8
7DF0
1FC0
0C00
1F00
3FE0
3FF8
1FFC
FFFC
F03C
F03C
7878
1FE0
ENDCHAR
STARTCHAR Gcaron
ENCODING 486
SWIDTH 726 0
DWIDTH 18 0
BBX 17 23 0 0
BITMAP
080800
063000
03E000
01C000
008000
000000
07FC00
1E0F00
3C0700
7C0300
7C0100
F80100
F80000
F80000
F80000
F80000
F87F80
F81F00
7C1F00
7C1F00
3E1F00
1F1F00
07F800
ENDCHAR
STARTCHAR gcaron
ENCODING 487
SWIDTH 533 0
DWIDTH 14 0
BBX 14 25 0 -5
BITMAP
1010
0C60
07C0
0380
0100
0000
001C
1FFC
7DF0
F8F8
F8F8
F8F8
F8F8
7DF0
1FC0
0C00
1F00
3FE0
3FF8
1FFC
71FC
F03C
F03C
7878
1FE0
ENDCHAR
STARTCHAR uni01E8
ENCODING 488
SWIDTH 707 0
DWIDTH 18 0
BBX 19 23 0 0
BITMAP
080800
063000
03E000
01C000
008000
000000
FF8FC0
3E0700
3E0600
3E0C00
3E1800
3E3000
3E7000
3EF000
3FF800
3EFC00
3E7C00
3E3E00
3E3F00
3E1F00
3E0F80
3E0FC0
FF87E0
ENDCHAR
STARTCHAR uni01E9
ENCODING 489
SWIDTH 582 0
DWIDTH 15 0
BBX 16 25 -1 0
BITMAP
4040
3180
1F00
0E00
0400
0000
1E00
FE00
3E00
3E00
3E00
3E00
3E1E
3E3C
3E38
3E70
3EE0
3FC0
3FE0
3EF0
3EF8
3E78
3E7C
3E3E
7F1F
ENDCHAR
STARTCHAR uni01EA
ENCODING 490
SWIDTH 768 0
DWIDTH 19 0
BBX 18 22 0 -5
BITMAP
07F800
1E1E00
3C0F00
7C0F80
7C0F80
F807C0
F807C0
F807C0
F807C0
F807C0
F807C0
F807C0
7C0F80
7C0F80
3C0F00
1E1E00
07F800
00E000
01C000
038000
039000
01E000
ENDCHAR
STARTCHAR uni01EB
ENCODING 491
SWIDTH 585 0
DWIDTH 15 0
BBX 14 18 0 -5
BITMAP
1FE0
7CF8
7CF8
F87C
F87C
F87C
F87C
F87C
F87C
F87C
7CF8
7CF8
1FE0
0380
0700
0E00
0E40
0780
ENDCHAR
STARTCHAR uni01EC
ENCODING 492
SWIDTH 768 0
DWIDTH 19 0
BBX 18 25 0 -5
BITMAP
07F800
07F800
000000
07F800
1E1E00
3C0F00
7C0F80
7C0F80
F807C0
F807C0
F807C0
F807C0
F807C0
F807C0
F807C0
7C0F80
7C0F80
3C0F00
1E1E00
07F800
00E000
01C000
038000
039000
01E000
ENDCHAR
STARTCHAR uni01ED
ENCODING 493
SWIDTH 585 0
DWIDTH 15 0
BBX 14 21 0 -5
BITMAP
1FE0
1FE0
0000
1FE0
7CF8
7CF8
F87C
F87C
F87C
F87C
F87C
F87C
F87C
7CF8
7CF8
1FE0
0380
0700
0E00
0E40
0780
ENDCHAR
STARTCHAR uni01F0
ENCODING 496
SWIDTH 316 0
DWIDTH 8 0
BBX 9 24 -2 -5
BITMAP
8080
6300
3E00
1C00
0800
0000
0F00
3F00
1F00
1F00
1F00
1F00
1F00
1F00
1F00
1F00
1F00
1F00
1F00
1F00
1F00
1E00
3E00
F800
ENDCHAR
STARTCHAR uni01F4
ENCODING 500
SWIDTH 726 0
DWIDTH 18 0
BBX 17 23 0 0
BITMAP
002000
007000
00F000
01C000
030000
000000
07FC00
1E0F00
3C0700
7C0300
7C0100
F80100
F80000
F80000
F80000
F80000
F87F80
F81F00
7C1F00
7C1F00
3E1F00
1F1F00
07F800
ENDCHAR
STARTCHAR uni01F5
ENCODING 501
SWIDTH 533 0
DWIDTH 14 0
BBX 14 25 0 -5
BITMAP
0040
00E0
01E0
0380
0600
0000
001C
1FFC
7DF0
F8F8
F8F8
F8F8
F8F8
7DF0
1FC0
0C00
1F00
3FE0
3FF8
1FFC
71FC
F03C
F03C
7878
1FE0
ENDCHAR
STARTCHAR uni01F8
ENCODING 504
SWIDTH 739 0
DWIDTH 19 0
BBX 18 23 0 0
BITMAP
020000
070000
078000
01C000
006000
000000
FE0FC0
3F0300
3F8300
3F8300
3FC300
37E300
37E300
33F300
31FB00
31FB00
30FF00
307F00
307F00
303F00
301F00
301F00
FC0F00
ENDCHAR
STARTCHAR uni01F9
ENCODING 505
SWIDTH 638 0
DWIDTH 16 0
BBX 15 19 0 0
BITMAP
0400
0E00
0F00
0380
00C0
0000
1CF0
FDF8
7E7C
7C7C
7C7C
7C7C
7C7C
7C7C
7C7C
7C7C
7C7C
7C7C
FE7E
ENDCHAR
STARTCHAR Aringacute
ENCODING 506
SWIDTH 644 0
DWIDTH 16 0
BBX 18 27 -1 0
BITMAP
001000
003800
007800
00E000
018000
000000
01E000
033000
033000
033000
01E000
000000
01E000
01E000
03F000
03F000
03F000
06F800
06F800
0C7C00
0C7C00
0FFC00
183E00
183E00
301F00
301F00
FC7FC0
ENDCHAR
STARTCHAR aringacute
ENCODING 507
SWIDTH 544 0
DWIDTH 14 0
BBX 14 25 0 0
BITMAP
0080
01C0
03C0
0700
0C00
0000
0F00
1980
1980
1980
0F00
0000
3FC0
FBE0
F1F0
61F0
03F0
07F0
19F0
71F0
F1F0
F1F0
F9F0
FFFC
7CF0
ENDCHAR
STARTCHAR AEacute
ENCODING 508
SWIDTH 879 0
DWIDTH 23 0
BBX 23 23 -1 0
BITMAP
000200
000700
000F00
001C00
003000
000000
03FFFC
00FE1C
00FE0C
01BE04
01BE00
01BE10
033E30
033FF0
063E30
07FE10
063E10
0C3E00
0C3E02
183E02
183E06
383F0E
FEFFFE
ENDCHAR
STARTCHAR aeacute
ENCODING 509
SWIDTH 806 0
DWIDTH 20 0
BBX 19 19 0 0
BITMAP
001000
003800
007800
00E000
018000
000000
3FBF80
FBFBC0
F1F9E0
61F1E0
03FFE0
07F000
19F000
71F000
F1F000
F1F000
F9F820
FFF8E0
7C3F80
ENDCHAR
STARTCHAR Oslashacute
ENCODING 510
SWIDTH 768 0
DWIDTH 19 0
BBX 18 25 0 -1
BITMAP
001000
003800
007800
00E000
018000
000000
000100
07FB00
1E1E00
3C0F00
7C0F80
7C1F80
F837C0
F867C0
F847C0
F887C0
F987C0
FB07C0
FA07C0
7C0F80
7C0F80
3C0F00
3E1E00
67F800
400000
ENDCHAR
STARTCHAR oslashacute
ENCODING 511
SWIDTH 585 0
DWIDTH 15 0
BBX 14 19 0 0
BITMAP
0040
00E0
01E0
0380
0600
0000
1FE4
7CF8
7CF8
F87C
F8FC
F97C
F97C
FA7C
FC7C
F87C
7CF8
7CF8
9FE0
ENDCHAR
STARTCHAR uni0200
ENCODING 512
SWIDTH 644 0
DWIDTH 16 0
BBX 18 23 -1 0
BITMAP
0CC000
0EE000
066000
033000
011000
000000
01E000
01E000
03F000
03F000
03F000
06F800
06F800
06F800
0C7C00
0C7C00
0FFC00
183E00
183E00
183E00
301F00
301F00
FC7FC0
ENDCHAR
STARTCHAR uni0201
ENCODING 513
SWIDTH 544 0
DWIDTH 14 0
BBX 14 19 0 0
BITMAP
3300
3B80
1980
0CC0
0440
0000
3FC0
FBE0
F1F0
61F0
03F0
07F0
19F0
71F0
F1F0
F1F0
F9F0
FFFC
7CF0
ENDCHAR
STARTCHAR uni0202
ENCODING 514
SWIDTH 644 0
DWIDTH 16 0
BBX 18 22 -1 0
BITMAP
01E000
03F000
061800
040800
000000
01E000
01E000
03F000
03F000
03F000
06F800
06F800
06F800
0C7C00
0C7C00
0FFC00
183E00
183E00
183E00
301F00
301F00
FC7FC0
ENDCHAR
STARTCHAR uni0203
ENCODING 515
SWIDTH 544 0
DWIDTH 14 0
BBX 14 18 0 0
BITMAP
0F00
1F80
30C0
2040
0000
3FC0
FBE0
F1F0
61F0
03F0
07F0
19F0
71F0
F1F0
F1F0
F9F0
FFFC
7CF0
ENDCHAR
STARTCHAR uni0204
ENCODING 516
SWIDTH 629 0
DWIDTH 16 0
BBX 15 23 0 0
BITMAP
3300
3B80
1980
0CC0
0440
0000
FFFC
3E1C
3E0C
3E04
3E00
3E10
3E30
3FF0
3E30
3E10
3E00
3E00
3E02
3E02
3E06
3F0E
FFFE
ENDCHAR
STARTCHAR uni0205
ENCODING 517
SWIDTH 519 0
DWIDTH 13 0
BBX 12 19 0 0
BITMAP
6600
7700
3300
1980
0880
0000
1FC0
7DE0
7CF0
F8F0
FFF0
F800
F800
F800
F800
F800
7C10
7C70
1FC0
ENDCHAR
STARTCHAR uni0206
ENCODING 518
SWIDTH 629 0
DWIDTH 16 0
BBX 15 22 0 0
BITMAP
0780
0FC0
1860
1020
0000
FFFC
3E1C
3E0C
3E04
3E00
3E10
3E30
3FF0
3E30
3E10
3E00
3E00
3E02
3E02
3E06
3F0E
FFFE
ENDCHAR
STARTCHAR uni0207
ENCODING 519
SWIDTH 519 0
DWIDTH 13 0
BBX 12 18 0 0
BITMAP
0F00
1F80
30C0
2040
0000
1FC0
7DE0
7CF0
F8F0
FFF0
F800
F800
F800
F800
F800
7C10
7C70
1FC0
ENDCHAR
STARTCHAR uni0208
ENCODING 520
SWIDTH 384 0
DWIDTH 10 0
BBX 9 23 0 0
BITMAP
CC00
EE00
6600
3300
1100
0000
FF80
3E00
3E00
3E00
3E00
3E00
3E00
3E00
3E00
3E00
3E00
3E00
3E00
3E00
3E00
3E00
FF80
ENDCHAR
STARTCHAR uni0209
ENCODING 521
SWIDTH 316 0
DWIDTH 8 0
BBX 8 19 -1 0
BITMAP
CC
EE
66
33
11
00
0E
7E
3E
3E
3E
3E
3E
3E
3E
3E
3E
3E
7F
ENDCHAR
STARTCHAR uni020A
ENCODING 522
SWIDTH 384 0
DWIDTH 10 0
BBX 9 22 0 0
BITMAP
1E00
3F00
6180
4080
0000
FF80
3E00
3E00
3E00
3E00
3E00
3E00
3E00
3E00
3E00
3E00
3E00
3E00
3E00
3E00
3E00
FF80
ENDCHAR
STARTCHAR uni020B
ENCODING 523
SWIDTH 316 0
DWIDTH 8 0
BBX 8 18 0 0
BITMAP
3C
7E
C3
81
00
1C
FC
7C
7C
7C
7C
7C
7C
7C
7C
7C
7C
FE
ENDCHAR
STARTCHAR uni020C
ENCODING 524
SWIDTH 768 0
DWIDTH 19 0
BBX 18 23 0 0
BITMAP
0CC000
0EE000
066000
033000
011000
000000
07F800
1E1E00
3C0F00
7C0F80
7C0F80
F807C0
F807C0
F807C0
F807C0
F807C0
F807C0
F807C0
7C0F80
7C0F80
3C0F00
1E1E00
07F800
ENDCHAR
STARTCHAR uni020D
ENCODING 525
SWIDTH 585 0
DWIDTH 15 0
BBX 14 19 0 0
BITMAP
3300
3B80
1980
0CC0
0440
0000
1FE0
7CF8
7CF8
F87C
F87C
F87C
F87C
F87C
F87C
F87C
7CF8
7CF8
1FE0
ENDCHAR
STARTCHAR uni020E
ENCODING 526
SWIDTH 768 0
DWIDTH 19 0
BBX 18 22 0 0
BITMAP
01E000
03F000
061800
040800
000000
07F800
1E1E00
3C0F00
7C0F80
7C0F80
F807C0
F807C0
F807C0
F807C0
F807C0
F807C0
F807C0
7C0F80
7C0F80
3C0F00
1E1E00
07F800
ENDCHAR
STARTCHAR uni020F
ENCODING 527
SWIDTH 585 0
DWIDTH 15 0
BBX 14 18 0 0
BITMAP
0780
0FC0
1860
1020
0000
1FE0
7CF8
7CF8
F87C
F87C
F87C
F87C
F87C
F87C
F87C
7CF8
7CF8
1FE0
ENDCHAR
STARTCHAR uni0210
ENCODING 528
SWIDTH 684 0
DWIDTH 17 0
BBX 18 23 -1 0
BITMAP
0CC000
0EE000
066000
033000
011000
000000
FFF800
3E3E00
3E1F00
3E1F00
3E1F00
3E1F00
3E1E00
3E3C00
3FF000
3EF800
3E7C00
3E7E00
3E3E00
3E3F00
3E3F00
3F1F80
FF8FC0
ENDCHAR
STARTCHAR uni0211
ENCODING 529
SWIDTH 440 0
DWIDTH 11 0
BBX 12 19 0 0
BITMAP
6600
7700
3300
1980
0880
0000
1CE0
FDF0
7FF0
7CE0
7C00
7C00
7C00
7C00
7C00
7C00
7C00
7C00
FE00
ENDCHAR
STARTCHAR uni0212
ENCODING 530
SWIDTH 684 0
DWIDTH 17 0
BBX 18 22 -1 0
BITMAP
01E000
03F000
061800
040800
000000
FFF800
3E3E00
3E1F00
3E1F00
3E1F00
3E1F00
3E1E00
3E3C00
3FF000
3EF800
3E7C00
3E7E00
3E3E00
3E3F00
3E3F00
3F1F80
FF8FC0
ENDCHAR
STARTCHAR uni0213
ENCODING 531
SWIDTH 440 0
DWIDTH 11 0
BBX 12 18 0 0
BITMAP
0F00
1F80
30C0
2040
0000
1CE0
FDF0
7FF0
7CE0
7C00
7C00
7C00
7C00
7C00
7C00
7C00
7C00
FE00
ENDCHAR
STARTCHAR uni0214
ENCODING 532
SWIDTH 786 0
DWIDTH 20 0
BBX 19 23 0 0
BITMAP
066000
077000
033000
019800
008800
000000
FFBFE0
3E0F80
3E0F80
3E0F80
3E0F80
3E0F80
3E0F80
3E0F80
3E0F80
3E0F80
3E0F80
3E0F80
3E0F80
3E0F80
1E0F00
0F1E00
03F800
ENDCHAR
STARTCHAR uni0215
ENCODING 533
SWIDTH 629 0
DWIDTH 16 0
BBX 15 19 0 0
BITMAP
1980
1DC0
0CC0
0660
0220
0000
1C1C
FCFC
7C7C
7C7C
7C7C
7C7C
7C7C
7C7C
7C7C
7C7C
7CFC
3F7C
1E7E
ENDCHAR
STARTCHAR uni0216
ENCODING 534
SWIDTH 786 0
DWIDTH 20 0
BBX 19 22 0 0
BITMAP
00F000
01F800
030C00
020400
000000
FFBFE0
3E0F80
3E0F80
3E0F80
3E0F80
3E0F80
3E0F80
3E0F80
3E0F80
3E0F80
3E0F80
3E0F80
3E0F80
3E0F80
1E0F00
0F1E00
03F800
ENDCHAR
STARTCHAR uni0217
ENCODING 535
SWIDTH 629 0
DWIDTH 16 0
BBX 15 18 0 0
BITMAP
03C0
07E0
0C30
0810
0000
1C1C
FCFC
7C7C
7C7C
7C7C
7C7C
7C7C
7C7C
7C7C
7C7C
7CFC
3F7C
1E7E
ENDCHAR
STARTCHAR Scommaaccent
ENCODING 536
SWIDTH 561 0
DWIDTH 14 0
BBX 13 26 0 -9
BITMAP
1FE0
7C70
7830
F810
F800
FC00
FF00
7F80
3FE0
0FF0
03F8
81F8
80F8
C0F8
E0F0
F9F0
3FC0
0000
0300
0780
0780
0780
0300
0300
0200
0400
ENDCHAR
STARTCHAR scommaaccent
ENCODING 537
SWIDTH 446 0
DWIDTH 11 0
BBX 10 22 0 -9
BITMAP
1F80
71C0
F0C0
F840
FE00
7F00
3F80
1FC0
0FC0
87C0
C3C0
E380
7E00
0000
0C00
1E00
1E00
1E00
0C00
0C00
0800
1000
ENDCHAR
STARTCHAR Tcommaaccent
ENCODING 538
SWIDTH 624 0
DWIDTH 16 0
BBX 15 26 0 -9
BITMAP
FFFE
E7CE
C7C6
87C2
07C0
07C0
07C0
07C0
07C0
07C0
07C0
07C0
07C0
07C0
07C0
07C0
1FF0
0000
0180
03C0
03C0
03C0
0180
0180
0100
0200
ENDCHAR
STARTCHAR tcommaaccent
ENCODING 539
SWIDTH 370 0
DWIDTH 9 0
BBX 9 25 0 -9
BITMAP
0C00
1C00
3C00
FF80
7C00
7C00
7C00
7C00
7C00
7C00
7C00
7C00
7C00
7C80
3F80
1F00
0000
0C00
1E00
1E00
1E00
0C00
0C00
0800
1000
ENDCHAR
STARTCHAR uni021E
ENCODING 542
SWIDTH 807 0
DWIDTH 20 0
BBX 19 23 0 0
BITMAP
040400
031800
01F000
00E000
004000
000000
FFBFE0
3E0F80
3E0F80
3E0F80
3E0F80
3E0F80
3E0F80
3E0F80
3FFF80
3E0F80
3E0F80
3E0F80
3E0F80
3E0F80
3E0F80
3E0F80
FFBFE0
ENDCHAR
STARTCHAR uni021F
ENCODING 543
SWIDTH 631 0
DWIDTH 16 0
BBX 16 25 -1 0
BITMAP
4040
3180
1F00
0E00
0400
0000
0E00
FE00
3E00
3E00
3E00
3E00
3E78
3EFC
3F3E
3E3E
3E3E
3E3E
3E3E
3E3E
3E3E
3E3E
3E3E
3E3E
7F3F
ENDCHAR
STARTCHAR uni0226
ENCODING 550
SWIDTH 644 0
DWIDTH 16 0
BBX 18 22 -1 0
BITMAP
00C000
01E000
01E000
00C000
000000
01E000
01E000
03F000
03F000
03F000
06F800
06F800
06F800
0C7C00
0C7C00
0FFC00
183E00
183E00
183E00
301F00
301F00
FC7FC0
ENDCHAR
STARTCHAR uni0227
ENCODING 551
SWIDTH 544 0
DWIDTH 14 0
BBX 14 18 0 0
BITMAP
0600
0F00
0F00
0600
0000
3FC0
FBE0
F1F0
61F0
03F0
07F0
19F0
71F0
F1F0
F1F0
F9F0
FFFC
7CF0
ENDCHAR
STARTCHAR uni0228
ENCODING 552
SWIDTH 629 0
DWIDTH 16 0
BBX 15 22 0 -5
BITMAP
FFFC
3E1C
3E0C
3E04
3E00
3E10
3E30
3FF0
3E30
3E10
3E00
3E00
3E02
3E02
3E06
3F0E
FFFE
0100
0380
01C0
01C0
0780
ENDCHAR
STARTCHAR uni0229
ENCODING 553
SWIDTH 519 0
DWIDTH 13 0
BBX 12 18 0 -5
BITMAP
1FC0
7DE0
7CF0
F8F0
FFF0
F800
F800
F800
F800
F800
7C10
7C70
1FC0
0400
0E00
0700
0700
1E00
ENDCHAR
STARTCHAR uni022A
ENCODING 554
SWIDTH 768 0
DWIDTH 19 0
BBX 18 23 0 0
BITMAP
07F800
07F800
000000
063000
0F7800
0F7800
063000
000000
07F800
1E1E00
3C0F00
7C0F80
7C0F80
F807C0
F807C0
F807C0
F807C0
F807C0
7C0F80
7C0F80
3C0F00
1E1E00
07F800
ENDCHAR
STARTCHAR uni022B
ENCODING 555
SWIDTH 585 0
DWIDTH 15 0
BBX 14 21 0 0
BITMAP
1FE0
1FE0
0000
18C0
3DE0
3DE0
18C0
0000
1FE0
7CF8
7CF8
F87C
F87C
F87C
F87C
F87C
F87C
F87C
7CF8
7CF8
1FE0
ENDCHAR
STARTCHAR uni022C
ENCODING 556
SWIDTH 768 0
DWIDTH 19 0
BBX 18 22 0 0
BITMAP
07F800
07F800
000000
031800
07F000
0C6000
000000
07F800
1E1E00
3C0F00
7C0F80
7C0F80
F807C0
F807C0
F807C0
F807C0
F807C0
7C0F80
7C0F80
3C0F00
1E1E00
07F800
ENDCHAR
STARTCHAR uni022D
ENCODING 557
SWIDTH 585 0
DWIDTH 15 0
BBX 14 20 0 0
BITMAP
1FE0
1FE0
0000
0C60
1FC0
3180
0000
1FE0
7CF8
7CF8
F87C
F87C
F87C
F87C
F87C
F87C
F87C
7CF8
7CF8
1FE0
ENDCHAR
STARTCHAR uni022E
ENCODING 558
SWIDTH 768 0
DWIDTH 19 0
BBX 18 22 0 0
BITMAP
00C000
01E000
01E000
00C000
000000
07F800
1E1E00
3C0F00
7C0F80
7C0F80
F807C0
F807C0
F807C0
F807C0
F807C0
F807C0
F807C0
7C0F80
7C0F80
3C0F00
1E1E00
07F800
ENDCHAR
STARTCHAR uni022F
ENCODING 559
SWIDTH 585 0
DWIDTH 15 0
BBX 14 18 0 0
BITMAP
0300
0780
0780
0300
0000
1FE0
7CF8
7CF8
F87C
F87C
F87C
F87C
F87C
F87C
F87C
7CF8
7CF8
1FE0
ENDCHAR
STARTCHAR uni0230
ENCODING 560
SWIDTH 768 0
DWIDTH 19 0
BBX 18 25 0 0
BITMAP
07F800
07F800
000000
00C000
01E000
01E000
00C000
000000
07F800
1E1E00
3C0F00
7C0F80
7C0F80
F807C0
F807C0
F807C0
F807C0
F807C0
F807C0
F807C0
7C0F80
7C0F80
3C0F00
1E1E00
07F800
ENDCHAR
STARTCHAR uni0231
ENCODING 561
SWIDTH 585 0
DWIDTH 15 0
BBX 14 21 0 0
BITMAP
1FE0
1FE0
0000
0300
0780
0780
0300
0000
1FE0
7CF8
7CF8
F87C
F87C
F87C
F87C
F87C
F87C
F87C
7CF8
7CF8
1FE0
ENDCHAR
STARTCHAR uni0232
ENCODING 562
SWIDTH 617 0
DWIDTH 15 0
BBX 17 20 -1 0
BITMAP
0FF000
0FF000
000000
FF9F80
3E0600
3E0600
1F0C00
1F0C00
0F9800
0F9800
07F000
07F000
03E000
03E000
03E000
03E000
03E000
03E000
03E000
0FF800
ENDCHAR
STARTCHAR uni0233
ENCODING 563
SWIDTH 524 0
DWIDTH 13 0
BBX 14 21 -1 -5
BITMAP
3FC0
3FC0
0000
FE3C
7C18
7C10
3E30
3E20
3E20
1F60
1F40
1F40
0FC0
0F80
0F80
0780
0700
6700
F600
F400
7800
ENDCHAR
STARTCHAR uni0250
ENCODING 592
SWIDTH 544 0
DWIDTH 14 0
BBX 14 13 0 0
BITMAP
3CF8
FFFC
3E7C
3E3C
3E3C
3E38
3E60
3F80
3F00
3E18
3E3C
1F7C
0FF0
ENDCHAR
STARTCHAR uni0254
ENCODING 596
SWIDTH 494 0
DWIDTH 13 0
BBX 12 13 0 0
BITMAP
3F80
F3E0
F3E0
61F0
01F0
01F0
01F0
01F0
01F0
01F0
83E0
E3E0
3F80
ENDCHAR
STARTCHAR uni0258
ENCODING 600
SWIDTH 519 0
DWIDTH 13 0
BBX 12 13 0 0
BITMAP
3F80
7BE0
F3E0
F1F0
FFF0
01F0
01F0
01F0
01F0
01F0
83E0
E3E0
3F80
ENDCHAR
STARTCHAR uni0259
ENCODING 601
SWIDTH 519 0
DWIDTH 13 0
BBX 12 13 0 0
BITMAP
3F80
E3E0
83E0
01F0
01F0
01F0
01F0
01F0
FFF0
F1F0
F3E0
7BE0
3F80
ENDCHAR
STARTCHAR uni025F
ENCODING 607
SWIDTH 342 0
DWIDTH 9 0
BBX 11 19 -1 -7
BITMAP
3FE0
0F80
0F80
0F80
0F80
0F80
0F80
0F80
0F80
0F80
0F80
0F80
7FE0
0F80
0F80
0780
E780
F700
7E00
ENDCHAR
STARTCHAR uni0265
ENCODING 613
SWIDTH 631 0
DWIDTH 16 0
BBX 16 19 -1 -7
BITMAP
FCFE
7C7C
7C7C
7C7C
7C7C
7C7C
7C7C
7C7C
7C7C
7C7C
7CFC
3F7C
1E7C
007C
007C
007C
007C
007F
0070
ENDCHAR
STARTCHAR uni0275
ENCODING 629
SWIDTH 585 0
DWIDTH 15 0
BBX 14 13 0 0
BITMAP
1FE0
7CF8
7CF8
F87C
F87C
F87C
FFFC
F87C
F87C
F87C
7CF8
7CF8
1FE0
ENDCHAR
STARTCHAR uni0279
ENCODING 633
SWIDTH 440 0
DWIDTH 11 0
BBX 12 13 0 0
BITMAP
07F0
03E0
03E0
03E0
03E0
03E0
03E0
03E0
03E0
73E0
FFE0
FBF0
7380
ENDCHAR
STARTCHAR uni0287
ENCODING 647
SWIDTH 370 0
DWIDTH 9 0
BBX 9 16 0 0
BITMAP
7C00
FE00
9F00
1F00
1F00
1F00
1F00
1F00
1F00
1F00
1F00
1F00
FF80
1E00
1C00
1800
ENDCHAR
STARTCHAR uni0288
ENCODING 648
SWIDTH 370 0
DWIDTH 9 0
BBX 9 21 0 -5
BITMAP
0C00
1C00
3C00
FF80
7C00
7C00
7C00
7C00
7C00
7C00
7C00
7C00
7C00
7C00
7C00
7C00
7C00
7C00
3C00
3E00
0F80
ENDCHAR
STARTCHAR uni0289
ENCODING 649
SWIDTH 629 0
DWIDTH 16 0
BBX 15 13 0 0
BITMAP
1C1C
FCFC
7C7C
7C7C
7C7C
7C7C
FFFE
7C7C
7C7C
7C7C
7CFC
3F7C
1E7E
ENDCHAR
STARTCHAR uni028C
ENCODING 652
SWIDTH 520 0
DWIDTH 13 0
BBX 14 13 -1 0
BITMAP
07C0
07C0
0FC0
0BE0
0BE0
1BE0
11F0
11F0
31F0
20F8
20F8
60F8
F1FC
ENDCHAR
STARTCHAR uni028D
ENCODING 653
SWIDTH 774 0
DWIDTH 19 0
BBX 22 13 -1 0
BITMAP
07C7C0
07C7C0
07C7C0
0FEFE0
0BEBE0
0BEBE0
1BF9F0
11F1F0
11F1F0
31F0F8
20F0F8
60F0F8
F0F1FC
ENDCHAR
STARTCHAR uni028E
ENCODING 654
SWIDTH 524 0
DWIDTH 13 0
BBX 14 18 -1 0
BITMAP
0078
00BC
01BC
0398
0380
0780
07C0
07C0
0FC0
0BE0
0BE0
1BE0
11F0
11F0
31F0
20F8
60F8
F1FC
ENDCHAR
STARTCHAR uni029E
ENCODING 670
SWIDTH 582 0
DWIDTH 15 0
BBX 16 19 -1 -7
BITMAP
F8FE
7C7C
3E7C
1E7C
1F7C
0F7C
07FC
03FC
077C
0E7C
1C7C
3C7C
787C
007C
007C
007C
007C
007F
0078
ENDCHAR
STARTCHAR uni02BB
ENCODING 699
SWIDTH 252 0
DWIDTH 6 0
BBX 4 8 1 9
BITMAP
10
20
60
60
F0
F0
F0
60
ENDCHAR
STARTCHAR afii57929
ENCODING 700
SWIDTH 252 0
DWIDTH 6 0
BBX 4 8 1 9
BITMAP
60
F0
F0
F0
60
60
40
80
ENDCHAR
STARTCHAR afii64937
ENCODING 701
SWIDTH 252 0
DWIDTH 6 0
BBX 4 8 1 9
BITMAP
60
F0
F0
F0
60
60
20
10
ENDCHAR
STARTCHAR circumflex
ENCODING 710
SWIDTH 430 0
DWIDTH 10 0
BBX 9 5 0 14
BITMAP
0800
1C00
3E00
6300
8080
ENDCHAR
STARTCHAR caron
ENCODING 711
SWIDTH 430 0
DWIDTH 10 0
BBX 9 5 0 14
BITMAP
8080
6300
3E00
1C00
0800
ENDCHAR
STARTCHAR uni02C8
ENCODING 712
SWIDTH 252 0
DWIDTH 6 0
BBX 3 8 1 9
BITMAP
E0
E0
E0
E0
E0
40
40
40
ENDCHAR
STARTCHAR macron
ENCODING 713
SWIDTH 430 0
DWIDTH 10 0
BBX 8 2 1 14
BITMAP
FF
FF
ENDCHAR
STARTCHAR uni02CA
ENCODING 714
SWIDTH 430 0
DWIDTH 11 0
BBX 6 5 2 14
BITMAP
08
1C
3C
70
C0
ENDCHAR
STARTCHAR uni02CB
ENCODING 715
SWIDTH 430 0
DWIDTH 11 0
BBX 6 5 2 14
BITMAP
40
E0
F0
38
0C
ENDCHAR
STARTCHAR uni02CD
ENCODING 717
SWIDTH 430 0
DWIDTH 10 0
BBX 8 2 1 -3
BITMAP
FF
FF
ENDCHAR
STARTCHAR uni02CE
ENCODING 718
SWIDTH 430 0
DWIDTH 11 0
BBX 6 5 2 -6
BITMAP
40
E0
F0
38
0C
ENDCHAR
STARTCHAR uni02CF
ENCODING 719
SWIDTH 430 0
DWIDTH 11 0
BBX 6 5 2 -6
BITMAP
08
1C
3C
70
C0
ENDCHAR
STARTCHAR breve
ENCODING 728
SWIDTH 430 0
DWIDTH 10 0
BBX 8 4 1 14
BITMAP
81
C3
7E
3C
ENDCHAR
STARTCHAR dotaccent
ENCODING 729
SWIDTH 430 0
DWIDTH 10 0
BBX 4 4 3 14
BITMAP
60
F0
F0
60
ENDCHAR
STARTCHAR ring
ENCODING 730
SWIDTH 430 0
DWIDTH 10 0
BBX 6 5 2 14
BITMAP
78
CC
CC
CC
78
ENDCHAR
STARTCHAR ogonek
ENCODING 731
SWIDTH 430 0
DWIDTH 11 0
BBX 6 5 2 -5
BITMAP
38
70
E0
E4
78
ENDCHAR
STARTCHAR tilde
ENCODING 732
SWIDTH 430 0
DWIDTH 10 0
BBX 9 3 0 14
BITMAP
3180
7F00
C600
ENDCHAR
STARTCHAR hungarumlaut
ENCODING 733
SWIDTH 430 0
DWIDTH 10 0
BBX 8 5 1 14
BITMAP
33
77
66
CC
88
ENDCHAR
STARTCHAR uni02EE
ENCODING 750
SWIDTH 473 0
DWIDTH 12 0
BBX 9 8 1 9
BITMAP
6300
F780
F780
F780
6300
6300
4200
8400
ENDCHAR
STARTCHAR uni037E
ENCODING 894
SWIDTH 280 0
DWIDTH 7 0
BBX 4 15 1 -3
BITMAP
60
F0
F0
F0
60
00
00
60
F0
F0
F0
60
60
40
80
ENDCHAR
STARTCHAR tonos
ENCODING 900
SWIDTH 430 0
DWIDTH 11 0
BBX 6 5 2 14
BITMAP
08
1C
3C
70
C0
ENDCHAR
STARTCHAR dieresistonos
ENCODING 901
SWIDTH 430 0
DWIDTH 11 0
BBX 9 10 1 14
BITMAP
0200
0700
0F00
1C00
3000
0000
6300
F780
F780
6300
ENDCHAR
STARTCHAR anoteleia
ENCODING 903
SWIDTH 280 0
DWIDTH 7 0
BBX 4 5 1 4
BITMAP
60
F0
F0
F0
60
ENDCHAR
STARTCHAR mu
ENCODING 956
SWIDTH 629 0
DWIDTH 16 0
BBX 15 18 0 -5
BITMAP
1C1C
FCFC
7C7C
7C7C
7C7C
7C7C
7C7C
7C7C
7C7C
7C7C
7CFC
7F7C
7E7E
6000
7000
7800
7800
3800
ENDCHAR
STARTCHAR uni1E00
ENCODING 7680
SWIDTH 644 0
DWIDTH 16 0
BBX 18 23 -1 -6
BITMAP
01E000
01E000
03F000
03F000
03F000
06F800
06F800
06F800
0C7C00
0C7C00
0FFC00
183E00
183E00
183E00
301F00
301F00
FC7FC0
000000
00F000
019800
019800
019800
00F000
ENDCHAR
STARTCHAR uni1E01
ENCODING 7681
SWIDTH 544 0
DWIDTH 14 0
BBX 14 19 0 -6
BITMAP
3FC0
FBE0
F1F0
61F0
03F0
07F0
19F0
71F0
F1F0
F1F0
F9F0
FFFC
7CF0
0000
0780
0CC0
0CC0
0CC0
0780
ENDCHAR
STARTCHAR uni1E02
ENCODING 7682
SWIDTH 683 0
DWIDTH 17 0
BBX 16 22 0 0
BITMAP
0180
03C0
03C0
0180
0000
FFF0
3E7C
3E3E
3E3E
3E3E
3E3E
3E7C
3FF0
3E7C
3E3E
3E1F
3E1F
3E1F
3E1F
3E1F
3F3E
FFF8
ENDCHAR
STARTCHAR uni1E03
ENCODING 7683
SWIDTH 605 0
DWIDTH 15 0
BBX 16 24 -2 0
BITMAP
0600
0F00
0F00
0600
0000
0E00
FE00
3E00
3E00
3E00
3E00
3EF8
3FBE
3F3E
3E1F
3E1F
3E1F
3E1F
3E1F
3E1F
3E1F
3E3E
3F3E
3BF8
ENDCHAR
STARTCHAR uni1E04
ENCODING 7684
SWIDTH 683 0
DWIDTH 17 0
BBX 16 22 0 -5
BITMAP
FFF0
3E7C
3E3E
3E3E
3E3E
3E3E
3E7C
3FF0
3E7C
3E3E
3E1F
3E1F
3E1F
3E1F
3E1F
3F3E
FFF8
0000
0180
03C0
03C0
0180
ENDCHAR
STARTCHAR uni1E05
ENCODING 7685
SWIDTH 605 0
DWIDTH 15 0
BBX 16 24 -2 -5
BITMAP
0E00
FE00
3E00
3E00
3E00
3E00
3EF8
3FBE
3F3E
3E1F
3E1F
3E1F
3E1F
3E1F
3E1F
3E1F
3E3E
3F3E
3BF8
0000
0180
03C0
03C0
0180
ENDCHAR
STARTCHAR uni1E06
ENCODING 7686
SWIDTH 683 0
DWIDTH 17 0
BBX 16 20 0 -3
BITMAP
FFF0
3E7C
3E3E
3E3E
3E3E
3E3E
3E7C
3FF0
3E7C
3E3E
3E1F
3E1F
3E1F
3E1F
3E1F
3F3E
FFF8
0000
0FF0
0FF0
ENDCHAR
STARTCHAR uni1E07
ENCODING 7687
SWIDTH 605 0
DWIDTH 15 0
BBX 16 22 -2 -3
BITMAP
0E00
FE00
3E00
3E00
3E00
3E00
3EF8
3FBE
3F3E
3E1F
3E1F
3E1F
3E1F
3E1F
3E1F
3E1F
3E3E
3F3E
3BF8
0000
0FF0
0FF0
ENDCHAR
STARTCHAR uni1E08
ENCODING 7688
SWIDTH 689 0
DWIDTH 17 0
BBX 16 28 0 -5
BITMAP
0020
0070
00F0
01C0
0300
0000
07FC
1E0F
3C07
7C03
7C01
F801
F800
F800
F800
F800
F800
F801
7C01
7C03
3E07
1F0F
07FC
0080
01C0
00E0
00E0
03C0
ENDCHAR
STARTCHAR uni1E09
ENCODING 7689
SWIDTH 494 0
DWIDTH 13 0
BBX 12 24 0 -5
BITMAP
0100
0380
0780
0E00
1800
0000
1FC0
7CF0
7CF0
F860
F800
F800
F800
F800
F800
F800
7C10
7C70
1FC0
0200
0700
0380
0380
0F00
ENDCHAR
STARTCHAR uni1E0A
ENCODING 7690
SWIDTH 777 0
DWIDTH 19 0
BBX 18 22 0 0
BITMAP
00C000
01E000
01E000
00C000
000000
FFF800
3E1E00
3E0F00
3E0F80
3E0F80
3E07C0
3E07C0
3E07C0
3E07C0
3E07C0
3E07C0
3E07C0
3E0F80
3E0F80
3E0F00
3F1E00
FFF800
ENDCHAR
STARTCHAR uni1E0B
ENCODING 7691
SWIDTH 605 0
DWIDTH 15 0
BBX 15 24 0 0
BITMAP
0060
00F0
00F0
0060
0000
001C
01FC
007C
007C
007C
007C
1FFC
7CFC
7C7C
F87C
F87C
F87C
F87C
F87C
F87C
F87C
7C7C
7CFC
1F3E
ENDCHAR
STARTCHAR uni1E0C
ENCODING 7692
SWIDTH 777 0
DWIDTH 19 0
BBX 18 22 0 -5
BITMAP
FFF800
3E1E00
3E0F00
3E0F80
3E0F80
3E07C0
3E07C0
3E07C0
3E07C0
3E07C0
3E07C0
3E07C0
3E0F80
3E0F80
3E0F00
3F1E00
FFF800
000000
00C000
01E000
01E000
00C000
ENDCHAR
STARTCHAR uni1E0D
ENCODING 7693
SWIDTH 605 0
DWIDTH 15 0
BBX 15 24 0 -5
BITMAP
001C
01FC
007C
007C
007C
007C
1FFC
7CFC
7C7C
F87C
F87C
F87C
F87C
F87C
F87C
F87C
7C7C
7CFC
1F3E
0000
0180
03C0
03C0
0180
ENDCHAR
STARTCHAR uni1E0E
ENCODING 7694
SWIDTH 777 0
DWIDTH 19 0
BBX 18 20 0 -3
BITMAP
FFF800
3E1E00
3E0F00
3E0F80
3E0F80
3E07C0
3E07C0
3E07C0
3E07C0
3E07C0
3E07C0
3E07C0
3E0F80
3E0F80
3E0F00
3F1E00
FFF800
000000
07F800
07F800
ENDCHAR
STARTCHAR uni1E0F
ENCODING 7695
SWIDTH 605 0
DWIDTH 15 0
BBX 15 22 0 -3
BITMAP
001C
01FC
007C
007C
007C
007C
1FFC
7CFC
7C7C
F87C
F87C
F87C
F87C
F87C
F87C
F87C
7C7C
7CFC
1F3E
0000
0FF0
0FF0
ENDCHAR
STARTCHAR uni1E10
ENCODING 7696
SWIDTH 777 0
DWIDTH 19 0
BBX 18 22 0 -5
BITMAP
FFF800
3E1E00
3E0F00
3E0F80
3E0F80
3E07C0
3E07C0
3E07C0
3E07C0
3E07C0
3E07C0
3E07C0
3E0F80
3E0F80
3E0F00
3F1E00
FFF800
008000
01C000
00E000
00E000
03C000
ENDCHAR
STARTCHAR uni1E11
ENCODING 7697
SWIDTH 605 0
DWIDTH 15 0
BBX 15 24 0 -5
BITMAP
001C
01FC
007C
007C
007C
007C
1FFC
7CFC
7C7C
F87C
F87C
F87C
F87C
F87C
F87C
F87C
7C7C
7CFC
1F3E
0100
0380
01C0
01C0
0780
ENDCHAR
STARTCHAR uni1E12
ENCODING 7698
SWIDTH 777 0
DWIDTH 19 0
BBX 18 23 0 -6
BITMAP
FFF800
3E1E00
3E0F00
3E0F80
3E0F80
3E07C0
3E07C0
3E07C0
3E07C0
3E07C0
3E07C0
3E07C0
3E0F80
3E0F80
3E0F00
3F1E00
FFF800
000000
008000
01C000
03E000
063000
080800
ENDCHAR
STARTCHAR uni1E13
ENCODING 7699
SWIDTH 605 0
DWIDTH 15 0
BBX 15 25 0 -6
BITMAP
001C
01FC
007C
007C
007C
007C
1FFC
7CFC
7C7C
F87C
F87C
F87C
F87C
F87C
F87C
F87C
7C7C
7CFC
1F3E
0000
0100
0380
07C0
0C60
1010
ENDCHAR
STARTCHAR uni1E14
ENCODING 7700
SWIDTH 629 0
DWIDTH 16 0
BBX 15 26 0 0
BITMAP
0800
1C00
1E00
0700
0180
0000
1FE0
1FE0
0000
FFFC
3E1C
3E0C
3E04
3E00
3E10
3E30
3FF0
3E30
3E10
3E00
3E00
3E02
3E02
3E06
3F0E
FFFE
ENDCHAR
STARTCHAR uni1E15
ENCODING 7701
SWIDTH 519 0
DWIDTH 13 0
BBX 12 22 0 0
BITMAP
1000
3800
3C00
0E00
0300
0000
3FC0
3FC0
0000
1FC0
7DE0
7CF0
F8F0
FFF0
F800
F800
F800
F800
F800
7C10
7C70
1FC0
ENDCHAR
STARTCHAR uni1E16
ENCODING 7702
SWIDTH 629 0
DWIDTH 16 0
BBX 15 26 0 0
BITMAP
0040
00E0
01E0
0380
0600
0000
1FE0
1FE0
0000
FFFC
3E1C
3E0C
3E04
3E00
3E10
3E30
3FF0
3E30
3E10
3E00
3E00
3E02
3E02
3E06
3F0E
FFFE
ENDCHAR
STARTCHAR uni1E17
ENCODING 7703
SWIDTH 519 0
DWIDTH 13 0
BBX 12 22 0 0
BITMAP
0080
01C0
03C0
0700
0C00
0000
3FC0
3FC0
0000
1FC0
7DE0
7CF0
F8F0
FFF0
F800
F800
F800
F800
F800
7C10
7C70
1FC0
ENDCHAR
STARTCHAR uni1E18
ENCODING 7704
SWIDTH 629 0
DWIDTH 16 0
BBX 15 23 0 -6
BITMAP
FFFC
3E1C
3E0C
3E04
3E00
3E10
3E30
3FF0
3E30
3E10
3E00
3E00
3E02
3E02
3E06
3F0E
FFFE
0000
0100
0380
07C0
0C60
1010
ENDCHAR
STARTCHAR uni1E19
ENCODING 7705
SWIDTH 519 0
DWIDTH 13 0
BBX 12 19 0 -6
BITMAP
1FC0
7DE0
7CF0
F8F0
FFF0
F800
F800
F800
F800
F800
7C10
7C70
1FC0
0000
0400
0E00
1F00
3180
4040
ENDCHAR
STARTCHAR uni1E1A
ENCODING 7706
SWIDTH 629 0
DWIDTH 16 0
BBX 15 21 0 -4
BITMAP
FFFC
3E1C
3E0C
3E04
3E00
3E10
3E30
3FF0
3E30
3E10
3E00
3E00
3E02
3E02
3E06
3F0E
FFFE
0000
0C60
1FC0
3180
ENDCHAR
STARTCHAR uni1E1B
ENCODING 7707
SWIDTH 519 0
DWIDTH 13 0
BBX 12 17 0 -4
BITMAP
1FC0
7DE0
7CF0
F8F0
FFF0
F800
F800
F800
F800
F800
7C10
7C70
1FC0
0000
3180
7F00
C600
ENDCHAR
STARTCHAR uni1E1C
ENCODING 7708
SWIDTH 629 0
DWIDTH 16 0
BBX 15 27 0 -5
BITMAP
1020
1860
0FC0
0780
0000
FFFC
3E1C
3E0C
3E04
3E00
3E10
3E30
3FF0
3E30
3E10
3E00
3E00
3E02
3E02
3E06
3F0E
FFFE
0100
0380
01C0
01C0
0780
ENDCHAR
STARTCHAR uni1E1D
ENCODING 7709
SWIDTH 519 0
DWIDTH 13 0
BBX 12 23 0 -5
BITMAP
2040
30C0
1F80
0F00
0000
1FC0
7DE0
7CF0
F8F0
FFF0
F800
F800
F800
F800
F800
7C10
7C70
1FC0
0400
0E00
0700
0700
1E00
ENDCHAR
STARTCHAR uni1E1E
ENCODING 7710
SWIDTH 593 0
DWIDTH 15 0
BBX 14 22 0 0
BITMAP
0300
0780
0780
0300
0000
FFFC
3E1C
3E0C
3E04
3E00
3E00
3E10
3E30
3FF0
3E30
3E10
3E00
3E00
3E00
3E00
3E00
FF80
ENDCHAR
STARTCHAR uni1E1F
ENCODING 7711
SWIDTH 342 0
DWIDTH 9 0
BBX 11 24 -1 0
BITMAP
0600
0F00
0F00
0600
0000
0FC0
1DE0
3CE0
3C00
3E00
3E00
FFC0
3E00
3E00
3E00
3E00
3E00
3E00
3E00
3E00
3E00
3E00
3E00
FF80
ENDCHAR
STARTCHAR uni1E20
ENCODING 7712
SWIDTH 726 0
DWIDTH 18 0
BBX 17 20 0 0
BITMAP
0FF000
0FF000
000000
07FC00
1E0F00
3C0700
7C0300
7C0100
F80100
F80000
F80000
F80000
F80000
F87F80
F81F00
7C1F00
7C1F00
3E1F00
1F1F00
07F800
ENDCHAR
STARTCHAR uni1E21
ENCODING 7713
SWIDTH 533 0
DWIDTH 14 0
BBX 14 22 0 -5
BITMAP
1FE0
1FE0
0000
001C
1FFC
7DF0
F8F8
F8F8
F8F8
F8F8
7DF0
1FC0
0C00
1F00
3FE0
3FF8
1FFC
71FC
F03C
F03C
7878
1FE0
ENDCHAR
STARTCHAR uni1E22
ENCODING 7714
SWIDTH 807 0
DWIDTH 20 0
BBX 19 22 0 0
BITMAP
006000
00F000
00F000
006000
000000
FFBFE0
3E0F80
3E0F80
3E0F80
3E0F80
3E0F80
3E0F80
3E0F80
3FFF80
3E0F80
3E0F80
3E0F80
3E0F80
3E0F80
3E0F80
3E0F80
FFBFE0
ENDCHAR
STARTCHAR uni1E23
ENCODING 7715
SWIDTH 631 0
DWIDTH 16 0
BBX 16 24 -1 0
BITMAP
0600
0F00
0F00
0600
0000
0E00
FE00
3E00
3E00
3E00
3E00
3E78
3EFC
3F3E
3E3E
3E3E
3E3E
3E3E
3E3E
3E3E
3E3E
3E3E
3E3E
7F3F
ENDCHAR
STARTCHAR uni1E24
ENCODING 7716
SWIDTH 807 0
DWIDTH 20 0
BBX 19 22 0 -5
BITMAP
FFBFE0
3E0F80
3E0F80
3E0F80
3E0F80
3E0F80
3E0F80
3E0F80
3FFF80
3E0F80
3E0F80
3E0F80
3E0F80
3E0F80
3E0F80
3E0F80
FFBFE0
000000
006000
00F000
00F000
006000
ENDCHAR
STARTCHAR uni1E25
ENCODING 7717
SWIDTH 631 0
DWIDTH 16 0
BBX 16 24 -1 -5
BITMAP
0E00
FE00
3E00
3E00
3E00
3E00
3E78
3EFC
3F3E
3E3E
3E3E
3E3E
3E3E
3E3E
3E3E
3E3E
3E3E
3E3E
7F3F
0000
0180
03C0
03C0
0180
ENDCHAR
STARTCHAR uni1E26
ENCODING 7718
SWIDTH 807 0
DWIDTH 20 0
BBX 19 22 0 0
BITMAP
031800
07BC00
07BC00
031800
000000
FFBFE0
3E0F80
3E0F80
3E0F80
3E0F80
3E0F80
3E0F80
3E0F80
3FFF80
3E0F80
3E0F80
3E0F80
3E0F80
3E0F80
3E0F80
3E0F80
FFBFE0
ENDCHAR
STARTCHAR uni1E27
ENCODING 7719
SWIDTH 631 0
DWIDTH 16 0
BBX 16 24 -1 0
BITMAP
3180
7BC0
7BC0
3180
0000
0E00
FE00
3E00
3E00
3E00
3E00
3E78
3EFC
3F3E
3E3E
3E3E
3E3E
3E3E
3E3E
3E3E
3E3E
3E3E
3E3E
7F3F
ENDCHAR
STARTCHAR uni1E28
ENCODING 7720
SWIDTH 807 0
DWIDTH 20 0
BBX 19 22 0 -5
BITMAP
FFBFE0
3E0F80
3E0F80
3E0F80
3E0F80
3E0F80
3E0F80
3E0F80
3FFF80
3E0F80
3E0F80
3E0F80
3E0F80
3E0F80
3E0F80
3E0F80
FFBFE0
004000
00E000
007000
007000
01E000
ENDCHAR
STARTCHAR uni1E29
ENCODING 7721
SWIDTH 631 0
DWIDTH 16 0
BBX 16 24 -1 -5
BITMAP
0E00
FE00
3E00
3E00
3E00
3E00
3E78
3EFC
3F3E
3E3E
3E3E
3E3E
3E3E
3E3E
3E3E
3E3E
3E3E
3E3E
7F3F
0080
01C0
00E0
00E0
03C0
ENDCHAR
STARTCHAR uni1E2A
ENCODING 7722
SWIDTH 807 0
DWIDTH 20 0
BBX 19 22 0 -5
BITMAP
FFBFE0
3E0F80
3E0F80
3E0F80
3E0F80
3E0F80
3E0F80
3E0F80
3FFF80
3E0F80
3E0F80
3E0F80
3E0F80
3E0F80
3E0F80
3E0F80
FFBFE0
000000
020400
030C00
01F800
00F000
ENDCHAR
STARTCHAR uni1E2B
ENCODING 7723
SWIDTH 631 0
DWIDTH 16 0
BBX 16 24 -1 -5
BITMAP
0E00
FE00
3E00
3E00
3E00
3E00
3E78
3EFC
3F3E
3E3E
3E3E
3E3E
3E3E
3E3E
3E3E
3E3E
3E3E
3E3E
7F3F
0000
0810
0C30
07E0
03C0
ENDCHAR
STARTCHAR uni1E2C
ENCODING 7724
SWIDTH 384 0
DWIDTH 10 0
BBX 10 21 -1 -4
BITMAP
7FC0
1F00
1F00
1F00
1F00
1F00
1F00
1F00
1F00
1F00
1F00
1F00
1F00
1F00
1F00
1F00
7FC0
0000
3180
7F00
C600
ENDCHAR
STARTCHAR uni1E2D
ENCODING 7725
SWIDTH 316 0
DWIDTH 8 0
BBX 9 22 -2 -4
BITMAP
0E00
1F00
1F00
0E00
0000
0700
3F00
1F00
1F00
1F00
1F00
1F00
1F00
1F00
1F00
1F00
1F00
3F80
0000
3180
7F00
C600
ENDCHAR
STARTCHAR uni1E2E
ENCODING 7726
SWIDTH 384 0
DWIDTH 10 0
BBX 9 26 0 0
BITMAP
0200
0700
0F00
1C00
3000
0000
6300
F780
F780
6300
0000
FF80
3E00
3E00
3E00
3E00
3E00
3E00
3E00
3E00
3E00
3E00
3E00
3E00
3E00
FF80
ENDCHAR
STARTCHAR uni1E2F
ENCODING 7727
SWIDTH 316 0
DWIDTH 8 0
BBX 9 24 -1 0
BITMAP
0200
0700
0F00
1C00
3000
0000
6300
F780
F780
6300
0000
0E00
7E00
3E00
3E00
3E00
3E00
3E00
3E00
3E00
3E00
3E00
3E00
7F00
ENDCHAR
STARTCHAR uni1E30
ENCODING 7728
SWIDTH 707 0
DWIDTH 18 0
BBX 19 23 0 0
BITMAP
002000
007000
00F000
01C000
030000
000000
FF8FC0
3E0700
3E0600
3E0C00
3E1800
3E3000
3E7000
3EF000
3FF800
3EFC00
3E7C00
3E3E00
3E3F00
3E1F00
3E0F80
3E0FC0
FF87E0
ENDCHAR
STARTCHAR uni1E31
ENCODING 7729
SWIDTH 582 0
DWIDTH 15 0
BBX 16 25 -1 0
BITMAP
0100
0380
0780
0E00
1800
0000
1E00
FE00
3E00
3E00
3E00
3E00
3E1E
3E3C
3E38
3E70
3EE0
3FC0
3FE0
3EF0
3EF8
3E78
3E7C
3E3E
7F1F
ENDCHAR
STARTCHAR uni1E32
ENCODING 7730
SWIDTH 707 0
DWIDTH 18 0
BBX 19 22 0 -5
BITMAP
FF8FC0
3E0700
3E0600
3E0C00
3E1800
3E3000
3E7000
3EF000
3FF800
3EFC00
3E7C00
3E3E00
3E3F00
3E1F00
3E0F80
3E0FC0
FF87E0
000000
00C000
01E000
01E000
00C000
ENDCHAR
STARTCHAR uni1E33
ENCODING 7731
SWIDTH 582 0
DWIDTH 15 0
BBX 16 24 -1 -5
BITMAP
1E00
FE00
3E00
3E00
3E00
3E00
3E1E
3E3C
3E38
3E70
3EE0
3FC0
3FE0
3EF0
3EF8
3E78
3E7C
3E3E
7F1F
0000
0180
03C0
03C0
0180
ENDCHAR
STARTCHAR uni1E34
ENCODING 7732
SWIDTH 707 0
DWIDTH 18 0
BBX 19 20 0 -3
BITMAP
FF8FC0
3E0700
3E0600
3E0C00
3E1800
3E3000
3E7000
3EF000
3FF800
3EFC00
3E7C00
3E3E00
3E3F00
3E1F00
3E0F80
3E0FC0
FF87E0
000000
07F800
07F800
ENDCHAR
STARTCHAR uni1E35
ENCODING 7733
SWIDTH 582 0
DWIDTH 15 0
BBX 16 22 -1 -3
BITMAP
1E00
FE00
3E00
3E00
3E00
3E00
3E1E
3E3C
3E38
3E70
3EE0
3FC0
3FE0
3EF0
3EF8
3E78
3E7C
3E3E
7F1F
0000
0FF0
0FF0
ENDCHAR
STARTCHAR uni1E36
ENCODING 7734
SWIDTH 585 0
DWIDTH 15 0
BBX 15 22 0 -5
BITMAP
FF80
3E00
3E00
3E00
3E00
3E00
3E00
3E00
3E00
3E00
3E00
3E00
3E02
3E02
3E06
3F0E
FFFE
0000
0300
0780
0780
0300
ENDCHAR
STARTCHAR uni1E37
ENCODING 7735
SWIDTH 309 0
DWIDTH 8 0
BBX 8 24 -1 -5
BITMAP
0E
FE
3E
3E
3E
3E
3E
3E
3E
3E
3E
3E
3E
3E
3E
3E
3E
3E
7F
00
18
3C
3C
18
ENDCHAR
STARTCHAR uni1E38
ENCODING 7736
SWIDTH 585 0
DWIDTH 15 0
BBX 15 25 0 -5
BITMAP
3FC0
3FC0
0000
FF80
3E00
3E00
3E00
3E00
3E00
3E00
3E00
3E00
3E00
3E00
3E00
3E02
3E02
3E06
3F0E
FFFE
0000
0300
0780
0780
0300
ENDCHAR
STARTCHAR uni1E39
ENCODING 7737
SWIDTH 309 0
DWIDTH 8 0
BBX 8 27 -1 -5
BITMAP
FF
FF
00
0E
FE
3E
3E
3E
3E
3E
3E
3E
3E
3E
3E
3E
3E
3E
3E
3E
3E
7F
00
18
3C
3C
18
ENDCHAR
STARTCHAR uni1E3A
ENCODING 7738
SWIDTH 585 0
DWIDTH 15 0
BBX 15 20 0 -3
BITMAP
FF80
3E00
3E00
3E00
3E00
3E00
3E00
3E00
3E00
3E00
3E00
3E00
3E02
3E02
3E06
3F0E
FFFE
0000
1FE0
1FE0
ENDCHAR
STARTCHAR uni1E3B
ENCODING 7739
SWIDTH 309 0
DWIDTH 8 0
BBX 8 22 -1 -3
BITMAP
0E
FE
3E
3E
3E
3E
3E
3E
3E
3E
3E
3E
3E
3E
3E
3E
3E
3E
7F
00
FF
FF
ENDCHAR
STARTCHAR uni1E3C
ENCODING 7740
SWIDTH 585 0
DWIDTH 15 0
BBX 15 23 0 -6
BITMAP
FF80
3E00
3E00
3E00
3E00
3E00
3E00
3E00
3E00
3E00
3E00
3E00
3E02
3E02
3E06
3F0E
FFFE
0000
0100
0380
07C0
0C60
1010
ENDCHAR
STARTCHAR uni1E3D
ENCODING 7741
SWIDTH 309 0
DWIDTH 8 0
BBX 9 25 -1 -6
BITMAP
0E00
FE00
3E00
3E00
3E00
3E00
3E00
3E00
3E00
3E00
3E00
3E00
3E00
3E00
3E00
3E00
3E00
3E00
7F00
0000
0800
1C00
3E00
6300
8080
ENDCHAR
STARTCHAR uni1E3E
ENCODING 7742
SWIDTH 918 0
DWIDTH 23 0
BBX 23 23 0 0
BITMAP
000400
000E00
001E00
003800
006000
000000
FF01FE
3F01F8
3F81F8
3F83F8
3782F8
37C2F8
37C6F8
33C4F8
33E4F8
33ECF8
31E8F8
31F8F8
31F8F8
30F0F8
30F0F8
30F0F8
FC63FE
ENDCHAR
STARTCHAR uni1E3F
ENCODING 7743
SWIDTH 948 0
DWIDTH 24 0
BBX 23 19 0 0
BITMAP
000400
000E00
001E00
003800
006000
000000
3CF0F0
FDF9F8
7E7E7C
7C7C7C
7C7C7C
7C7C7C
7C7C7C
7C7C7C
7C7C7C
7C7C7C
7C7C7C
7C7C7C
FE7E7E
ENDCHAR
STARTCHAR uni1E40
ENCODING 7744
SWIDTH 918 0
DWIDTH 23 0
BBX 23 22 0 0
BITMAP
001800
003C00
003C00
001800
000000
FF01FE
3F01F8
3F81F8
3F83F8
3782F8
37C2F8
37C6F8
33C4F8
33E4F8
33ECF8
31E8F8
31F8F8
31F8F8
30F0F8
30F0F8
30F0F8
FC63FE
ENDCHAR
STARTCHAR uni1E41
ENCODING 7745
SWIDTH 948 0
DWIDTH 24 0
BBX 23 18 0 0
BITMAP
003000
007800
007800
003000
000000
3CF0F0
FDF9F8
7E7E7C
7C7C7C
7C7C7C
7C7C7C
7C7C7C
7C7C7C
7C7C7C
7C7C7C
7C7C7C
7C7C7C
FE7E7E
ENDCHAR
STARTCHAR uni1E42
ENCODING 7746
SWIDTH 918 0
DWIDTH 23 0
BBX 23 22 0 -5
BITMAP
FF01FE
3F01F8
3F81F8
3F83F8
3782F8
37C2F8
37C6F8
33C4F8
33E4F8
33ECF8
31E8F8
31F8F8
31F8F8
30F0F8
30F0F8
30F0F8
FC63FE
000000
001800
003C00
003C00
001800
ENDCHAR
STARTCHAR uni1E43
ENCODING 7747
SWIDTH 948 0
DWIDTH 24 0
BBX 23 18 0 -5
BITMAP
3CF0F0
FDF9F8
7E7E7C
7C7C7C
7C7C7C
7C7C7C
7C7C7C
7C7C7C
7C7C7C
7C7C7C
7C7C7C
7C7C7C
FE7E7E
000000
003000
007800
007800
003000
ENDCHAR
STARTCHAR uni1E44
ENCODING 7748
SWIDTH 739 0
DWIDTH 19 0
BBX 18 22 0 0
BITMAP
018000
03C000
03C000
018000
000000
FE0FC0
3F0300
3F8300
3F8300
3FC300
37E300
37E300
33F300
31FB00
31FB00
30FF00
307F00
307F00
303F00
301F00
301F00
FC0F00
ENDCHAR
STARTCHAR uni1E45
ENCODING 7749
SWIDTH 638 0
DWIDTH 16 0
BBX 15 18 0 0
BITMAP
0300
0780
0780
0300
0000
1CF0
FDF8
7E7C
7C7C
7C7C
7C7C
7C7C
7C7C
7C7C
7C7C
7C7C
7C7C
FE7E
ENDCHAR
STARTCHAR uni1E46
ENCODING 7750
SWIDTH 739 0
DWIDTH 19 0
BBX 18 22 0 -5
BITMAP
FE0FC0
3F0300
3F8300
3F8300
3FC300
37E300
37E300
33F300
31FB00
31FB00
30FF00
307F00
307F00
303F00
301F00
301F00
FC0F00
000000
00C000
01E000
01E000
00C000
ENDCHAR
STARTCHAR uni1E47
ENCODING 7751
SWIDTH 638 0
DWIDTH 16 0
BBX 15 18 0 -5
BITMAP
1CF0
FDF8
7E7C
7C7C
7C7C
7C7C
7C7C
7C7C
7C7C
7C7C
7C7C
7C7C
FE7E
0000
0300
0780
0780
0300
ENDCHAR
STARTCHAR uni1E48
ENCODING 7752
SWIDTH 739 0
DWIDTH 19 0
BBX 18 20 0 -3
BITMAP
FE0FC0
3F0300
3F8300
3F8300
3FC300
37E300
37E300
33F300
31FB00
31FB00
30FF00
307F00
307F00
303F00
301F00
301F00
FC0F00
000000
07F800
07F800
ENDCHAR
STARTCHAR uni1E49
ENCODING 7753
SWIDTH 638 0
DWIDTH 16 0
BBX 15 16 0 -3
BITMAP
1CF0
FDF8
7E7C
7C7C
7C7C
7C7C
7C7C
7C7C
7C7C
7C7C
7C7C
7C7C
FE7E
0000
1FE0
1FE0
ENDCHAR
STARTCHAR uni1E4A
ENCODING 7754
SWIDTH 739 0
DWIDTH 19 0
BBX 18 23 0 -6
BITMAP
FE0FC0
3F0300
3F8300
3F8300
3FC300
37E300
37E300
33F300
31FB00
31FB00
30FF00
307F00
307F00
303F00
301F00
301F00
FC0F00
000000
004000
00E000
01F000
031800
040400
ENDCHAR
STARTCHAR uni1E4B
ENCODING 7755
SWIDTH 638 0
DWIDTH 16 0
BBX 15 19 0 -6
BITMAP
1CF0
FDF8
7E7C
7C7C
7C7C
7C7C
7C7C
7C7C
7C7C
7C7C
7C7C
7C7C
FE7E
0000
0100
0380
07C0
0C60
1010
ENDCHAR
STARTCHAR uni1E4C
ENCODING 7756
SWIDTH 768 0
DWIDTH 19 0
BBX 18 25 0 0
BITMAP
001000
003800
007800
00E000
018000
000000
031800
07F000
0C6000
000000
07F800
1E1E00
3C0F00
7C0F80
7C0F80
F807C0
F807C0
F807C0
F807C0
F807C0
7C0F80
7C0F80
3C0F00
1E1E00
07F800
ENDCHAR
STARTCHAR uni1E4D
ENCODING 7757
SWIDTH 585 0
DWIDTH 15 0
BBX 14 23 0 0
BITMAP
0040
00E0
01E0
0380
0600
0000
0C60
1FC0
3180
0000
1FE0
7CF8
7CF8
F87C
F87C
F87C
F87C
F87C
F87C
F87C
7CF8
7CF8
1FE0
ENDCHAR
STARTCHAR uni1E4E
ENCODING 7758
SWIDTH 768 0
DWIDTH 19 0
BBX 18 24 0 0
BITMAP
063000
0F7800
0F7800
063000
000000
031800
07F000
0C6000
000000
07F800
1E1E00
3C0F00
7C0F80
7C0F80
F807C0
F807C0
F807C0
F807C0
F807C0
7C0F80
7C0F80
3C0F00
1E1E00
07F800
ENDCHAR
STARTCHAR uni1E4F
ENCODING 7759
SWIDTH 585 0
DWIDTH 15 0
BBX 14 22 0 0
BITMAP
18C0
3DE0
3DE0
18C0
0000
0C60
1FC0
3180
0000
1FE0
7CF8
7CF8
F87C
F87C
F87C
F87C
F87C
F87C
F87C
7CF8
7CF8
1FE0
ENDCHAR
STARTCHAR uni1E50
ENCODING 7760
SWIDTH 768 0
DWIDTH 19 0
BBX 18 26 0 0
BITMAP
020000
070000
078000
01C000
006000
000000
07F800
07F800
000000
07F800
1E1E00
3C0F00
7C0F80
7C0F80
F807C0
F807C0
F807C0
F807C0
F807C0
F807C0
F807C0
7C0F80
7C0F80
3C0F00
1E1E00
07F800
ENDCHAR
STARTCHAR uni1E51
ENCODING 7761
SWIDTH 585 0
DWIDTH 15 0
BBX 14 22 0 0
BITMAP
0800
1C00
1E00
0700
0180
0000
1FE0
1FE0
0000
1FE0
7CF8
7CF8
F87C
F87C
F87C
F87C
F87C
F87C
F87C
7CF8
7CF8
1FE0
ENDCHAR
STARTCHAR uni1E52
ENCODING 7762
SWIDTH 768 0
DWIDTH 19 0
BBX 18 26 0 0
BITMAP
001000
003800
007800
00E000
018000
000000
07F800
07F800
000000
07F800
1E1E00
3C0F00
7C0F80
7C0F80
F807C0
F807C0
F807C0
F807C0
F807C0
F807C0
F807C0
7C0F80
7C0F80
3C0F00
1E1E00
07F800
ENDCHAR
STARTCHAR uni1E53
ENCODING 7763
SWIDTH 585 0
DWIDTH 15 0
BBX 14 22 0 0
BITMAP
0040
00E0
01E0
0380
0600
0000
1FE0
1FE0
0000
1FE0
7CF8
7CF8
F87C
F87C
F87C
F87C
F87C
F87C
F87C
7CF8
7CF8
1FE0
ENDCHAR
STARTCHAR uni1E54
ENCODING 7764
SWIDTH 650 0
DWIDTH 16 0
BBX 15 23 0 0
BITMAP
0040
00E0
01E0
0380
0600
0000
FFF0
3E7C
3E3E
3E3E
3E3E
3E3E
3E3E
3E3C
3E78
3FE0
3E00
3E00
3E00
3E00
3E00
3E00
FF80
ENDCHAR
STARTCHAR uni1E55
ENCODING 7765
SWIDTH 615 0
DWIDTH 15 0
BBX 15 24 -1 -5
BITMAP
0040
00E0
01E0
0380
0600
0000
1DF0
FE7C
7C7C
7C3E
7C3E
7C3E
7C3E
7C3E
7C3E
7C3E
7C7C
7E7C
7FF0
7C00
7C00
7C00
7C00
FE00
ENDCHAR
STARTCHAR uni1E56
ENCODING 7766
SWIDTH 650 0
DWIDTH 16 0
BBX 15 22 0 0
BITMAP
0180
03C0
03C0
0180
0000
FFF0
3E7C
3E3E
3E3E
3E3E
3E3E
3E3E
3E3C
3E78
3FE0
3E00
3E00
3E00
3E00
3E00
3E00
FF80
ENDCHAR
STARTCHAR uni1E57
ENCODING 7767
SWIDTH 615 0
DWIDTH 15 0
BBX 15 23 -1 -5
BITMAP
0180
03C0
03C0
0180
0000
1DF0
FE7C
7C7C
7C3E
7C3E
7C3E
7C3E
7C3E
7C3E
7C3E
7C7C
7E7C
7FF0
7C00
7C00
7C00
7C00
FE00
ENDCHAR
STARTCHAR uni1E58
ENCODING 7768
SWIDTH 684 0
DWIDTH 17 0
BBX 18 22 -1 0
BITMAP
00C000
01E000
01E000
00C000
000000
FFF800
3E3E00
3E1F00
3E1F00
3E1F00
3E1F00
3E1E00
3E3C00
3FF000
3EF800
3E7C00
3E7E00
3E3E00
3E3F00
3E3F00
3F1F80
FF8FC0
ENDCHAR
STARTCHAR uni1E59
ENCODING 7769
SWIDTH 440 0
DWIDTH 11 0
BBX 12 18 0 0
BITMAP
0600
0F00
0F00
0600
0000
1CE0
FDF0
7FF0
7CE0
7C00
7C00
7C00
7C00
7C00
7C00
7C00
7C00
FE00
ENDCHAR
STARTCHAR uni1E5A
ENCODING 7770
SWIDTH 684 0
DWIDTH 17 0
BBX 18 22 -1 -5
BITMAP
FFF800
3E3E00
3E1F00
3E1F00
3E1F00
3E1F00
3E1E00
3E3C00
3FF000
3EF800
3E7C00
3E7E00
3E3E00
3E3F00
3E3F00
3F1F80
FF8FC0
000000
00C000
01E000
01E000
00C000
ENDCHAR
STARTCHAR uni1E5B
ENCODING 7771
SWIDTH 440 0
DWIDTH 11 0
BBX 12 18 0 -5
BITMAP
1CE0
FDF0
7FF0
7CE0
7C00
7C00
7C00
7C00
7C00
7C00
7C00
7C00
FE00
0000
1800
3C00
3C00
1800
ENDCHAR
STARTCHAR uni1E5C
ENCODING 7772
SWIDTH 684 0
DWIDTH 17 0
BBX 18 25 -1 -5
BITMAP
07F800
07F800
000000
FFF800
3E3E00
3E1F00
3E1F00
3E1F00
3E1F00
3E1E00
3E3C00
3FF000
3EF800
3E7C00
3E7E00
3E3E00
3E3F00
3E3F00
3F1F80
FF8FC0
000000
00C000
01E000
01E000
00C000
ENDCHAR
STARTCHAR uni1E5D
ENCODING 7773
SWIDTH 440 0
DWIDTH 11 0
BBX 12 21 0 -5
BITMAP
3FC0
3FC0
0000
1CE0
FDF0
7FF0
7CE0
7C00
7C00
7C00
7C00
7C00
7C00
7C00
7C00
FE00
0000
1800
3C00
3C00
1800
ENDCHAR
STARTCHAR uni1E5E
ENCODING 7774
SWIDTH 684 0
DWIDTH 17 0
BBX 18 20 -1 -3
BITMAP
FFF800
3E3E00
3E1F00
3E1F00
3E1F00
3E1F00
3E1E00
3E3C00
3FF000
3EF800
3E7C00
3E7E00
3E3E00
3E3F00
3E3F00
3F1F80
FF8FC0
000000
07F800
07F800
ENDCHAR
STARTCHAR uni1E5F
ENCODING 7775
SWIDTH 440 0
DWIDTH 11 0
BBX 12 16 0 -3
BITMAP
1CE0
FDF0
7FF0
7CE0
7C00
7C00
7C00
7C00
7C00
7C00
7C00
7C00
FE00
0000
FF00
FF00
ENDCHAR
STARTCHAR uni1E60
ENCODING 7776
SWIDTH 561 0
DWIDTH 14 0
BBX 13 22 0 0
BITMAP
0600
0F00
0F00
0600
0000
1FE0
7C70
7830
F810
F800
FC00
FF00
7F80
3FE0
0FF0
03F8
81F8
80F8
C0F8
E0F0
F9F0
3FC0
ENDCHAR
STARTCHAR uni1E61
ENCODING 7777
SWIDTH 446 0
DWIDTH 11 0
BBX 10 18 0 0
BITMAP
0C00
1E00
1E00
0C00
0000
1F80
71C0
F0C0
F840
FE00
7F00
3F80
1FC0
0FC0
87C0
C3C0
E380
7E00
ENDCHAR
STARTCHAR uni1E62
ENCODING 7778
SWIDTH 561 0
DWIDTH 14 0
BBX 13 22 0 -5
BITMAP
1FE0
7C70
7830
F810
F800
FC00
FF00
7F80
3FE0
0FF0
03F8
81F8
80F8
C0F8
E0F0
F9F0
3FC0
0000
0300
0780
0780
0300
ENDCHAR
STARTCHAR uni1E63
ENCODING 7779
SWIDTH 446 0
DWIDTH 11 0
BBX 10 18 0 -5
BITMAP
1F80
71C0
F0C0
F840
FE00
7F00
3F80
1FC0
0FC0
87C0
C3C0
E380
7E00
0000
0C00
1E00
1E00
0C00
ENDCHAR
STARTCHAR uni1E64
ENCODING 7780
SWIDTH 561 0
DWIDTH 14 0
BBX 13 28 0 0
BITMAP
0600
0F00
0F00
0600
0000
0100
0380
0780
0E00
1800
0000
1FE0
7C70
7830
F810
F800
FC00
FF00
7F80
3FE0
0FF0
03F8
81F8
80F8
C0F8
E0F0
F9F0
3FC0
ENDCHAR
STARTCHAR uni1E65
ENCODING 7781
SWIDTH 446 0
DWIDTH 11 0
BBX 10 24 0 0
BITMAP
0600
0F00
0F00
0600
0000
0100
0380
0780
0E00
1800
0000
1F80
71C0
F0C0
F840
FE00
7F00
3F80
1FC0
0FC0
87C0
C3C0
E380
7E00
ENDCHAR
STARTCHAR uni1E66
ENCODING 7782
SWIDTH 561 0
DWIDTH 14 0
BBX 13 26 0 0
BITMAP
0300
0780
0780
0300
0000
2020
18C0
0F80
0700
0200
0000
0FE0
3C70
7830
F810
FC00
FF00
7F80
3FE0
0FF0
03F8
81F8
C0F8
E0F0
F9E0
3F80
ENDCHAR
STARTCHAR uni1E67
ENCODING 7783
SWIDTH 446 0
DWIDTH 11 0
BBX 11 24 0 0
BITMAP
0600
0F00
0F00
0600
0000
4040
3180
1F00
0E00
0400
0000
1FC0
78E0
F860
FC20
FE00
7F80
3FC0
0FE0
07E0
83E0
C3E0
E3C0
7F00
ENDCHAR
STARTCHAR uni1E68
ENCODING 7784
SWIDTH 561 0
DWIDTH 14 0
BBX 13 27 0 -5
BITMAP
0C00
1E00
1E00
0C00
0000
1FE0
7C70
7830
F810
F800
FC00
FF00
7F80
3FE0
0FF0
03F8
81F8
80F8
C0F8
E0F0
F9F0
3FC0
0000
0300
0780
0780
0300
ENDCHAR
STARTCHAR uni1E69
ENCODING 7785
SWIDTH 446 0
DWIDTH 11 0
BBX 10 23 0 -5
BITMAP
0C00
1E00
1E00
0C00
0000
1F80
71C0
F0C0
F840
FE00
7F00
3F80
1FC0
0FC0
87C0
C3C0
E380
7E00
0000
0C00
1E00
1E00
0C00
ENDCHAR
STARTCHAR uni1E6A
ENCODING 7786
SWIDTH 624 0
DWIDTH 16 0
BBX 15 22 0 0
BITMAP
0180
03C0
03C0
0180
0000
FFFE
E7CE
C7C6
87C2
07C0
07C0
07C0
07C0
07C0
07C0
07C0
07C0
07C0
07C0
07C0
07C0
1FF0
ENDCHAR
STARTCHAR uni1E6B
ENCODING 7787
SWIDTH 370 0
DWIDTH 9 0
BBX 9 21 0 0
BITMAP
1800
3C00
3C00
1800
0000
0C00
1C00
3C00
FF80
7C00
7C00
7C00
7C00
7C00
7C00
7C00
7C00
7C00
7C80
3F80
1F00
ENDCHAR
STARTCHAR uni1E6C
ENCODING 7788
SWIDTH 624 0
DWIDTH 16 0
BBX 15 22 0 -5
BITMAP
FFFE
E7CE
C7C6
87C2
07C0
07C0
07C0
07C0
07C0
07C0
07C0
07C0
07C0
07C0
07C0
07C0
1FF0
0000
0180
03C0
03C0
0180
ENDCHAR
STARTCHAR uni1E6D
ENCODING 7789
SWIDTH 370 0
DWIDTH 9 0
BBX 9 21 0 -5
BITMAP
0C00
1C00
3C00
FF80
7C00
7C00
7C00
7C00
7C00
7C00
7C00
7C00
7C00
7C80
3F80
1F00
0000
0C00
1E00
1E00
0C00
ENDCHAR
STARTCHAR uni1E6E
ENCODING 7790
SWIDTH 624 0
DWIDTH 16 0
BBX 15 20 0 -3
BITMAP
FFFE
E7CE
C7C6
87C2
07C0
07C0
07C0
07C0
07C0
07C0
07C0
07C0
07C0
07C0
07C0
07C0
1FF0
0000
0FF0
0FF0
ENDCHAR
STARTCHAR uni1E6F
ENCODING 7791
SWIDTH 370 0
DWIDTH 9 0
BBX 9 19 0 -3
BITMAP
0C00
1C00
3C00
FF80
7C00
7C00
7C00
7C00
7C00
7C00
7C00
7C00
7C00
7C80
3F80
1F00
0000
7F80
7F80
ENDCHAR
STARTCHAR uni1E70
ENCODING 7792
SWIDTH 624 0
DWIDTH 16 0
BBX 15 23 0 -6
BITMAP
FFFE
E7CE
C7C6
87C2
07C0
07C0
07C0
07C0
07C0
07C0
07C0
07C0
07C0
07C0
07C0
07C0
1FF0
0000
0100
0380
07C0
0C60
1010
ENDCHAR
STARTCHAR uni1E71
ENCODING 7793
SWIDTH 370 0
DWIDTH 9 0
BBX 9 22 0 -6
BITMAP
0C00
1C00
3C00
FF80
7C00
7C00
7C00
7C00
7C00
7C00
7C00
7C00
7C00
7C80
3F80
1F00
0000
0800
1C00
3E00
6300
8080
ENDCHAR
STARTCHAR uni1E72
ENCODING 7794
SWIDTH 786 0
DWIDTH 20 0
BBX 19 22 0 -5
BITMAP
FFBFE0
3E0F80
3E0F80
3E0F80
3E0F80
3E0F80
3E0F80
3E0F80
3E0F80
3E0F80
3E0F80
3E0F80
3E0F80
3E0F80
1E0F00
0F1E00
03F800
000000
031800
07BC00
07BC00
031800
ENDCHAR
STARTCHAR uni1E73
ENCODING 7795
SWIDTH 629 0
DWIDTH 16 0
BBX 15 18 0 -5
BITMAP
1C1C
FCFC
7C7C
7C7C
7C7C
7C7C
7C7C
7C7C
7C7C
7C7C
7CFC
3F7C
1E7E
0000
0C60
1EF0
1EF0
0C60
ENDCHAR
STARTCHAR uni1E74
ENCODING 7796
SWIDTH 786 0
DWIDTH 20 0
BBX 19 21 0 -4
BITMAP
FFBFE0
3E0F80
3E0F80
3E0F80
3E0F80
3E0F80
3E0F80
3E0F80
3E0F80
3E0F80
3E0F80
3E0F80
3E0F80
3E0F80
1E0F00
0F1E00
03F800
000000
031800
07F000
0C6000
ENDCHAR
STARTCHAR uni1E75
ENCODING 7797
SWIDTH 629 0
DWIDTH 16 0
BBX 15 17 0 -4
BITMAP
1C1C
FCFC
7C7C
7C7C
7C7C
7C7C
7C7C
7C7C
7C7C
7C7C
7CFC
3F7C
1E7E
0000
0630
0FE0
18C0
ENDCHAR
STARTCHAR uni1E76
ENCODING 7798
SWIDTH 786 0
DWIDTH 20 0
BBX 19 23 0 -6
BITMAP
FFBFE0
3E0F80
3E0F80
3E0F80
3E0F80
3E0F80
3E0F80
3E0F80
3E0F80
3E0F80
3E0F80
3E0F80
3E0F80
3E0F80
1E0F00
0F1E00
03F800
000000
004000
00E000
01F000
031800
040400
ENDCHAR
STARTCHAR uni1E77
ENCODING 7799
SWIDTH 629 0
DWIDTH 16 0
BBX 15 19 0 -6
BITMAP
1C1C
FCFC
7C7C
7C7C
7C7C
7C7C
7C7C
7C7C
7C7C
7C7C
7CFC
3F7C
1E7E
0000
0100
0380
07C0
0C60
1010
ENDCHAR
STARTCHAR uni1E78
ENCODING 7800
SWIDTH 786 0
DWIDTH 20 0
BBX 19 27 0 0
BITMAP
001000
003800
007800
00E000
018000
000000
00C600
01FC00
031800
000000
FFBFE0
3E0F80
3E0F80
3E0F80
3E0F80
3E0F80
3E0F80
3E0F80
3E0F80
3E0F80
3E0F80
3E0F80
3E0F80
3E0F80
1E0F00
0F1E00
03F800
ENDCHAR
STARTCHAR uni1E79
ENCODING 7801
SWIDTH 629 0
DWIDTH 16 0
BBX 15 23 0 0
BITMAP
0020
0070
00F0
01C0
0300
0000
0318
07F0
0C60
0000
1C1C
FCFC
7C7C
7C7C
7C7C
7C7C
7C7C
7C7C
7C7C
7C7C
7CFC
3F7C
1E7E
ENDCHAR
STARTCHAR uni1E7A
ENCODING 7802
SWIDTH 786 0
DWIDTH 20 0
BBX 19 25 0 0
BITMAP
031800
07BC00
07BC00
031800
000000
03FC00
03FC00
000000
FFBFE0
3E0F80
3E0F80
3E0F80
3E0F80
3E0F80
3E0F80
3E0F80
3E0F80
3E0F80
3E0F80
3E0F80
3E0F80
3E0F80
1E0F00
0F1E00
03F800
ENDCHAR
STARTCHAR uni1E7B
ENCODING 7803
SWIDTH 629 0
DWIDTH 16 0
BBX 15 21 0 0
BITMAP
0C60
1EF0
1EF0
0C60
0000
0FF0
0FF0
0000
1C1C
FCFC
7C7C
7C7C
7C7C
7C7C
7C7C
7C7C
7C7C
7C7C
7CFC
3F7C
1E7E
ENDCHAR
STARTCHAR uni1E7C
ENCODING 7804
SWIDTH 645 0
DWIDTH 17 0
BBX 18 21 -1 0
BITMAP
018C00
03F800
063000
000000
FF8FC0
3E0300
3E0300
1F0600
1F0600
1F0600
0F8C00
0F8C00
0F8C00
07D800
07D800
07D800
03F000
03F000
03F000
01E000
01E000
ENDCHAR
STARTCHAR uni1E7D
ENCODING 7805
SWIDTH 520 0
DWIDTH 13 0
BBX 14 17 -1 0
BITMAP
0C60
1FC0
3180
0000
FE3C
7C18
7C10
7C10
3E30
3E20
3E20
1F60
1F40
1F40
0FC0
0F80
0F80
ENDCHAR
STARTCHAR uni1E7E
ENCODING 7806
SWIDTH 645 0
DWIDTH 17 0
BBX 18 22 -1 -5
BITMAP
FF8FC0
3E0300
3E0300
1F0600
1F0600
1F0600
0F8C00
0F8C00
0F8C00
07D800
07D800
07D800
03F000
03F000
03F000
01E000
01E000
000000
00C000
01E000
01E000
00C000
ENDCHAR
STARTCHAR uni1E7F
ENCODING 7807
SWIDTH 520 0
DWIDTH 13 0
BBX 14 18 -1 -5
BITMAP
FE3C
7C18
7C10
7C10
3E30
3E20
3E20
1F60
1F40
1F40
0FC0
0F80
0F80
0000
0300
0780
0780
0300
ENDCHAR
STARTCHAR Wgrave
ENCODING 7808
SWIDTH 933 0
DWIDTH 23 0
BBX 25 23 -1 0
BITMAP
00400000
00E00000
00F00000
00380000
000C0000
00000000
FF8F1F80
3E0F0600
3E0F0400
3E0F0400
3E1F8C00
1F1F8800
1F1F8800
1F178800
1F379800
0FA7D000
0FA7D000
0FA7D000
0FE7F000
07C3E000
07C3E000
07C3E000
07C3E000
ENDCHAR
STARTCHAR wgrave
ENCODING 7809
SWIDTH 774 0
DWIDTH 19 0
BBX 22 19 -1 0
BITMAP
010000
038000
03C000
00E000
003000
000000
FE3C3C
7C3C18
7C3C10
7C3E30
3E3E20
3E3E20
3E7F60
1F5F40
1F5F40
1FDFC0
0F8F80
0F8F80
0F8F80
ENDCHAR
STARTCHAR Wacute
ENCODING 7810
SWIDTH 933 0
DWIDTH 23 0
BBX 25 23 -1 0
BITMAP
00040000
000E0000
001E0000
00380000
00600000
00000000
FF8F1F80
3E0F0600
3E0F0400
3E0F0400
3E1F8C00
1F1F8800
1F1F8800
1F178800
1F379800
0FA7D000
0FA7D000
0FA7D000
0FE7F000
07C3E000
07C3E000
07C3E000
07C3E000
ENDCHAR
STARTCHAR wacute
ENCODING 7811
SWIDTH 774 0
DWIDTH 19 0
BBX 22 19 -1 0
BITMAP
000800
001C00
003C00
007000
00C000
000000
FE3C3C
7C3C18
7C3C10
7C3E30
3E3E20
3E3E20
3E7F60
1F5F40
1F5F40
1FDFC0
0F8F80
0F8F80
0F8F80
ENDCHAR
STARTCHAR Wdieresis
ENCODING 7812
SWIDTH 933 0
DWIDTH 23 0
BBX 25 22 -1 0
BITMAP
00C60000
01EF0000
01EF0000
00C60000
00000000
FF8F1F80
3E0F0600
3E0F0400
3E0F0400
3E1F8C00
1F1F8800
1F1F8800
1F178800
1F379800
0FA7D000
0FA7D000
0FA7D000
0FE7F000
07C3E000
07C3E000
07C3E000
07C3E000
ENDCHAR
STARTCHAR wdieresis
ENCODING 7813
SWIDTH 774 0
DWIDTH 19 0
BBX 22 18 -1 0
BITMAP
018C00
03DE00
03DE00
018C00
000000
FE3C3C
7C3C18
7C3C10
7C3E30
3E3E20
3E3E20
3E7F60
1F5F40
1F5F40
1FDFC0
0F8F80
0F8F80
0F8F80
ENDCHAR
STARTCHAR uni1E86
ENCODING 7814
SWIDTH 933 0
DWIDTH 23 0
BBX 25 22 -1 0
BITMAP
00180000
003C0000
003C0000
00180000
00000000
FF8F1F80
3E0F0600
3E0F0400
3E0F0400
3E1F8C00
1F1F8800
1F1F8800
1F178800
1F379800
0FA7D000
0FA7D000
0FA7D000
0FE7F000
07C3E000
07C3E000
07C3E000
07C3E000
ENDCHAR
STARTCHAR uni1E87
ENCODING 7815
SWIDTH 774 0
DWIDTH 19 0
BBX 22 18 -1 0
BITMAP
006000
00F000
00F000
006000
000000
FE3C3C
7C3C18
7C3C10
7C3E30
3E3E20
3E3E20
3E7F60
1F5F40
1F5F40
1FDFC0
0F8F80
0F8F80
0F8F80
ENDCHAR
STARTCHAR uni1E88
ENCODING 7816
SWIDTH 933 0
DWIDTH 23 0
BBX 25 22 -1 -5
BITMAP
FF8F1F80
3E0F0600
3E0F0400
3E0F0400
3E1F8C00
1F1F8800
1F1F8800
1F178800
1F379800
0FA7D000
0FA7D000
0FA7D000
0FE7F000
07C3E000
07C3E000
07C3E000
07C3E000
00000000
00180000
003C0000
003C0000
00180000
ENDCHAR
STARTCHAR uni1E89
ENCODING 7817
SWIDTH 774 0
DWIDTH 19 0
BBX 22 18 -1 -5
BITMAP
FE3C3C
7C3C18
7C3C10
7C3E30
3E3E20
3E3E20
3E7F60
1F5F40
1F5F40
1FDFC0
0F8F80
0F8F80
0F8F80
000000
003000
007800
007800
003000
ENDCHAR
STARTCHAR uni1E8A
ENCODING 7818
SWIDTH 634 0
DWIDTH 16 0
BBX 17 22 0 0
BITMAP
018000
03C000
03C000
018000
000000
FF9F80
3E0E00
3F0C00
1F0800
0F9000
0F9000
07E000
07E000
03E000
03F000
03F000
04F800
04F800
087C00
187E00
383E00
FCFF80
ENDCHAR
STARTCHAR uni1E8B
ENCODING 7819
SWIDTH 522 0
DWIDTH 13 0
BBX 13 18 0 0
BITMAP
0600
0F00
0F00
0600
0000
FE78
7C30
7C60
3E40
1FC0
1F80
0F80
0FC0
1FC0
13E0
31F0
61F0
F3F8
ENDCHAR
STARTCHAR uni1E8C
ENCODING 7820
SWIDTH 634 0
DWIDTH 16 0
BBX 17 22 0 0
BITMAP
0C6000
1EF000
1EF000
0C6000
000000
FF9F80
3E0E00
3F0C00
1F0800
0F9000
0F9000
07E000
07E000
03E000
03F000
03F000
04F800
04F800
087C00
187E00
383E00
FCFF80
ENDCHAR
STARTCHAR uni1E8D
ENCODING 7821
SWIDTH 522 0
DWIDTH 13 0
BBX 13 18 0 0
BITMAP
3180
7BC0
7BC0
3180
0000
FE78
7C30
7C60
3E40
1FC0
1F80
0F80
0FC0
1FC0
13E0
31F0
61F0
F3F8
ENDCHAR
STARTCHAR uni1E8E
ENCODING 7822
SWIDTH 617 0
DWIDTH 15 0
BBX 17 22 -1 0
BITMAP
018000
03C000
03C000
018000
000000
FF9F80
3E0600
3E0600
1F0C00
1F0C00
0F9800
0F9800
07F000
07F000
03E000
03E000
03E000
03E000
03E000
03E000
03E000
0FF800
ENDCHAR
STARTCHAR uni1E8F
ENCODING 7823
SWIDTH 524 0
DWIDTH 13 0
BBX 14 23 -1 -5
BITMAP
0600
0F00
0F00
0600
0000
FE3C
7C18
7C10
3E30
3E20
3E20
1F60
1F40
1F40
0FC0
0F80
0F80
0780
0700
6700
F600
F400
7800
ENDCHAR
STARTCHAR uni1E90
ENCODING 7824
SWIDTH 614 0
DWIDTH 15 0
BBX 15 23 0 0
BITMAP
0080
01C0
03E0
0630
0808
0000
7FFE
707E
607C
40F8
41F8
01F0
03E0
07E0
07C0
0F80
1F80
1F00
3E02
7E02
7C06
FC0E
FFFE
ENDCHAR
STARTCHAR uni1E91
ENCODING 7825
SWIDTH 483 0
DWIDTH 12 0
BBX 11 19 0 0
BITMAP
0400
0E00
1F00
3180
4040
0000
FFE0
C3E0
87C0
07C0
0F80
1F00
1F00
3E00
7C00
7C00
F820
F860
FFE0
ENDCHAR
STARTCHAR uni1E92
ENCODING 7826
SWIDTH 614 0
DWIDTH 15 0
BBX 15 22 0 -5
BITMAP
7FFE
707E
607C
40F8
41F8
01F0
03E0
07E0
07C0
0F80
1F80
1F00
3E02
7E02
7C06
FC0E
FFFE
0000
0300
0780
0780
0300
ENDCHAR
STARTCHAR uni1E93
ENCODING 7827
SWIDTH 483 0
DWIDTH 12 0
BBX 11 18 0 -5
BITMAP
FFE0
C3E0
87C0
07C0
0F80
1F00
1F00
3E00
7C00
7C00
F820
F860
FFE0
0000
0C00
1E00
1E00
0C00
ENDCHAR
STARTCHAR uni1E94
ENCODING 7828
SWIDTH 614 0
DWIDTH 15 0
BBX 15 20 0 -3
BITMAP
7FFE
707E
607C
40F8
41F8
01F0
03E0
07E0
07C0
0F80
1F80
1F00
3E02
7E02
7C06
FC0E
FFFE
0000
1FE0
1FE0
ENDCHAR
STARTCHAR uni1E95
ENCODING 7829
SWIDTH 483 0
DWIDTH 12 0
BBX 11 16 0 -3
BITMAP
FFE0
C3E0
87C0
07C0
0F80
1F00
1F00
3E00
7C00
7C00
F820
F860
FFE0
0000
7F80
7F80
ENDCHAR
STARTCHAR uni1E96
ENCODING 7830
SWIDTH 631 0
DWIDTH 16 0
BBX 16 22 -1 -3
BITMAP
0E00
FE00
3E00
3E00
3E00
3E00
3E78
3EFC
3F3E
3E3E
3E3E
3E3E
3E3E
3E3E
3E3E
3E3E
3E3E
3E3E
7F3F
0000
0FF0
0FF0
ENDCHAR
STARTCHAR uni1E97
ENCODING 7831
SWIDTH 370 0
DWIDTH 9 0
BBX 9 21 0 0
BITMAP
6300
F780
F780
6300
0000
0C00
1C00
3C00
FF80
7C00
7C00
7C00
7C00
7C00
7C00
7C00
7C00
7C00
7C80
3F80
1F00
ENDCHAR
STARTCHAR uni1E98
ENCODING 7832
SWIDTH 774 0
DWIDTH 19 0
BBX 22 19 -1 0
BITMAP
00F000
019800
019800
019800
00F000
000000
FE3C3C
7C3C18
7C3C10
7C3E30
3E3E20
3E3E20
3E7F60
1F5F40
1F5F40
1FDFC0
0F8F80
0F8F80
0F8F80
ENDCHAR
STARTCHAR uni1E99
ENCODING 7833
SWIDTH 524 0
DWIDTH 13 0
BBX 14 24 -1 -5
BITMAP
0F00
1980
1980
1980
0F00
0000
FE3C
7C18
7C10
3E30
3E20
3E20
1F60
1F40
1F40
0FC0
0F80
0F80
0780
0700
6700
F600
F400
7800
ENDCHAR
STARTCHAR uni1EA0
ENCODING 7840
SWIDTH 644 0
DWIDTH 16 0
BBX 18 22 -1 -5
BITMAP
01E000
01E000
03F000
03F000
03F000
06F800
06F800
06F800
0C7C00
0C7C00
0FFC00
183E00
183E00
183E00
301F00
301F00
FC7FC0
000000
006000
00F000
00F000
006000
ENDCHAR
STARTCHAR uni1EA1
ENCODING 7841
SWIDTH 544 0
DWIDTH 14 0
BBX 14 18 0 -5
BITMAP
3FC0
FBE0
F1F0
61F0
03F0
07F0
19F0
71F0
F1F0
F1F0
F9F0
FFFC
7CF0
0000
0300
0780
0780
0300
ENDCHAR
STARTCHAR uni1EA4
ENCODING 7844
SWIDTH 644 0
DWIDTH 16 0
BBX 18 27 -1 0
BITMAP
002000
007000
00F000
01C000
030000
000000
008000
01C000
03E000
063000
080800
000000
01E000
01E000
03F000
03F000
03F000
06F800
06F800
0C7C00
0C7C00
0FFC00
183E00
183E00
301F00
301F00
FC7FC0
ENDCHAR
STARTCHAR uni1EA5
ENCODING 7845
SWIDTH 544 0
DWIDTH 14 0
BBX 14 25 0 0
BITMAP
0080
01C0
03C0
0700
0C00
0000
0400
0E00
1F00
3180
4040
0000
3FC0
FBE0
F1F0
61F0
03F0
07F0
19F0
71F0
F1F0
F1F0
F9F0
FFFC
7CF0
ENDCHAR
STARTCHAR uni1EA6
ENCODING 7846
SWIDTH 644 0
DWIDTH 16 0
BBX 18 27 -1 0
BITMAP
020000
070000
078000
01C000
006000
000000
008000
01C000
03E000
063000
080800
000000
01E000
01E000
03F000
03F000
03F000
06F800
06F800
0C7C00
0C7C00
0FFC00
183E00
183E00
301F00
301F00
FC7FC0
ENDCHAR
STARTCHAR uni1EA7
ENCODING 7847
SWIDTH 544 0
DWIDTH 14 0
BBX 14 25 0 0
BITMAP
1000
3800
3C00
0E00
0300
0000
0400
0E00
1F00
3180
4040
0000
3FC0
FBE0
F1F0
61F0
03F0
07F0
19F0
71F0
F1F0
F1F0
F9F0
FFFC
7CF0
ENDCHAR
STARTCHAR uni1EAA
ENCODING 7850
SWIDTH 644 0
DWIDTH 16 0
BBX 18 25 -1 0
BITMAP
018C00
03F800
063000
000000
008000
01C000
03E000
063000
080800
000000
01E000
01E000
03F000
03F000
03F000
06F800
06F800
0C7C00
0C7C00
0FFC00
183E00
183E00
301F00
301F00
FC7FC0
ENDCHAR
STARTCHAR uni1EAB
ENCODING 7851
SWIDTH 544 0
DWIDTH 14 0
BBX 14 23 0 0
BITMAP
0C60
1FC0
3180
0000
0400
0E00
1F00
3180
4040
0000
3FC0
FBE0
F1F0
61F0
03F0
07F0
19F0
71F0
F1F0
F1F0
F9F0
FFFC
7CF0
ENDCHAR
STARTCHAR uni1EAC
ENCODING 7852
SWIDTH 644 0
DWIDTH 16 0
BBX 18 28 -1 -5
BITMAP
004000
00E000
01F000
031800
040400
000000
01E000
01E000
03F000
03F000
03F000
06F800
06F800
06F800
0C7C00
0C7C00
0FFC00
183E00
183E00
183E00
301F00
301F00
FC7FC0
000000
006000
00F000
00F000
006000
ENDCHAR
STARTCHAR uni1EAD
ENCODING 7853
SWIDTH 544 0
DWIDTH 14 0
BBX 14 24 0 -5
BITMAP
0200
0700
0F80
18C0
2020
0000
3FC0
FBE0
F1F0
61F0
03F0
07F0
19F0
71F0
F1F0
F1F0
F9F0
FFFC
7CF0
0000
0300
0780
0780
0300
ENDCHAR
STARTCHAR uni1EAE
ENCODING 7854
SWIDTH 644 0
DWIDTH 16 0
BBX 18 28 -1 0
BITMAP
001000
003800
007800
00E000
018000
000000
040800
061800
03F000
01E000
000000
01E000
01E000
03F000
03F000
03F000
06F800
06F800
06F800
0C7C00
0C7C00
0FFC00
183E00
183E00
183E00
301F00
301F00
FC7FC0
ENDCHAR
STARTCHAR uni1EAF
ENCODING 7855
SWIDTH 544 0
DWIDTH 14 0
BBX 14 24 0 0
BITMAP
0080
01C0
03C0
0700
0C00
0000
2040
30C0
1F80
0F00
0000
3FC0
FBE0
F1F0
61F0
03F0
07F0
19F0
71F0
F1F0
F1F0
F9F0
FFFC
7CF0
ENDCHAR
STARTCHAR uni1EB0
ENCODING 7856
SWIDTH 644 0
DWIDTH 16 0
BBX 18 28 -1 0
BITMAP
020000
070000
078000
01C000
006000
000000
040800
061800
03F000
01E000
000000
01E000
01E000
03F000
03F000
03F000
06F800
06F800
06F800
0C7C00
0C7C00
0FFC00
183E00
183E00
183E00
301F00
301F00
FC7FC0
ENDCHAR
STARTCHAR uni1EB1
ENCODING 7857
SWIDTH 544 0
DWIDTH 14 0
BBX 14 24 0 0
BITMAP
0800
1C00
1E00
0700
0180
0000
2040
30C0
1F80
0F00
0000
3FC0
FBE0
F1F0
61F0
03F0
07F0
19F0
71F0
F1F0
F1F0
F9F0
FFFC
7CF0
ENDCHAR
STARTCHAR uni1EB4
ENCODING 7860
SWIDTH 644 0
DWIDTH 16 0
BBX 18 26 -1 0
BITMAP
018C00
03F800
063000
000000
040800
061800
03F000
01E000
000000
01E000
01E000
03F000
03F000
03F000
06F800
06F800
06F800
0C7C00
0C7C00
0FFC00
183E00
183E00
183E00
301F00
301F00
FC7FC0
ENDCHAR
STARTCHAR uni1EB5
ENCODING 7861
SWIDTH 544 0
DWIDTH 14 0
BBX 14 22 0 0
BITMAP
0630
0FE0
18C0
0000
2040
30C0
1F80
0F00
0000
3FC0
FBE0
F1F0
61F0
03F0
07F0
19F0
71F0
F1F0
F1F0
F9F0
FFFC
7CF0
ENDCHAR
STARTCHAR uni1EB6
ENCODING 7862
SWIDTH 644 0
DWIDTH 16 0
BBX 18 27 -1 -5
BITMAP
040800
061800
03F000
01E000
000000
01E000
01E000
03F000
03F000
03F000
06F800
06F800
06F800
0C7C00
0C7C00
0FFC00
183E00
183E00
183E00
301F00
301F00
FC7FC0
000000
006000
00F000
00F000
006000
ENDCHAR
STARTCHAR uni1EB7
ENCODING 7863
SWIDTH 544 0
DWIDTH 14 0
BBX 14 23 0 -5
BITMAP
1020
1860
0FC0
0780
0000
3FC0
FBE0
F1F0
61F0
03F0
07F0
19F0
71F0
F1F0
F1F0
F9F0
FFFC
7CF0
0000
0300
0780
0780
0300
ENDCHAR
STARTCHAR uni1EB8
ENCODING 7864
SWIDTH 629 0
DWIDTH 16 0
BBX 15 22 0 -5
BITMAP
FFFC
3E1C
3E0C
3E04
3E00
3E10
3E30
3FF0
3E30
3E10
3E00
3E00
3E02
3E02
3E06
3F0E
FFFE
0000
0300
0780
0780
0300
ENDCHAR
STARTCHAR uni1EB9
ENCODING 7865
SWIDTH 519 0
DWIDTH 13 0
BBX 12 18 0 -5
BITMAP
1FC0
7DE0
7CF0
F8F0
FFF0
F800
F800
F800
F800
F800
7C10
7C70
1FC0
0000
0C00
1E00
1E00
0C00
ENDCHAR
STARTCHAR uni1EBC
ENCODING 7868
SWIDTH 629 0
DWIDTH 16 0
BBX 15 21 0 0
BITMAP
0630
0FE0
18C0
0000
FFFC
3E1C
3E0C
3E04
3E00
3E10
3E30
3FF0
3E30
3E10
3E00
3E00
3E02
3E02
3E06
3F0E
FFFE
ENDCHAR
STARTCHAR uni1EBD
ENCODING 7869
SWIDTH 519 0
DWIDTH 13 0
BBX 12 17 0 0
BITMAP
0C60
1FC0
3180
0000
1FC0
7DE0
7CF0
F8F0
FFF0
F800
F800
F800
F800
F800
7C10
7C70
1FC0
ENDCHAR
STARTCHAR uni1EBE
ENCODING 7870
SWIDTH 629 0
DWIDTH 16 0
BBX 15 27 0 0
BITMAP
0040
00E0
01E0
0380
0600
0000
0100
0380
07C0
0C60
1010
0000
FFFC
3E1C
3E0C
3E04
3E00
3E10
3E30
3FF0
3E30
3E10
3E00
3E02
3E06
3E0E
FFFE
ENDCHAR
STARTCHAR uni1EBF
ENCODING 7871
SWIDTH 519 0
DWIDTH 13 0
BBX 12 25 0 0
BITMAP
0080
01C0
03C0
0700
0C00
0000
0200
0700
0F80
18C0
2020
0000
1FC0
7DE0
7CF0
F8F0
FFF0
F800
F800
F800
F800
F800
7C10
7C70
1FC0
ENDCHAR
STARTCHAR uni1EC0
ENCODING 7872
SWIDTH 629 0
DWIDTH 16 0
BBX 15 27 0 0
BITMAP
0400
0E00
0F00
0380
00C0
0000
0100
0380
07C0
0C60
1010
0000
FFFC
3E1C
3E0C
3E04
3E00
3E10
3E30
3FF0
3E30
3E10
3E00
3E02
3E06
3E0E
FFFE
ENDCHAR
STARTCHAR uni1EC1
ENCODING 7873
SWIDTH 519 0
DWIDTH 13 0
BBX 12 25 0 0
BITMAP
0800
1C00
1E00
0700
0180
0000
0200
0700
0F80
18C0
2020
0000
1FC0
7DE0
7CF0
F8F0
FFF0
F800
F800
F800
F800
F800
7C10
7C70
1FC0
ENDCHAR
STARTCHAR uni1EC4
ENCODING 7876
SWIDTH 629 0
DWIDTH 16 0
BBX 15 25 0 0
BITMAP
0318
07F0
0C60
0000
0100
0380
07C0
0C60
1010
0000
FFFC
3E1C
3E0C
3E04
3E00
3E10
3E30
3FF0
3E30
3E10
3E00
3E02
3E06
3E0E
FFFE
ENDCHAR
STARTCHAR uni1EC5
ENCODING 7877
SWIDTH 519 0
DWIDTH 13 0
BBX 12 23 0 0
BITMAP
0630
0FE0
18C0
0000
0200
0700
0F80
18C0
2020
0000
1FC0
7DE0
7CF0
F8F0
FFF0
F800
F800
F800
F800
F800
7C10
7C70
1FC0
ENDCHAR
STARTCHAR uni1EC6
ENCODING 7878
SWIDTH 629 0
DWIDTH 16 0
BBX 15 28 0 -5
BITMAP
0200
0700
0F80
18C0
2020
0000
FFFC
3E1C
3E0C
3E04
3E00
3E10
3E30
3FF0
3E30
3E10
3E00
3E00
3E02
3E02
3E06
3F0E
FFFE
0000
0300
0780
0780
0300
ENDCHAR
STARTCHAR uni1EC7
ENCODING 7879
SWIDTH 519 0
DWIDTH 13 0
BBX 12 24 0 -5
BITMAP
0200
0700
0F80
18C0
2020
0000
1FC0
7DE0
7CF0
F8F0
FFF0
F800
F800
F800
F800
F800
7C10
7C70
1FC0
0000
0C00
1E00
1E00
0C00
ENDCHAR
STARTCHAR uni1ECA
ENCODING 7882
SWIDTH 384 0
DWIDTH 10 0
BBX 9 22 0 -5
BITMAP
FF80
3E00
3E00
3E00
3E00
3E00
3E00
3E00
3E00
3E00
3E00
3E00
3E00
3E00
3E00
3E00
FF80
0000
0C00
1E00
1E00
0C00
ENDCHAR
STARTCHAR uni1ECB
ENCODING 7883
SWIDTH 316 0
DWIDTH 8 0
BBX 7 23 0 -5
BITMAP
38
7C
7C
38
00
1C
FC
7C
7C
7C
7C
7C
7C
7C
7C
7C
7C
FE
00
18
3C
3C
18
ENDCHAR
STARTCHAR uni1ECC
ENCODING 7884
SWIDTH 768 0
DWIDTH 19 0
BBX 18 22 0 -5
BITMAP
07F800
1E1E00
3C0F00
7C0F80
7C0F80
F807C0
F807C0
F807C0
F807C0
F807C0
F807C0
F807C0
7C0F80
7C0F80
3C0F00
1E1E00
07F800
000000
00C000
01E000
01E000
00C000
ENDCHAR
STARTCHAR uni1ECD
ENCODING 7885
SWIDTH 585 0
DWIDTH 15 0
BBX 14 18 0 -5
BITMAP
1FE0
7CF8
7CF8
F87C
F87C
F87C
F87C
F87C
F87C
F87C
7CF8
7CF8
1FE0
0000
0300
0780
0780
0300
ENDCHAR
STARTCHAR uni1ED0
ENCODING 7888
SWIDTH 768 0
DWIDTH 19 0
BBX 18 27 0 0
BITMAP
002000
007000
00F000
01C000
030000
000000
008000
01C000
03E000
063000
080800
000000
07F800
1E1E00
3C0F00
7C0F80
7C0F80
F807C0
F807C0
F807C0
F807C0
F807C0
7C0F80
7C0F80
3C0F00
1E1E00
07F800
ENDCHAR
STARTCHAR uni1ED1
ENCODING 7889
SWIDTH 585 0
DWIDTH 15 0
BBX 14 25 0 0
BITMAP
0080
01C0
03C0
0700
0C00
0000
0200
0700
0F80
18C0
2020
0000
1FE0
7CF8
7CF8
F87C
F87C
F87C
F87C
F87C
F87C
F87C
7CF8
7CF8
1FE0
ENDCHAR
STARTCHAR uni1ED2
ENCODING 7890
SWIDTH 768 0
DWIDTH 19 0
BBX 18 27 0 0
BITMAP
020000
070000
078000
01C000
006000
000000
008000
01C000
03E000
063000
080800
000000
07F800
1E1E00
3C0F00
7C0F80
7C0F80
F807C0
F807C0
F807C0
F807C0
F807C0
7C0F80
7C0F80
3C0F00
1E1E00
07F800
ENDCHAR
STARTCHAR uni1ED3
ENCODING 7891
SWIDTH 585 0
DWIDTH 15 0
BBX 14 25 0 0
BITMAP
0800
1C00
1E00
0700
0180
0000
0200
0700
0F80
18C0
2020
0000
1FE0
7CF8
7CF8
F87C
F87C
F87C
F87C
F87C
F87C
F87C
7CF8
7CF8
1FE0
ENDCHAR
STARTCHAR uni1ED6
ENCODING 7894
SWIDTH 768 0
DWIDTH 19 0
BBX 18 25 0 0
BITMAP
018C00
03F800
063000
000000
008000
01C000
03E000
063000
080800
000000
07F800
1E1E00
3C0F00
7C0F80
7C0F80
F807C0
F807C0
F807C0
F807C0
F807C0
7C0F80
7C0F80
3C0F00
1E1E00
07F800
ENDCHAR
STARTCHAR uni1ED7
ENCODING 7895
SWIDTH 585 0
DWIDTH 15 0
BBX 14 23 0 0
BITMAP
0630
0FE0
18C0
0000
0200
0700
0F80
18C0
2020
0000
1FE0
7CF8
7CF8
F87C
F87C
F87C
F87C
F87C
F87C
F87C
7CF8
7CF8
1FE0
ENDCHAR
STARTCHAR uni1ED8
ENCODING 7896
SWIDTH 768 0
DWIDTH 19 0
BBX 18 28 0 -5
BITMAP
004000
00E000
01F000
031800
040400
000000
07F800
1E1E00
3C0F00
7C0F80
7C0F80
F807C0
F807C0
F807C0
F807C0
F807C0
F807C0
F807C0
7C0F80
7C0F80
3C0F00
1E1E00
07F800
000000
00C000
01E000
01E000
00C000
ENDCHAR
STARTCHAR uni1ED9
ENCODING 7897
SWIDTH 585 0
DWIDTH 15 0
BBX 14 24 0 -5
BITMAP
0100
0380
07C0
0C60
1010
0000
1FE0
7CF8
7CF8
F87C
F87C
F87C
F87C
F87C
F87C
F87C
7CF8
7CF8
1FE0
0000
0300
0780
0780
0300
ENDCHAR
STARTCHAR uni1EDA
ENCODING 7898
SWIDTH 768 0
DWIDTH 19 0
BBX 20 23 0 0
BITMAP
000400
000E00
001E00
003800
006000
000000
07F860
1E1EF0
3C0FF0
7C0FF0
7C0FE0
F807E0
F807C0
F807C0
F807C0
F807C0
F807C0
F807C0
7C0F80
7C0F80
3C0F00
1E1E00
07F800
ENDCHAR
STARTCHAR uni1EDB
ENCODING 7899
SWIDTH 585 0
DWIDTH 15 0
BBX 17 19 0 0
BITMAP
001000
003800
007800
00E000
018000
000000
1FE300
7CFF80
7CFF80
F87F80
F87F00
F87F00
F87E00
F87C00
F87C00
F87C00
7CF800
7CF800
1FE000
ENDCHAR
STARTCHAR uni1EDC
ENCODING 7900
SWIDTH 768 0
DWIDTH 19 0
BBX 20 23 0 0
BITMAP
008000
01C000
01E000
007000
001800
000000
07F860
1E1EF0
3C0FF0
7C0FF0
7C0FE0
F807E0
F807C0
F807C0
F807C0
F807C0
F807C0
F807C0
7C0F80
7C0F80
3C0F00
1E1E00
07F800
ENDCHAR
STARTCHAR uni1EDD
ENCODING 7901
SWIDTH 585 0
DWIDTH 15 0
BBX 17 19 0 0
BITMAP
020000
070000
078000
01C000
006000
000000
1FE300
7CFF80
7CFF80
F87F80
F87F00
F87F00
F87E00
F87C00
F87C00
F87C00
7CF800
7CF800
1FE000
ENDCHAR
STARTCHAR uni1EE0
ENCODING 7904
SWIDTH 768 0
DWIDTH 19 0
BBX 20 21 0 0
BITMAP
006300
00FE00
018C00
000000
07F860
1E1EF0
3C0FF0
7C0FF0
7C0FE0
F807E0
F807C0
F807C0
F807C0
F807C0
F807C0
F807C0
7C0F80
7C0F80
3C0F00
1E1E00
07F800
ENDCHAR
STARTCHAR uni1EE1
ENCODING 7905
SWIDTH 585 0
DWIDTH 15 0
BBX 17 17 0 0
BITMAP
018C00
03F800
063000
000000
1FE300
7CFF80
7CFF80
F87F80
F87F00
F87F00
F87E00
F87C00
F87C00
F87C00
7CF800
7CF800
1FE000
ENDCHAR
STARTCHAR uni1EE2
ENCODING 7906
SWIDTH 768 0
DWIDTH 19 0
BBX 20 22 0 -5
BITMAP
07F860
1E1EF0
3C0FF0
7C0FF0
7C0FE0
F807E0
F807C0
F807C0
F807C0
F807C0
F807C0
F807C0
7C0F80
7C0F80
3C0F00
1E1E00
07F800
000000
00C000
01E000
01E000
00C000
ENDCHAR
STARTCHAR uni1EE3
ENCODING 7907
SWIDTH 585 0
DWIDTH 15 0
BBX 17 18 0 -5
BITMAP
1FE300
7CFF80
7CFF80
F87F80
F87F00
F87F00
F87E00
F87C00
F87C00
F87C00
7CF800
7CF800
1FE000
000000
018000
03C000
03C000
018000
ENDCHAR
STARTCHAR uni1EE4
ENCODING 7908
SWIDTH 786 0
DWIDTH 20 0
BBX 19 22 0 -5
BITMAP
FFBFE0
3E0F80
3E0F80
3E0F80
3E0F80
3E0F80
3E0F80
3E0F80
3E0F80
3E0F80
3E0F80
3E0F80
3E0F80
3E0F80
1E0F00
0F1E00
03F800
000000
006000
00F000
00F000
006000
ENDCHAR
STARTCHAR uni1EE5
ENCODING 7909
SWIDTH 629 0
DWIDTH 16 0
BBX 15 18 0 -5
BITMAP
1C1C
FCFC
7C7C
7C7C
7C7C
7C7C
7C7C
7C7C
7C7C
7C7C
7CFC
3F7C
1E7E
0000
0180
03C0
03C0
0180
ENDCHAR
STARTCHAR uni1EE8
ENCODING 7912
SWIDTH 786 0
DWIDTH 20 0
BBX 21 23 0 0
BITMAP
000400
000E00
001E00
003800
006000
000000
FFBFF0
3E0FF8
3E0FF8
3E0FF8
3E0FB0
3E0FB0
3E0FA0
3E0FC0
3E0F80
3E0F80
3E0F80
3E0F80
3E0F80
3E0F80
1E0F00
0F1E00
03F800
ENDCHAR
STARTCHAR uni1EE9
ENCODING 7913
SWIDTH 629 0
DWIDTH 16 0
BBX 18 19 0 0
BITMAP
001000
003800
007800
00E000
018000
000000
1C1D80
FCFFC0
7C7FC0
7C7FC0
7C7D80
7C7D80
7C7D00
7C7E00
7C7C00
7C7C00
7CFC00
3F7C00
1E7E00
ENDCHAR
STARTCHAR uni1EEA
ENCODING 7914
SWIDTH 786 0
DWIDTH 20 0
BBX 21 23 0 0
BITMAP
008000
01C000
01E000
007000
001800
000000
FFBFF0
3E0FF8
3E0FF8
3E0FF8
3E0FB0
3E0FB0
3E0FA0
3E0FC0
3E0F80
3E0F80
3E0F80
3E0F80
3E0F80
3E0F80
1E0F00
0F1E00
03F800
ENDCHAR
STARTCHAR uni1EEB
ENCODING 7915
SWIDTH 629 0
DWIDTH 16 0
BBX 18 19 0 0
BITMAP
010000
038000
03C000
00E000
003000
000000
1C1D80
FCFFC0
7C7FC0
7C7FC0
7C7D80
7C7D80
7C7D00
7C7E00
7C7C00
7C7C00
7CFC00
3F7C00
1E7E00
ENDCHAR
STARTCHAR uni1EEE
ENCODING 7918
SWIDTH 786 0
DWIDTH 20 0
BBX 21 21 0 0
BITMAP
006300
00FE00
018C00
000000
FFBFF0
3E0FF8
3E0FF8
3E0FF8
3E0FB0
3E0FB0
3E0FA0
3E0FC0
3E0F80
3E0F80
3E0F80
3E0F80
3E0F80
3E0F80
1E0F00
0F1E00
03F800
ENDCHAR
STARTCHAR uni1EEF
ENCODING 7919
SWIDTH 629 0
DWIDTH 16 0
BBX 18 17 0 0
BITMAP
00C600
01FC00
031800
000000
1C1D80
FCFFC0
7C7FC0
7C7FC0
7C7D80
7C7D80
7C7D00
7C7E00
7C7C00
7C7C00
7CFC00
3F7C00
1E7E00
ENDCHAR
STARTCHAR uni1EF0
ENCODING 7920
SWIDTH 786 0
DWIDTH 20 0
BBX 21 22 0 -5
BITMAP
FFBFF0
3E0FF8
3E0FF8
3E0FF8
3E0FB0
3E0FB0
3E0FA0
3E0FC0
3E0F80
3E0F80
3E0F80
3E0F80
3E0F80
3E0F80
1E0F00
0F1E00
03F800
000000
006000
00F000
00F000
006000
ENDCHAR
STARTCHAR uni1EF1
ENCODING 7921
SWIDTH 629 0
DWIDTH 16 0
BBX 18 18 0 -5
BITMAP
1C1D80
FCFFC0
7C7FC0
7C7FC0
7C7D80
7C7D80
7C7D00
7C7E00
7C7C00
7C7C00
7CFC00
3F7C00
1E7E00
000000
018000
03C000
03C000
018000
ENDCHAR
STARTCHAR Ygrave
ENCODING 7922
SWIDTH 617 0
DWIDTH 15 0
BBX 17 23 -1 0
BITMAP
040000
0E0000
0F0000
038000
00C000
000000
FF9F80
3E0600
3E0600
1F0C00
1F0C00
0F9800
0F9800
07F000
07F000
03E000
03E000
03E000
03E000
03E000
03E000
03E000
0FF800
ENDCHAR
STARTCHAR ygrave
ENCODING 7923
SWIDTH 524 0
DWIDTH 13 0
BBX 14 24 -1 -5
BITMAP
0800
1C00
1E00
0700
0180
0000
FE3C
7C18
7C10
3E30
3E20
3E20
1F60
1F40
1F40
0FC0
0F80
0F80
0780
0700
6700
F600
F400
7800
ENDCHAR
STARTCHAR uni1EF4
ENCODING 7924
SWIDTH 617 0
DWIDTH 15 0
BBX 17 22 -1 -5
BITMAP
FF9F80
3E0600
3E0600
1F0C00
1F0C00
0F9800
0F9800
07F000
07F000
03E000
03E000
03E000
03E000
03E000
03E000
03E000
0FF800
000000
00C000
01E000
01E000
00C000
ENDCHAR
STARTCHAR uni1EF5
ENCODING 7925
SWIDTH 524 0
DWIDTH 13 0
BBX 14 23 -1 -10
BITMAP
FE3C
7C18
7C10
3E30
3E20
3E20
1F60
1F40
1F40
0FC0
0F80
0F80
0780
0700
6700
F600
F400
7800
0000
0C00
1E00
1E00
0C00
ENDCHAR
STARTCHAR uni1EF8
ENCODING 7928
SWIDTH 617 0
DWIDTH 15 0
BBX 17 21 -1 0
BITMAP
031800
07F000
0C6000
000000
FF9F80
3E0600
3E0600
1F0C00
1F0C00
0F9800
0F9800
07F000
07F000
03E000
03E000
03E000
03E000
03E000
03E000
03E000
0FF800
ENDCHAR
STARTCHAR uni1EF9
ENCODING 7929
SWIDTH 524 0
DWIDTH 13 0
BBX 14 22 -1 -5
BITMAP
0C60
1FC0
3180
0000
FE3C
7C18
7C10
3E30
3E20
3E20
1F60
1F40
1F40
0FC0
0F80
0F80
0780
0700
6700
F600
F400
7800
ENDCHAR
STARTCHAR uni2000
ENCODING 8192
SWIDTH 500 0
DWIDTH 13 0
BBX 1 1 0 0
BITMAP
00
ENDCHAR
STARTCHAR uni2001
ENCODING 8193
SWIDTH 1000 0
DWIDTH 25 0
BBX 1 1 0 0
BITMAP
00
ENDCHAR
STARTCHAR uni2002
ENCODING 8194
SWIDTH 500 0
DWIDTH 13 0
BBX 1 1 0 0
BITMAP
00
ENDCHAR
STARTCHAR uni2003
ENCODING 8195
SWIDTH 1000 0
DWIDTH 25 0
BBX 1 1 0 0
BITMAP
00
ENDCHAR
STARTCHAR uni2004
ENCODING 8196
SWIDTH 333 0
DWIDTH 8 0
BBX 1 1 0 0
BITMAP
00
ENDCHAR
STARTCHAR uni2005
ENCODING 8197
SWIDTH 250 0
DWIDTH 6 0
BBX 1 1 0 0
BITMAP
00
ENDCHAR
STARTCHAR uni2006
ENCODING 8198
SWIDTH 167 0
DWIDTH 4 0
BBX 1 1 0 0
BITMAP
00
ENDCHAR
STARTCHAR uni2007
ENCODING 8199
SWIDTH 560 0
DWIDTH 14 0
BBX 1 1 0 0
BITMAP
00
ENDCHAR
STARTCHAR uni2008
ENCODING 8200
SWIDTH 280 0
DWIDTH 7 0
BBX 1 1 0 0
BITMAP
00
ENDCHAR
STARTCHAR uni2009
ENCODING 8201
SWIDTH 200 0
DWIDTH 5 0
BBX 1 1 0 0
BITMAP
00
ENDCHAR
STARTCHAR uni200A
ENCODING 8202
SWIDTH 100 0
DWIDTH 3 0
BBX 1 1 0 0
BITMAP
00
ENDCHAR
STARTCHAR uni200B
ENCODING 8203
SWIDTH 0 0
DWIDTH 0 0
BBX 1 1 0 0
BITMAP
00
ENDCHAR
STARTCHAR uni2010
ENCODING 8208
SWIDTH 392 0
DWIDTH 10 0
BBX 7 2 1 5
BITMAP
FE
FE
ENDCHAR
STARTCHAR uni2011
ENCODING 8209
SWIDTH 392 0
DWIDTH 10 0
BBX 7 2 1 5
BITMAP
FE
FE
ENDCHAR
STARTCHAR figuredash
ENCODING 8210
SWIDTH 500 0
DWIDTH 12 0
BBX 12 2 0 5
BITMAP
FFF0
FFF0
ENDCHAR
STARTCHAR endash
ENCODING 8211
SWIDTH 500 0
DWIDTH 12 0
BBX 12 2 0 5
BITMAP
FFF0
FFF0
ENDCHAR
STARTCHAR emdash
ENCODING 8212
SWIDTH 1000 0
DWIDTH 25 0
BBX 25 2 0 5
BITMAP
FFFFFF80
FFFFFF80
ENDCHAR
STARTCHAR afii00208
ENCODING 8213
SWIDTH 1000 0
DWIDTH 25 0
BBX 25 2 0 5
BITMAP
FFFFFF80
FFFFFF80
ENDCHAR
STARTCHAR quoteleft
ENCODING 8216
SWIDTH 252 0
DWIDTH 6 0
BBX 4 8 1 9
BITMAP
10
20
60
60
F0
F0
F0
60
ENDCHAR
STARTCHAR quoteright
ENCODING 8217
SWIDTH 252 0
DWIDTH 6 0
BBX 4 8 1 9
BITMAP
60
F0
F0
F0
60
60
40
80
ENDCHAR
STARTCHAR quotesinglbase
ENCODING 8218
SWIDTH 252 0
DWIDTH 6 0
BBX 4 8 0 -3
BITMAP
60
F0
F0
F0
60
60
40
80
ENDCHAR
STARTCHAR quotereversed
ENCODING 8219
SWIDTH 252 0
DWIDTH 6 0
BBX 4 8 1 9
BITMAP
60
F0
F0
F0
60
60
20
10
ENDCHAR
STARTCHAR quotedblleft
ENCODING 8220
SWIDTH 473 0
DWIDTH 12 0
BBX 9 8 1 9
BITMAP
1080
2100
6300
6300
F780
F780
F780
6300
ENDCHAR
STARTCHAR quotedblright
ENCODING 8221
SWIDTH 473 0
DWIDTH 12 0
BBX 9 8 1 9
BITMAP
6300
F780
F780
F780
6300
6300
4200
8400
ENDCHAR
STARTCHAR quotedblbase
ENCODING 8222
SWIDTH 473 0
DWIDTH 12 0
BBX 9 8 1 -3
BITMAP
6300
F780
F780
F780
6300
6300
4200
8400
ENDCHAR
STARTCHAR uni201F
ENCODING 8223
SWIDTH 473 0
DWIDTH 12 0
BBX 9 8 1 9
BITMAP
6300
F780
F780
F780
6300
6300
2100
1080
ENDCHAR
STARTCHAR dagger
ENCODING 8224
SWIDTH 510 0
DWIDTH 13 0
BBX 10 21 2 -4
BITMAP
0C00
0C00
0C00
0C00
0C00
FFC0
FFC0
0C00
0C00
0C00
0C00
0C00
0C00
0C00
0C00
0C00
0C00
0C00
0C00
0C00
0C00
ENDCHAR
STARTCHAR daggerdbl
ENCODING 8225
SWIDTH 486 0
DWIDTH 12 0
BBX 10 21 1 -4
BITMAP
0C00
0C00
0C00
0C00
0C00
FFC0
FFC0
0C00
0C00
0C00
0C00
0C00
0C00
0C00
FFC0
FFC0
0C00
0C00
0C00
0C00
0C00
ENDCHAR
STARTCHAR bullet
ENCODING 8226
SWIDTH 455 0
DWIDTH 11 0
BBX 9 9 1 4
BITMAP
1C00
7F00
7F00
FF80
FF80
FF80
7F00
7F00
1C00
ENDCHAR
STARTCHAR ellipsis
ENCODING 8230
SWIDTH 1000 0
DWIDTH 24 0
BBX 20 5 1 0
BITMAP
606060
F0F0F0
F0F0F0
F0F0F0
606060
ENDCHAR
STARTCHAR perthousand
ENCODING 8240
SWIDTH 1289 0
DWIDTH 32 0
BBX 31 17 0 0
BITMAP
3E010000
77FF0000
E3820000
E3840000
E38C0000
E3880000
E3900000
77300000
3E23E0F8
004771DC
00CE3B8E
008E3B8E
010E3B8E
030E3B8E
020E3B8E
040771DC
0C03E0F8
ENDCHAR
STARTCHAR guilsinglleft
ENCODING 8249
SWIDTH 287 0
DWIDTH 7 0
BBX 5 11 0 0
BITMAP
08
18
10
30
60
E0
60
30
10
18
08
ENDCHAR
STARTCHAR guilsinglright
ENCODING 8250
SWIDTH 287 0
DWIDTH 7 0
BBX 5 11 1 0
BITMAP
80
C0
40
60
30
38
30
60
40
C0
80
ENDCHAR
STARTCHAR fraction
ENCODING 8260
SWIDTH 100 0
DWIDTH 2 0
BBX 10 17 -4 0
BITMAP
0040
00C0
0080
0180
0100
0200
0600
0400
0C00
0800
1800
1000
3000
2000
6000
4000
C000
ENDCHAR
STARTCHAR oneinferior
ENCODING 8321
SWIDTH 402 0
DWIDTH 10 0
BBX 7 10 1 -5
BITMAP
38
F8
38
38
38
38
38
38
38
FE
ENDCHAR
STARTCHAR twoinferior
ENCODING 8322
SWIDTH 402 0
DWIDTH 10 0
BBX 7 10 1 -5
BITMAP
78
EC
CE
0E
0C
18
60
C2
FE
FE
ENDCHAR
STARTCHAR threeinferior
ENCODING 8323
SWIDTH 402 0
DWIDTH 10 0
BBX 8 10 1 -5
BITMAP
7C
E6
C6
0E
7C
06
07
C7
EE
7C
ENDCHAR
STARTCHAR uni20A5
ENCODING 8357
SWIDTH 948 0
DWIDTH 24 0
BBX 23 17 0 -2
BITMAP
000600
000600
3CF6F0
FDFDF8
7E7E7C
7C7C7C
7C7C7C
7C7C7C
7C7C7C
7C7C7C
7C7C7C
7C7C7C
7C7C7C
7C7C7C
FE7E7E
006000
006000
ENDCHAR
STARTCHAR uni20A6
ENCODING 8358
SWIDTH 739 0
DWIDTH 19 0
BBX 18 17 0 0
BITMAP
FE0FC0
3F0300
3F8300
3F8300
3FC300
3FFF00
3FFF00
33F300
31FB00
31FB00
3FFF00
3FFF00
307F00
303F00
301F00
301F00
FC0F00
ENDCHAR
STARTCHAR uni20A9
ENCODING 8361
SWIDTH 933 0
DWIDTH 23 0
BBX 25 17 -1 0
BITMAP
FF8F1F80
3E0F0600
3E0F0400
3E0F0400
3E1F8C00
1FFFE800
1FFFE800
1F178800
1F379800
0FA7D000
0FFFF000
0FFFF000
0FE7F000
07C3E000
07C3E000
07C3E000
07C3E000
ENDCHAR
STARTCHAR Euro
ENCODING 8364
SWIDTH 689 0
DWIDTH 17 0
BBX 19 17 -3 0
BITMAP
00FF80
03C1E0
0780E0
0F8060
0F8020
FFF020
FFF000
1F0000
1F0000
1F0000
FFF000
FFF020
0F8020
0F8060
07C0E0
03E1E0
00FF80
ENDCHAR
STARTCHAR uni20AD
ENCODING 8365
SWIDTH 707 0
DWIDTH 18 0
BBX 19 17 0 0
BITMAP
FF8FC0
3E0700
3E0600
3E0C00
3E1800
3E3000
3E7000
3EF000
FFFFE0
3EFC00
3E7C00
3E3E00
3E3F00
3E1F00
3E0F80
3E0FC0
FF87E0
ENDCHAR
STARTCHAR uni2103
ENCODING 8451
SWIDTH 1065 0
DWIDTH 27 0
BBX 26 17 0 0
BITMAP
1C01FF00
7F0783C0
630F01C0
C19F00C0
C19F0040
C1BE0040
633E0000
7F3E0000
1C3E0000
003E0000
003E0000
003E0040
001F0040
001F00C0
000F81C0
0007C3C0
0001FF00
ENDCHAR
STARTCHAR uni2109
ENCODING 8457
SWIDTH 969 0
DWIDTH 25 0
BBX 24 17 0 0
BITMAP
1C3FFF
7F0F87
630F83
C18F81
C18F80
C18F80
630F84
7F0F8C
1C0FFC
000F8C
000F84
000F80
000F80
000F80
000F80
000F80
003FE0
ENDCHAR
STARTCHAR trademark
ENCODING 8482
SWIDTH 1090 0
DWIDTH 27 0
BBX 26 10 0 7
BITMAP
FFEF03C0
CE678780
8E278780
0E05CB80
0E05CB80
0E04F380
0E04F380
0E046380
0E046380
3F8E07C0
ENDCHAR
STARTCHAR uni212A
ENCODING 8490
SWIDTH 707 0
DWIDTH 18 0
BBX 19 17 0 0
BITMAP
FF8FC0
3E0700
3E0600
3E0C00
3E1800
3E3000
3E7000
3EF000
3FF800
3EFC00
3E7C00
3E3E00
3E3F00
3E1F00
3E0F80
3E0FC0
FF87E0
ENDCHAR
STARTCHAR uni212B
ENCODING 8491
SWIDTH 644 0
DWIDTH 16 0
BBX 18 21 -1 0
BITMAP
01E000
033000
033000
033000
01E000
000000
01E000
01E000
03F000
03F000
03F000
06F800
06F800
0C7C00
0C7C00
0FFC00
183E00
183E00
301F00
301F00
FC7FC0
ENDCHAR
STARTCHAR uni2132
ENCODING 8498
SWIDTH 593 0
DWIDTH 15 0
BBX 14 17 0 0
BITMAP
07FC
01F0
01F0
01F0
01F0
01F0
21F0
31F0
3FF0
31F0
21F0
01F0
01F0
81F0
C1F0
E1F0
FFFC
ENDCHAR
STARTCHAR universal
ENCODING 8704
SWIDTH 644 0
DWIDTH 16 0
BBX 18 17 -1 0
BITMAP
FC7FC0
301F00
301F00
183E00
183E00
183E00
0FFC00
0C7C00
0C7C00
06F800
06F800
06F800
03F000
03F000
03F000
01E000
01E000
ENDCHAR
STARTCHAR existential
ENCODING 8707
SWIDTH 629 0
DWIDTH 16 0
BBX 15 17 0 0
BITMAP
7FFE
70F8
60F8
40F8
00F8
10F8
18F8
1FF8
18F8
10F8
00F8
00F8
80F8
80F8
C0F8
E1F8
FFFE
ENDCHAR
STARTCHAR uni2204
ENCODING 8708
SWIDTH 629 0
DWIDTH 16 0
BBX 15 17 0 0
BITMAP
7FFE
70F8
60F8
40F8
00F8
10F8
18F8
1FF8
19F8
11F8
03F8
03F8
83F8
83F8
C6F8
E7F8
FFFE
ENDCHAR
STARTCHAR minus
ENCODING 8722
SWIDTH 600 0
DWIDTH 15 0
BBX 12 2 1 5
BITMAP
FFF0
FFF0
ENDCHAR
STARTCHAR fraction
ENCODING 8725
SWIDTH 100 0
DWIDTH 2 0
BBX 10 17 -4 0
BITMAP
0040
00C0
0080
0180
0100
0200
0600
0400
0C00
0800
1800
1000
3000
2000
6000
4000
C000
ENDCHAR
STARTCHAR periodcentered
ENCODING 8729
SWIDTH 280 0
DWIDTH 7 0
BBX 4 5 1 4
BITMAP
60
F0
F0
F0
60
ENDCHAR
STARTCHAR uni2236
ENCODING 8758
SWIDTH 280 0
DWIDTH 7 0
BBX 4 12 1 0
BITMAP
60
F0
F0
F0
60
00
00
60
F0
F0
F0
60
ENDCHAR
STARTCHAR uni2259
ENCODING 8793
SWIDTH 600 0
DWIDTH 15 0
BBX 12 13 1 3
BITMAP
0200
0700
0F80
18C0
2020
0000
FFF0
FFF0
0000
0000
0000
FFF0
FFF0
ENDCHAR
STARTCHAR uni225A
ENCODING 8794
SWIDTH 600 0
DWIDTH 15 0
BBX 12 13 1 3
BITMAP
2020
18C0
0F80
0700
0200
0000
FFF0
FFF0
0000
0000
0000
FFF0
FFF0
ENDCHAR
STARTCHAR notequal
ENCODING 8800
SWIDTH 600 0
DWIDTH 15 0
BBX 12 17 1 -2
BITMAP
0180
0180
0180
0300
0300
FFF0
FFF0
0600
0600
0600
FFF0
FFF0
0C00
0C00
1800
1800
1800
ENDCHAR
STARTCHAR equivalence
ENCODING 8801
SWIDTH 600 0
DWIDTH 15 0
BBX 12 5 0 3
BITMAP
FFF0
0000
FFF0
0000
FFF0
ENDCHAR
STARTCHAR uni2262
ENCODING 8802
SWIDTH 600 0
DWIDTH 15 0
BBX 12 17 0 -3
BITMAP
0180
0180
0180
0300
0300
0300
FFF0
0600
FFF0
0600
FFF0
0C00
0C00
0C00
1800
1800
1800
ENDCHAR
STARTCHAR lessequal
ENCODING 8804
SWIDTH 600 0
DWIDTH 15 0
BBX 12 14 1 -2
BITMAP
0030
00F0
03C0
0F00
3C00
F000
F000
3C00
0F00
03C0
00F0
0030
0000
FFF0
ENDCHAR
STARTCHAR greaterequal
ENCODING 8805
SWIDTH 600 0
DWIDTH 15 0
BBX 12 14 1 -2
BITMAP
C000
F000
3C00
0F00
03C0
00F0
00F0
03C0
0F00
3C00
F000
C000
0000
FFF0
ENDCHAR
STARTCHAR uni226E
ENCODING 8814
SWIDTH 600 0
DWIDTH 15 0
BBX 12 17 1 -2
BITMAP
0180
0180
0180
0330
03F0
03C0
0F00
3E00
F600
F600
3C00
0F00
0FC0
0CF0
1830
1800
1800
ENDCHAR
STARTCHAR uni226F
ENCODING 8815
SWIDTH 600 0
DWIDTH 15 0
BBX 12 17 1 -2
BITMAP
0180
0180
0180
C300
F300
3F00
0F00
07C0
06F0
06F0
0FC0
0F00
3C00
FC00
D800
1800
1800
ENDCHAR
STARTCHAR uni2270
ENCODING 8816
SWIDTH 600 0
DWIDTH 15 0
BBX 12 17 1 -3
BITMAP
0180
0180
01B0
03F0
03C0
0F00
3F00
F600
F600
3E00
0F00
0FC0
0CF0
0C30
1800
FFF0
1800
ENDCHAR
STARTCHAR uni2271
ENCODING 8817
SWIDTH 600 0
DWIDTH 15 0
BBX 12 17 1 -3
BITMAP
0180
0180
C180
F300
3F00
0F00
03C0
06F0
06F0
07C0
0F00
3C00
FC00
CC00
1800
FFF0
1800
ENDCHAR
STARTCHAR fi
ENCODING -1
SWIDTH 639 0
DWIDTH 16 0
BBX 16 19 0 0
BITMAP
0FF0
1C7C
3C3E
3C3E
3E1C
3E00
FFFE
3E3E
3E3E
3E3E
3E3E
3E3E
3E3E
3E3E
3E3E
3E3E
3E3E
3E3E
FF7F
ENDCHAR
STARTCHAR fl
ENCODING -1
SWIDTH 639 0
DWIDTH 16 0
BBX 16 19 0 0
BITMAP
0FE6
1CFE
3C7E
3C3E
3E3E
3E3E
3E3E
7FBE
3E3E
3E3E
3E3E
3E3E
3E3E
3E3E
3E3E
3E3E
3E3E
3E3E
FF7F
ENDCHAR
ENDFONT
